<svg width="60" height="20" viewBox="0 0 60 20" fill="none" xmlns="http://www.w3.org/2000/svg">
<g clip-path="url(#clip0_30_1275)">
<path d="M0.75 20L2.12209 5.2524L4.80276 5.02237L3.65935 17.0991L8.38544 16.6518L8.13135 19.3227L0.75 20ZM14.4963 18.8754C10.9391 19.1949 10.3165 16.4729 10.4436 14.9776L11.4599 4.33228L14.1406 4.10224L13.1242 14.7476C12.9972 16.1278 14.166 16.2428 14.7377 16.1917C15.284 16.1406 16.5037 15.8211 16.6307 14.4409L17.6471 3.79553L20.3277 3.5655L19.3114 14.2364C19.197 15.7061 18.0536 18.5559 14.4963 18.8754ZM28.1665 17.4952L25.2317 9.3802L24.4821 17.8275L21.8015 18.0703L23.1736 3.32269L25.8034 3.09266L28.6873 11.4633L29.4623 2.76039L32.1176 2.53036L30.7455 17.2524L28.1665 17.4952ZM40.9091 16.3451L40.3628 13.0479L36.5133 13.393L35.3191 16.8435L32.5368 17.0735L37.7838 1.99362L41.087 1.69969L43.6279 16.0767L40.9091 16.3451ZM39.1432 5.40576L37.4027 10.6837L39.9436 10.4537L39.1432 5.40576ZM52.0256 15.3227L49.8913 9.85304L48.697 9.95528L48.1507 15.655L45.4701 15.885L46.8422 1.13739L51.4412 0.715662C55.0239 0.396173 55.4432 3.16934 55.3415 4.51119L55.2907 5.16295C55.1891 6.21087 54.6174 8.16614 52.7117 9.18851L55.0239 15.016L52.0256 15.3227ZM52.6481 4.86902C52.7752 3.51438 51.7588 3.37381 51.1871 3.42493L49.3196 3.57828L48.9765 7.28435L50.8949 7.10544C51.4666 7.05432 52.483 6.78595 52.61 5.3802L52.6481 4.86902Z" fill="black"/>
<path d="M58.3144 1.02234L58.1111 1.0479L58.0857 1.46962L58.289 1.44406C58.3398 1.44406 58.4669 1.41851 58.4669 1.26515V1.21403C58.505 1.0479 58.3652 1.02234 58.3144 1.02234Z" fill="black"/>
<path d="M58.3144 0C57.4886 0 56.7263 0.677316 56.6755 1.54633C56.6247 2.377 57.2472 3.09265 58.1111 3.09265C58.9369 3.09265 59.6992 2.41534 59.75 1.54633C59.8008 0.677316 59.1529 0 58.3144 0ZM58.8099 1.15016V1.22684C58.8099 1.35463 58.7336 1.57188 58.5177 1.69968L58.8099 2.22364L58.4414 2.2492L58.1874 1.77636H58.0603L58.0095 2.27476L57.6665 2.30032L57.8189 0.753994L58.3652 0.702875C58.7591 0.677316 58.8099 0.996805 58.8099 1.15016Z" fill="black"/>
</g>
<defs>
<clipPath id="clip0_30_1275">
<rect width="59" height="20" fill="white" transform="translate(0.75)"/>
</clipPath>
</defs>
</svg>
