<svg width="20" height="20" viewBox="0 0 20 20" fill="none" xmlns="http://www.w3.org/2000/svg">
<g clip-path="url(#clip0_30_1269)">
<path d="M0.13562 0.133789V19.8668H19.8689V0.133789H0.13562Z" fill="white"/>
<path d="M0.13562 0.133789V19.8668H19.8689V0.133789H0.13562ZM18.556 8.33621C18.5236 8.9509 18.3278 9.71715 18.1553 10.2291C17.4615 12.2906 16.657 13.5687 14.7939 13.5687C14.2454 13.5687 13.2723 13.4232 12.9137 12.4472L12.8287 12.2157L12.6761 12.4091C12.0934 13.1471 11.2275 13.573 10.301 13.5774C9.59003 13.5807 9.01882 13.3426 8.64925 12.8884L8.54792 12.7638L8.43999 12.8829C8.04531 13.3186 7.35796 13.5685 6.55414 13.5685C5.92296 13.5685 5.37796 13.3539 5.01937 12.965L4.92171 12.8589L4.82015 12.9614C4.42152 13.3639 3.79339 13.5667 3.00359 13.5482C2.04542 13.5254 1.46207 12.9907 1.44316 12.1172C1.41425 10.7705 2.71757 7.93715 3.25703 7.07566C3.60726 6.5002 4.0889 6.22121 4.72996 6.22121C5.16628 6.22121 5.46472 6.31238 5.64199 6.5002C5.80343 6.67109 5.83535 6.81516 5.84972 7.16172L5.8682 7.60977L6.10468 7.22875C6.67679 6.30703 7.62492 6.17973 8.56429 6.17973C9.21742 6.17973 9.78734 6.41992 10.0162 6.7916L10.1007 6.92863L10.223 6.82461C10.7071 6.41313 11.3901 6.18664 12.1462 6.18664C12.9716 6.18664 13.5713 6.39184 13.929 6.79652C14.0103 6.8884 14.0641 6.95262 14.1387 7.10965L14.2306 7.30242L14.3685 7.13945C14.8923 6.51992 15.6073 6.20598 16.4946 6.20598C17.1973 6.20598 17.7309 6.39281 18.08 6.76125C18.518 7.22285 18.5805 7.8725 18.556 8.33625V8.33621Z" fill="#F6EC36"/>
<path d="M0.13562 0.133789V19.8668H19.8689V0.133789H0.13562ZM19.1117 9.09328C19.0224 9.81141 18.5371 11.142 18.2793 11.6737C17.5874 13.0992 16.6631 14.1944 14.8821 14.1944C13.9307 14.1944 13.1481 13.891 12.6905 13.3077C12.0203 13.895 11.1909 14.2027 10.2977 14.2027C9.60968 14.2027 9.00164 14.004 8.53792 13.6365C8.02621 13.9971 7.33562 14.1982 6.57035 14.1982C5.93113 14.1982 5.35597 14.0226 4.90582 13.6982C4.40781 14.0287 3.75515 14.1929 2.98906 14.1748C1.71437 14.1447 0.834253 13.3361 0.808979 12.1622C0.775698 10.6028 2.0889 7.74863 2.70781 6.76023C3.17097 5.99937 3.87792 5.59004 4.74421 5.59004C5.68445 5.59004 6.02527 5.85855 6.19304 6.20047C6.91851 5.58437 7.88019 5.54894 8.56488 5.54894C9.32066 5.54894 9.79496 5.74961 10.1983 6.07066C10.7554 5.73648 11.3945 5.56277 12.1557 5.56277C13.1289 5.56277 13.8519 5.78914 14.3563 6.28769C14.9444 5.79816 15.6811 5.57508 16.5055 5.57508C17.5956 5.57508 18.3128 5.9682 18.7341 6.55438C19.3272 7.38117 19.2211 8.21344 19.1117 9.09328Z" fill="#D01012"/>
<path d="M0 0V20H20V0H0ZM19.725 0.275469V19.7253H0.275273V0.275469H19.7249H19.725Z" fill="black"/>
<path d="M19.0153 6.00151V5.86534H19.1078C19.1753 5.86534 19.2105 5.88905 19.2105 5.93292C19.2105 5.96776 19.1879 6.00151 19.1192 6.00151H19.0153ZM19.3471 6.28401L19.2895 6.18409C19.2396 6.09675 19.2257 6.08292 19.183 6.06796V6.06526C19.2671 6.05542 19.317 6.00136 19.317 5.92659C19.317 5.84753 19.2671 5.78772 19.1605 5.78772H18.913V6.28429H19.0156V6.08093H19.0344C19.0783 6.08093 19.0958 6.08589 19.1157 6.10577C19.1357 6.12608 19.1657 6.16827 19.1832 6.20315L19.2233 6.28429L19.3471 6.28401ZM19.1028 5.64944C19.3159 5.64944 19.4891 5.82132 19.4891 6.03409C19.4891 6.2469 19.3156 6.41948 19.1028 6.41948C18.8903 6.41948 18.719 6.24663 18.719 6.03409C18.719 5.82159 18.8903 5.64944 19.1028 5.64944ZM19.1028 5.55491C18.838 5.55491 18.6242 5.76882 18.6242 6.03409C18.6242 6.29925 18.838 6.513 19.1028 6.513C19.1658 6.51316 19.2282 6.50088 19.2864 6.47688C19.3446 6.45287 19.3974 6.41761 19.442 6.37311C19.4865 6.32861 19.5218 6.27576 19.5459 6.21758C19.5699 6.1594 19.5823 6.09705 19.5822 6.03409C19.5823 5.9711 19.5701 5.9087 19.546 5.85047C19.522 5.79225 19.4867 5.73935 19.4422 5.69481C19.3976 5.65028 19.3447 5.61499 19.2865 5.59097C19.2282 5.56695 19.1658 5.55473 19.1028 5.55491ZM16.4946 6.06811C15.461 6.06811 14.7468 6.47788 14.2633 7.05038C14.1816 6.87909 14.1196 6.80401 14.0322 6.70507C13.6364 6.25776 13.0002 6.04905 12.1464 6.04905C11.3121 6.04905 10.6166 6.30956 10.1337 6.71991C9.88288 6.3121 9.28515 6.04214 8.56433 6.04214C7.62253 6.04214 6.59636 6.17534 5.98745 7.15636C5.9728 6.80315 5.94089 6.6162 5.74237 6.40608C5.50104 6.15065 5.11058 6.08405 4.73015 6.08405C4.03698 6.08405 3.51589 6.38686 3.14038 7.00339C2.59581 7.87308 1.27597 10.7346 1.30573 12.1206C1.32507 13.0158 1.92565 13.6609 3.00054 13.6864C3.84042 13.7065 4.49913 13.4819 4.91827 13.0588C5.29433 13.4675 5.86808 13.7071 6.5546 13.7071C7.31905 13.7071 8.08819 13.4775 8.54261 12.9758C8.9253 13.446 9.52745 13.7196 10.302 13.7158C11.3145 13.7109 12.2038 13.2307 12.7846 12.4949C13.1034 13.3625 13.9114 13.7071 14.7942 13.7071C16.7287 13.7071 17.5782 12.3767 18.2865 10.2735C18.446 9.79983 18.6589 9.00874 18.6942 8.34425C18.7525 7.23808 18.2845 6.06811 16.4946 6.06811ZM3.62269 11.3562C4.62362 11.1824 4.87522 11.5442 4.84378 11.8794C4.74933 12.8825 3.82901 13.1069 3.02987 13.0881C2.4503 13.074 1.92921 12.8087 1.91464 12.1359C1.88925 10.9587 3.08983 8.23542 3.65499 7.33272C3.91608 6.90417 4.23413 6.69222 4.74132 6.69222C5.22194 6.69222 5.34104 6.93901 5.33397 7.23464C5.31507 8.02331 4.04081 10.4201 3.62269 11.3562ZM6.88214 10.4317C6.81593 10.6109 6.69065 10.9862 6.58917 11.3842C6.91769 11.3021 7.16409 11.2451 7.58616 11.2552C8.06702 11.2671 8.3744 11.4663 8.3744 11.864C8.3744 12.828 7.30886 13.1111 6.56972 13.1111C5.75815 13.1111 5.04526 12.649 5.04526 11.7615C5.04526 10.7211 5.60929 9.14347 6.13862 8.09245C6.78858 6.80183 7.45269 6.63026 8.59667 6.63026C9.09929 6.63026 9.67858 6.8453 9.67858 7.32003C9.67858 7.97788 9.12116 8.22878 8.56858 8.26054C8.33265 8.27409 7.9694 8.28706 7.7521 8.27167C7.7521 8.27167 7.56823 8.55179 7.3728 9.05104C8.39612 8.90698 8.83007 9.13925 8.65733 9.7312C8.42351 10.5309 7.73065 10.5835 6.88214 10.4317ZM11.9153 7.94358C11.6386 7.94358 11.4576 8.11886 11.323 8.30808C11.0264 8.72464 10.3837 10.3939 10.2837 11.0796C10.2151 11.5492 10.4179 11.6448 10.6395 11.6448C10.9951 11.6448 11.3938 11.2686 11.5298 10.648C11.5298 10.648 10.8529 10.6315 11.0395 10.0312C11.2208 9.4487 11.5648 9.32253 12.1351 9.29913C13.2585 9.25327 13.1476 10.0827 13.0577 10.5251C12.7657 11.9616 11.7434 13.1152 10.2972 13.1152C9.30718 13.1152 8.69261 12.5676 8.69261 11.558C8.69261 10.8387 9.04948 9.70933 9.33245 9.04851C9.93456 7.64186 10.566 6.65749 12.1749 6.65749C13.1401 6.65749 13.9014 7.00436 13.7898 7.90858C13.7079 8.57226 13.3757 8.96198 12.7723 9.00913C12.6036 9.02226 11.9131 9.00476 12.1421 8.35155C12.2218 8.12308 12.2549 7.94358 11.9153 7.94358ZM17.9913 9.13077C17.8212 9.97772 17.4387 10.9795 17.0234 11.7261C16.3459 12.9443 15.5229 13.1149 14.8046 13.1063C14.086 13.0977 13.2764 12.8324 13.2702 11.7241C13.2658 10.9284 13.609 9.8053 13.9004 9.06909C14.4083 7.73444 14.9273 6.6462 16.568 6.66581C18.4814 6.68854 18.1401 8.39007 17.9913 9.13077ZM16.3682 7.9714C16.2039 7.96913 16.0606 8.00132 15.9317 8.19999C15.6423 8.57491 14.7962 10.8871 14.8112 11.3482C14.8165 11.5139 14.9081 11.6588 15.1121 11.6588C15.3462 11.6591 15.4764 11.4972 15.5914 11.3019C15.8576 10.8514 16.6064 8.80761 16.627 8.29667C16.6331 8.14776 16.6082 7.97436 16.3682 7.9714Z" fill="black"/>
</g>
<defs>
<clipPath id="clip0_30_1269">
<rect width="20" height="20" fill="white"/>
</clipPath>
</defs>
</svg>
