<svg width="134" height="20" viewBox="0 0 134 20" fill="none" xmlns="http://www.w3.org/2000/svg">
<g clip-path="url(#clip0_30_1082)">
<path fill-rule="evenodd" clip-rule="evenodd" d="M86.1705 19.9296H133.744V0.0184937H86.1712L86.1705 19.9296ZM133.23 0.528864V19.4192H86.684V0.528864H133.23H133.23ZM0.862061 0.0184937H84.1171V19.9296H0.862061V0.0184937Z" fill="#003F63"/>
<path fill-rule="evenodd" clip-rule="evenodd" d="M133.23 0.52887V19.4192H86.684V0.52887H133.23ZM29.61 11.3222C29.61 13.2755 28.5623 14.2452 26.1926 14.2452H22.459V6.91554H26.0633C28.9354 6.91554 29.61 8.29924 29.61 9.81035V11.3222ZM31.1469 11.2652V10.0104C31.1469 6.00294 27.9734 5.84591 25.8335 5.84591H20.9229V15.3296H26.2643C30.4575 15.3296 31.1469 13.0763 31.1469 11.2652ZM39.4609 12.9911C39.4609 13.5466 39.4173 14.0459 38.7855 14.2741C38.4124 14.4163 37.8811 14.4592 36.99 14.4592C36.1004 14.4592 35.5691 14.3733 35.2536 14.1741C35.0379 14.0459 34.9514 13.8318 34.9514 13.3755C34.9514 12.8052 35.0955 12.477 35.3829 12.3489C35.6556 12.2207 36.0006 12.1918 37.0912 12.1918H39.4609V12.9911ZM40.9113 15.3296V11.6074C40.9113 10.9081 40.9113 10.4096 40.8544 10.0533C40.782 9.6822 40.6527 9.42517 40.3512 9.19702C39.6618 8.65554 37.9528 8.64146 37.106 8.64146C36.4743 8.64146 34.7364 8.71257 34.1047 9.2548C33.8889 9.43998 33.8313 9.65405 33.8313 9.91035C33.8313 10.0815 33.8608 10.3104 33.8756 10.6096H35.2817C35.3113 10.4378 35.3393 10.0244 35.4975 9.86813C35.6837 9.6822 36.0147 9.61109 36.976 9.61109C38.0821 9.61109 38.8579 9.65405 39.1734 9.82442C39.4749 9.99628 39.4609 10.3526 39.4609 10.6237V11.2792H36.2149C35.3393 11.2792 34.3345 11.2941 33.7736 12.0496C33.5298 12.377 33.4153 12.7904 33.4153 13.3326C33.4153 14.9015 34.3913 15.4289 36.8903 15.4289C38.1966 15.4289 39.0441 15.2296 39.5614 14.7874L39.6907 15.3296H40.9113ZM49.6132 15.3296V11.7074C49.6132 10.4526 49.5556 10.1815 49.2534 9.95331C48.9667 9.7385 48.3926 9.61109 47.517 9.61109C46.7411 9.61109 45.9513 9.71109 45.2042 9.91035V15.3296H43.7686V8.6985H45.0609L45.1607 9.16887C45.4488 9.01183 45.6638 8.89776 45.966 8.81183C46.4389 8.66961 47.0426 8.5985 47.8465 8.5985C48.7657 8.5985 49.4691 8.74072 50.0144 8.98368C50.5464 9.21183 50.8331 9.63924 50.9484 10.1392C51.02 10.4815 51.0489 10.78 51.0489 11.5363V15.3289L49.6132 15.3296ZM60.2384 14.9304C59.5786 15.2578 58.502 15.4007 57.0937 15.4007C56.1176 15.4007 55.313 15.3296 54.682 15.1726C54.0066 15.0155 53.6763 14.7022 53.6328 14.1318C53.6187 13.8318 53.6327 13.5615 53.6763 13.2044H55.0551C55.098 13.5466 55.098 13.6466 55.112 13.7178C55.1696 14.0311 55.1416 14.2029 55.5147 14.317C55.8731 14.4303 56.4479 14.4741 57.1802 14.4741C58.0993 14.4741 58.7311 14.3733 59.1619 14.1881C59.4626 14.06 59.6067 13.8178 59.6067 13.3615C59.6067 12.8341 59.4921 12.62 58.9468 12.5341C58.7739 12.5059 58.6018 12.5059 58.4296 12.4918C58.3291 12.477 58.0129 12.477 57.5104 12.4629C57.2666 12.4629 56.9932 12.4481 56.6629 12.4348C55.2413 12.3637 53.7192 12.3066 53.7192 10.6378C53.7192 9.14072 54.6532 8.61257 57.1949 8.61257C57.8407 8.61257 58.6454 8.65554 59.119 8.71257C59.6783 8.78442 60.0943 8.88294 60.3973 9.0548C60.7268 9.23998 60.8414 9.53924 60.8414 10.0674C60.8414 10.2096 60.8414 10.3526 60.8133 10.5807H59.4205L59.3628 10.2807C59.2912 9.92517 59.2623 9.85331 59.1478 9.76739C58.9468 9.61109 58.3291 9.53924 57.4676 9.53924C56.5913 9.53924 56.1036 9.5822 55.7016 9.72517C55.3278 9.85331 55.1696 10.0955 55.1696 10.5659C55.1696 10.8948 55.2849 11.1363 55.4423 11.2363C55.8162 11.4644 57.7831 11.4363 58.4577 11.4504C59.1766 11.4652 59.6503 11.5215 60.067 11.6644C60.7985 11.9207 61.0867 12.3918 61.0867 13.3607C61.0867 14.1459 60.8281 14.6304 60.2384 14.9304ZM69.0696 15.3296L65.6234 12.1918H65.1062V15.3296H63.6706V5.84591H65.1062V11.2504H65.6234L68.4815 8.6985H70.161L66.8293 11.6215L70.9796 15.3296H69.0696ZM78.1025 11.3652H73.4919C73.5488 10.5378 73.7209 10.1666 74.0512 9.92443C74.3822 9.6822 74.9992 9.56813 75.9036 9.56813C77.1538 9.56813 77.742 9.83924 77.9577 10.4096C78.0442 10.6518 78.1011 10.8807 78.1011 11.3652H78.1025ZM79.4237 13.2615H78.002C77.9577 13.4615 77.9296 13.9748 77.7434 14.16C77.5277 14.3733 77.0969 14.4741 75.9332 14.4741C74.7997 14.4741 74.1672 14.317 73.851 14.0037C73.6071 13.7607 73.4638 13.2615 73.4638 12.477V12.3066H79.4665C79.4806 11.9778 79.4946 11.8926 79.4946 11.6355C79.4946 10.5378 79.3365 9.92443 78.8629 9.45405C78.3176 8.8985 77.2691 8.62665 75.8334 8.62665C73.9951 8.62665 72.8609 9.04072 72.3872 9.95257C72.1138 10.4815 71.9557 11.2222 71.9557 12.1496C71.9557 13.5896 72.3436 14.5022 73.1911 14.9585C73.7224 15.2437 74.6416 15.4007 75.8039 15.4148C76.7807 15.4148 77.5565 15.3718 78.418 15.1155C79.2508 14.8585 79.4517 14.3881 79.4517 14.0037C79.4517 13.9029 79.4517 13.5755 79.4237 13.2615Z" fill="white"/>
<path fill-rule="evenodd" clip-rule="evenodd" d="M98.3784 8.24218C98.3784 9.63922 97.5893 9.9244 95.9519 9.9244H92.3335V6.91552H96.1388C97.5893 6.91552 98.3784 7.0444 98.3784 8.24218ZM100.274 12.6629C100.274 11.4926 99.599 10.6237 97.9912 10.3814V10.3518C99.2399 10.0244 99.9153 9.38292 99.9153 8.37033C99.9153 6.70144 99.0959 5.84589 96.7698 5.84589H90.7967V15.3296H97.0144C99.1106 15.3296 100.274 14.3881 100.274 12.6629ZM98.7368 12.7622C98.7368 14.1177 97.7762 14.2451 96.2822 14.2451H92.3335V10.994H96.4684C98.2351 10.994 98.7368 11.5644 98.7368 12.7622ZM108.085 12.9911C108.085 13.5466 108.042 14.0459 107.41 14.274C107.037 14.4163 106.506 14.4592 105.615 14.4592C104.725 14.4592 104.193 14.3733 103.879 14.174C103.663 14.0459 103.576 13.8318 103.576 13.3755C103.576 12.8051 103.72 12.477 104.007 12.3488C104.281 12.2207 104.624 12.1918 105.716 12.1918H108.085V12.9911ZM109.536 15.3296V11.6074C109.536 10.9081 109.536 10.4096 109.478 10.0533C109.406 9.68218 109.277 9.42515 108.976 9.197C108.287 8.65552 106.578 8.64144 105.73 8.64144C105.099 8.64144 103.361 8.71255 102.73 9.25478C102.514 9.43996 102.456 9.65403 102.456 9.91033C102.456 10.0814 102.485 10.3103 102.499 10.6096H103.907C103.936 10.4377 103.964 10.0244 104.122 9.86811C104.309 9.68218 104.639 9.61107 105.601 9.61107C106.706 9.61107 107.483 9.65403 107.798 9.8244C108.099 9.99626 108.085 10.3526 108.085 10.6237V11.2792H104.84C103.964 11.2792 102.959 11.294 102.399 12.0496C102.155 12.377 102.04 12.7903 102.04 13.3326C102.04 14.9014 103.017 15.4288 105.515 15.4288C106.822 15.4288 107.67 15.2296 108.186 14.7874L108.315 15.3296H109.536ZM117.879 15.3296V11.7074C117.879 10.4526 117.822 10.1814 117.52 9.95329C117.232 9.73848 116.659 9.61107 115.782 9.61107C115.006 9.61107 114.217 9.71107 113.469 9.91033V15.3296H112.035V8.69848H113.326L113.427 9.16885C113.715 9.01181 113.93 8.89774 114.231 8.81181C114.705 8.66959 115.308 8.59848 116.112 8.59848C117.031 8.59848 117.735 8.7407 118.281 8.98366C118.812 9.21181 119.099 9.63922 119.214 10.1392C119.286 10.4814 119.315 10.78 119.315 11.5363V15.3288L117.879 15.3296ZM127.212 15.3296L123.766 12.1918H123.249V15.3296H121.813V5.84589H123.249V11.2503H123.766L126.624 8.69848H128.303L124.972 11.6214L129.122 15.3296H127.212Z" fill="#003F63"/>
</g>
<defs>
<clipPath id="clip0_30_1082">
<rect width="133" height="20" fill="white" transform="translate(0.799988)"/>
</clipPath>
</defs>
</svg>
