<svg width="75" height="20" viewBox="0 0 75 20" fill="none" xmlns="http://www.w3.org/2000/svg">
<g clip-path="url(#clip0_30_1291)">
<path d="M4.76846 16.3189C4.76846 15.3172 4.42256 14.2738 3.93548 13.182L0 4.40555H2.64013L6.45913 13.2478L10.3028 4.40555H12.943L5.74262 20H2.84837C4.05196 19.0225 4.76846 17.5667 4.76846 16.3189ZM12.29 10.1803C12.29 6.65858 14.7219 4.2461 18.308 4.2461C21.894 4.2461 24.3717 6.65511 24.3717 10.1803C24.3717 13.7054 21.9399 16.1352 18.308 16.1352C14.6759 16.1352 12.29 13.747 12.29 10.1803ZM21.8269 10.1803C21.8269 7.95147 20.461 6.31543 18.308 6.31543C16.1549 6.31543 14.8807 7.95147 14.8807 10.1803C14.8807 12.409 16.222 14.0658 18.308 14.0658C20.3939 14.0658 21.8269 12.4506 21.8269 10.1803ZM25.5082 10.8631V4.40555H28.0072V10.5893C28.0072 12.8839 28.932 14.0208 30.7144 14.0208C32.6345 14.0208 33.7922 12.6101 33.7922 10.1803V4.40555H36.2699V16H34.071L33.8169 14.5442C33.0756 15.4315 31.9638 16.1352 30.1602 16.1352C27.6366 16.1352 25.5082 14.818 25.5082 10.8631ZM37.523 10.818H40.0466C40.1384 12.4541 41.1337 14.0451 44.0526 14.0451C45.4892 14.0451 47.4552 13.4315 47.4552 11.6118C47.4552 10.3155 46.6222 9.63255 43.7985 9.11264C40.8831 8.56845 37.8723 7.81629 37.8723 4.65858C37.8723 2.20451 39.7713 0 43.6115 0C46.8058 0 49.5376 1.7747 49.6999 4.88735H47.2222C47.0598 3.2513 45.7186 2.09012 43.6115 2.09012C41.6455 2.09012 40.4419 3.09185 40.4419 4.47834C40.4419 5.63605 41.3666 6.43327 44.4938 6.95667C48.6835 7.66031 49.9788 9.04682 49.9788 11.2755C49.9788 14.4575 47.1552 16.1386 44.0315 16.1386C40.4666 16.1386 37.597 14.1837 37.5264 10.818H37.523ZM50.9036 10.2045C50.9036 6.63432 53.2648 4.27036 56.7592 4.27036C60.2534 4.27036 62.5229 6.38475 62.5229 9.79545C62.5229 10.0694 62.4771 10.409 62.4312 10.7279H53.519V10.9082C53.5896 12.8874 54.8602 14.1595 56.8297 14.1595C58.3792 14.1595 59.5157 13.4107 59.8405 12.1144H62.3182C61.9264 14.3882 59.9358 16.1386 56.9709 16.1386C53.2684 16.1386 50.9071 13.7747 50.9071 10.2045H50.9036ZM56.7839 6.24956C55.1849 6.24956 53.8226 7.2721 53.6143 8.93236H59.9569C59.724 7.18197 58.4992 6.24956 56.7873 6.24956H56.7839ZM63.3807 10.2045C63.3807 6.63432 65.7419 4.27036 69.2362 4.27036C72.7305 4.27036 75 6.38475 75 9.79545C75 10.0694 74.9541 10.409 74.9083 10.7279H65.9961V10.9082C66.0667 12.8874 67.3373 14.1595 69.3068 14.1595C70.8562 14.1595 71.9928 13.4107 72.3176 12.1144H74.7953C74.4035 14.3882 72.4128 16.1386 69.448 16.1386C65.7455 16.1386 63.3842 13.7747 63.3842 10.2045H63.3807ZM69.2609 6.24956C67.662 6.24956 66.2995 7.2721 66.0914 8.93236H72.434C72.201 7.18197 70.9763 6.24956 69.2644 6.24956H69.2609Z" fill="black"/>
</g>
<defs>
<clipPath id="clip0_30_1291">
<rect width="75" height="20" fill="white"/>
</clipPath>
</defs>
</svg>
