<svg width="215" height="20" viewBox="0 0 215 20" fill="none" xmlns="http://www.w3.org/2000/svg">
<g clip-path="url(#clip0_30_1170)">
<path fill-rule="evenodd" clip-rule="evenodd" d="M15.7045 3.31488L15.4775 3.51448L6.05453 3.14275V8.60075L13.7356 8.20073L14.7354 9.9705L13.7356 11.7435L6.05453 11.3435V16.7708L8.53708 17.3429V19.7139H0V17.3429L2.48497 16.7708V3.22841L0 2.65627V0.286072H15.7045V3.31488Z" fill="#A6192E"/>
<path fill-rule="evenodd" clip-rule="evenodd" d="M33.361 9.99879C33.361 5.6576 31.8476 3.14275 27.6788 3.14275C23.51 3.14275 21.9966 5.6576 21.9966 9.99879C21.9966 14.3416 23.51 16.8572 27.6788 16.8572C31.8476 16.8572 33.361 14.3416 33.361 9.99879ZM18.2857 9.99879C18.2857 3.37064 21.4829 0 27.6788 0C33.8746 0 37.0735 3.37064 37.0735 9.99879C37.0735 16.6286 33.8746 20 27.6788 20C21.4829 20 18.2857 16.6286 18.2857 9.99879Z" fill="#A6192E"/>
<path fill-rule="evenodd" clip-rule="evenodd" d="M54.8454 16.6851V19.7139H40.1407V17.3429L42.6233 16.7708V3.22841L40.1407 2.65627V0.286072H48.6778V2.65627L46.1944 3.22841V16.8572L54.6459 16.4855L54.8454 16.6851Z" fill="#A6192E"/>
<path fill-rule="evenodd" clip-rule="evenodd" d="M77.5531 17.3429V19.7139H72.3013C71.1876 16.1154 69.3019 13.1997 67.2748 11.1132C66.1612 12.1993 65.0192 13.1415 63.9056 13.9699V19.7139H57.8518V17.3429L60.3368 16.7708V3.22841L57.8518 2.65627V0.286072H63.9056V10.1984C66.989 7.62778 69.4465 4.48503 71.274 0.286072H76.4976V2.80092L73.6984 3.34236C72.529 5.1994 71.1012 7.05564 69.5878 8.74217C71.7013 10.8853 73.6702 13.6272 75.27 16.8855L77.5531 17.3429Z" fill="#A6192E"/>
<path fill-rule="evenodd" clip-rule="evenodd" d="M87.1047 3.14275V8.42862L94.7857 8.0278L95.7855 9.79838L94.7857 11.5714L87.1047 11.1706V16.8572L96.5277 16.4855L96.7554 16.6851V19.7139H81.0502V17.3429L83.5359 16.7708V3.22841L81.0502 2.65627V0.286072H96.7554V3.31488L96.5277 3.51448L87.1047 3.14275Z" fill="#A6192E"/>
<path fill-rule="evenodd" clip-rule="evenodd" d="M116.666 3.31488L116.496 3.51448L110.073 3.14275V16.7708L112.556 17.3429V19.7139H104.018V17.3429L106.502 16.7708V3.14275L100.078 3.51448L99.9059 3.31488V0.286072H116.666V3.31488Z" fill="#A6192E"/>
<path fill-rule="evenodd" clip-rule="evenodd" d="M126.215 3.22841V16.7708L128.698 17.3429V19.7139H120.16V17.3429L122.645 16.7708V3.22841L120.16 2.65627V0.286072H128.698V2.65627L126.215 3.22841Z" fill="#A6192E"/>
<path fill-rule="evenodd" clip-rule="evenodd" d="M154.691 2.65627L152.206 3.22841V19.7139H147.979L139.014 4.3129V16.7708L141.127 17.3429V19.7139H133.104V17.3429L135.587 16.7708V3.22841L133.104 2.65627V0.286072H140.385L148.779 14.6842V3.22841L146.666 2.65627V0.286072H154.691V2.65627Z" fill="#A6192E"/>
<path fill-rule="evenodd" clip-rule="evenodd" d="M175.745 18.6852L172.805 20C172.435 19.6557 172.035 19.2 171.749 18.6278C170.693 19.2274 168.952 19.9725 166.753 19.9725C161.47 19.9725 157.388 17.6274 157.388 9.79838C157.388 2.91487 161.07 0 167.322 0C169.808 0 171.807 0.14142 173.919 0.627904V3.91289L173.663 4.08501C171.635 3.54277 169.78 3.22841 167.353 3.22841C163.667 3.22841 161.07 4.45675 161.07 9.82908C161.07 15.5433 163.497 16.829 167.238 16.829C168.78 16.829 170.208 16.4855 171.377 16.1154V11.5997L167.066 11.7993L166.211 10.057L167.066 8.31468L174.804 8.65651V16.0289C174.804 17.1708 175.29 17.9708 175.745 18.6852Z" fill="#A6192E"/>
<path fill-rule="evenodd" clip-rule="evenodd" d="M185.438 3.14275V8.42862L193.117 8.0278L194.117 9.79838L193.117 11.5714L185.438 11.1706V16.8572L194.859 16.4855L195.089 16.6851V19.7139H179.383V17.3429L181.867 16.7708V3.22841L179.383 2.65627V0.286072H195.089V3.31488L194.859 3.51448L185.438 3.14275Z" fill="#A6192E"/>
<path fill-rule="evenodd" clip-rule="evenodd" d="M215 3.31488L214.828 3.51448L208.404 3.14275V16.7708L210.887 17.3429V19.7139H202.35V17.3429L204.836 16.7708V3.14275L198.412 3.51448L198.239 3.31488V0.286072H215V3.31488Z" fill="#A6192E"/>
</g>
<defs>
<clipPath id="clip0_30_1170">
<rect width="215" height="20" fill="white"/>
</clipPath>
</defs>
</svg>
