<svg width="86" height="20" viewBox="0 0 86 20" fill="none" xmlns="http://www.w3.org/2000/svg">
<g clip-path="url(#clip0_30_1207)">
<path d="M27.8574 18.0743C27.0545 18.0743 26.5095 17.4754 26.5095 16.7331V6.56912C26.5095 5.82798 27.0838 5.22741 27.8574 5.22741C28.6327 5.22741 29.2059 5.82741 29.2059 6.56912V16.7331C29.2059 17.476 28.6614 18.0748 27.8574 18.0748V18.0743ZM27.8574 0.145691C28.7189 0.145691 29.4356 0.859977 29.4356 1.71598C29.4356 2.57312 28.7189 3.28569 27.8574 3.28569C26.9971 3.28569 26.2797 2.57255 26.2797 1.71598C26.2797 0.858834 26.9976 0.145691 27.8574 0.145691ZM37.5853 18.1885C35.7773 18.1885 34.1704 17.6183 33.0229 16.7331C32.6208 16.4188 32.4485 15.9903 32.4485 15.62C32.4485 15.0485 32.908 14.6771 33.4823 14.6771C33.9406 14.6771 34.2278 14.8485 34.5437 15.0771C35.319 15.6485 36.4085 16.1903 37.7863 16.1903C39.3358 16.1903 40.168 15.62 40.168 14.7343C40.168 13.764 39.364 13.3925 37.3538 12.8497C33.8218 11.9085 32.5295 10.7085 32.5295 8.65369C32.5295 6.51198 34.5109 5.11312 37.6065 5.11312C38.7839 5.11312 40.0991 5.39883 41.1616 5.91312C41.937 6.28341 42.4826 6.73998 42.4826 7.31141C42.4826 7.82569 42.1954 8.31141 41.4488 8.31141C41.0755 8.31141 40.7022 8.13998 40.2714 7.91026C39.4674 7.48169 38.5772 7.25541 37.5434 7.25541C36.1076 7.25541 35.1312 7.62683 35.1312 8.62455C35.1312 9.59598 35.9927 9.90912 38.058 10.5091C41.1576 11.3948 42.7651 12.2234 42.7651 14.5377C42.7651 16.652 40.9859 18.1948 37.5709 18.1948M50.5622 18.1948C48.753 18.1948 47.1467 17.6291 45.9986 16.7434C45.5965 16.4291 45.4243 16.0005 45.4243 15.6291C45.4243 15.0577 45.8837 14.6863 46.458 14.6863C46.9175 14.6863 47.2047 14.8577 47.5205 15.0863C48.2924 15.6577 49.3825 16.2006 50.7597 16.2006C52.3104 16.2006 53.1432 15.6291 53.1432 14.7434C53.1432 13.772 52.3391 13.4005 50.3307 12.8577C46.7986 11.9205 45.5064 10.7205 45.5064 8.66341C45.5064 6.52626 47.4878 5.12626 50.5863 5.12626C51.7636 5.12626 53.0834 5.41198 54.1454 5.92626C54.9207 6.29769 55.4663 6.75483 55.4663 7.32626C55.4663 7.84055 55.1791 8.32626 54.4325 8.32626C54.0592 8.32626 53.6859 8.15483 53.2592 7.92626C52.4569 7.49769 51.5649 7.27198 50.5334 7.27198C49.1005 7.27198 48.1253 7.64341 48.1253 8.64226C48.1253 9.61369 48.9868 9.92798 51.0532 10.528C54.1534 11.4137 55.7604 12.2423 55.7604 14.5543C55.7604 16.6685 53.9811 18.2091 50.5685 18.2091M58.3678 12.2377V6.58055C58.3678 5.83769 58.9708 5.23769 59.7175 5.23769C60.4641 5.23769 61.0671 5.83769 61.0671 6.58055V12.5463C61.0671 14.3463 62.4713 15.744 64.3666 15.744C66.2619 15.744 67.696 14.3428 67.696 12.5428V6.57141C67.696 5.82855 68.299 5.22855 69.0456 5.22855C69.7923 5.22855 70.3953 5.82855 70.3953 6.57141V12.2228C70.3953 15.5628 67.8442 18.1885 64.3706 18.1885C60.9017 18.1885 58.3747 15.5628 58.3747 12.2228M73.3852 12.2228V6.56969C73.3852 5.82855 73.9883 5.22798 74.7349 5.22798C75.4792 5.22798 76.0823 5.82798 76.0823 6.56512V12.5308C76.0823 14.3308 77.4894 15.7308 79.3818 15.7308C81.277 15.7308 82.7117 14.3308 82.7117 12.5308V6.56569C82.7117 5.82455 83.3147 5.22283 84.0591 5.22283C84.8057 5.22283 85.4087 5.82455 85.4087 6.56569V12.2188C85.4087 15.5577 82.8587 18.1845 79.3841 18.1845C75.914 18.1845 73.3881 15.5577 73.3881 12.2188" fill="black"/>
<path d="M10.4703 12.3429C9.07294 12.3292 7.95129 11.1914 7.96507 9.8023C7.97771 8.41202 9.12119 7.29602 10.5179 7.30916C11.9147 7.3263 13.0364 8.46345 13.0231 9.85202C13.0099 11.2406 11.867 12.3606 10.4697 12.3434L10.4703 12.3429ZM10.5403 4.85545C7.78244 4.82973 5.52477 7.03431 5.49777 9.77888C5.4725 12.5229 7.68825 14.7692 10.4467 14.796C13.2035 14.8212 15.4606 12.6166 15.4835 9.87259C15.5065 7.12802 13.2954 4.8823 10.5329 4.85545H10.5403Z" fill="#F26F61"/>
<path d="M3.67603 9.72572C3.71279 5.98057 6.79461 2.97143 10.5587 3.00743C14.3246 3.04286 17.3484 6.10857 17.3128 9.85429C17.2766 13.6006 14.1954 16.6086 10.4307 16.5743C6.66883 16.5377 3.64214 13.4726 3.6766 9.72686L3.67603 9.72572ZM10.4232 0.0914307H1.41893C0.970961 0.0914307 0.603394 0.455431 0.603394 0.902859V9.86114C0.603394 15.2571 4.99927 19.6314 10.4226 19.6314C15.8465 19.6314 20.2424 15.2571 20.2424 9.86114C20.2424 4.46514 15.8465 0.0914307 10.4232 0.0914307Z" fill="#F26F61"/>
</g>
<defs>
<clipPath id="clip0_30_1207">
<rect width="85" height="20" fill="white" transform="translate(0.5)"/>
</clipPath>
</defs>
</svg>
