<svg width="204" height="104" viewBox="0 0 204 104" fill="none" xmlns="http://www.w3.org/2000/svg">
<path d="M155.269 89.6588C155.997 89.6588 156.643 89.8172 157.207 90.1343C157.771 90.4516 158.195 90.8809 158.477 91.4214C158.477 91.4449 158.488 91.4566 158.512 91.4566C158.524 91.4566 158.529 91.4507 158.529 91.439V90.0113C158.529 89.8938 158.589 89.8345 158.706 89.8345C158.823 89.8347 158.882 89.8939 158.882 90.0113V98.648C158.882 100.187 158.57 101.304 157.947 101.998C157.336 102.702 156.355 103.055 155.004 103.055C154.146 103.055 153.383 102.932 152.713 102.685C152.596 102.65 152.536 102.561 152.536 102.42C152.536 102.303 152.596 102.268 152.713 102.315C153.418 102.573 154.182 102.703 155.004 102.703C156.25 102.703 157.149 102.385 157.701 101.751C158.254 101.116 158.529 100.082 158.529 98.648V97.2203C158.529 97.2087 158.524 97.2027 158.512 97.2027C158.488 97.2027 158.477 97.2145 158.477 97.2379C158.195 97.7784 157.771 98.2077 157.207 98.525C156.643 98.8421 155.997 99.0005 155.269 99.0005C154.141 99.0005 153.254 98.5953 152.608 97.7847C151.973 96.9739 151.655 95.8512 151.655 94.4175C151.655 93.4777 151.761 92.679 151.973 92.0211C152.184 91.363 152.478 90.8745 152.854 90.5572C153.23 90.2283 153.612 89.999 153.999 89.8697C154.387 89.7287 154.81 89.6588 155.269 89.6588ZM30.3732 1.58258C30.5235 1.10318 31.0344 0.836717 31.5139 0.986877C31.9933 1.13721 32.2608 1.64801 32.1105 2.1275C25.1673 24.2779 10.6989 70.4933 8.35956 78.1998C6.02442 85.8923 3.60779 95.0345 2.69159 98.6422C2.56789 99.1292 2.07215 99.424 1.58514 99.3004C1.09841 99.1766 0.804495 98.6817 0.927917 98.1949C1.8477 94.5731 4.27191 85.4002 6.61835 77.6705C8.96103 69.9531 23.4322 23.726 30.3732 1.58258ZM112.773 85.9566C116.885 85.9567 118.942 88.1021 118.942 92.3912C118.941 96.915 116.885 99.1772 112.773 99.1773C112.209 99.1773 111.662 99.1414 111.133 99.0709C110.839 99.0239 110.478 99.0011 110.29 98.7779C110.102 98.5429 110.128 98.1664 110.128 97.8726V87.2613C110.128 86.9675 110.103 86.6017 110.279 86.3785C110.467 86.1553 110.816 86.1276 111.098 86.0806C111.732 85.9984 112.291 85.9566 112.773 85.9566ZM126.551 89.6588C128.678 89.6588 129.841 90.9165 130.041 93.4312C130.065 93.7013 129.976 93.9366 129.777 94.1363C129.589 94.3242 129.353 94.4175 129.071 94.4175H123.185C123.079 94.4175 123.026 94.4651 123.026 94.5591C123.061 97.4027 124.325 98.8248 126.816 98.8248C127.72 98.8247 128.578 98.6596 129.389 98.3306C129.436 98.319 129.471 98.3249 129.494 98.3482C129.53 98.3717 129.547 98.4076 129.547 98.4547C129.547 98.5954 129.494 98.683 129.389 98.7183C128.59 99.0238 127.732 99.1773 126.816 99.1773C124.054 99.1773 122.673 97.5903 122.673 94.4175C122.673 93.6657 122.75 93.002 122.903 92.4263C123.067 91.839 123.272 91.3745 123.519 91.0338C123.777 90.693 124.083 90.4162 124.436 90.2047C124.788 89.9932 125.129 89.8523 125.458 89.7818C125.799 89.6996 126.163 89.6588 126.551 89.6588ZM137.208 89.6588C138.148 89.6588 139.053 89.8112 139.923 90.1168C140.052 90.1638 140.116 90.2522 140.116 90.3814C140.116 90.4284 140.093 90.4634 140.046 90.4869C140.011 90.5104 139.97 90.5162 139.923 90.5045C138.983 90.1754 138.078 90.0113 137.208 90.0113C136.386 90.0113 135.74 90.1872 135.27 90.5396C134.8 90.8803 134.565 91.3506 134.565 91.9498C134.565 92.4785 134.752 92.9137 135.128 93.2545C135.504 93.5834 136.209 93.8535 137.243 94.065C138.324 94.2765 139.118 94.5999 139.623 95.0347C140.128 95.4578 140.381 96.0162 140.381 96.7095C140.381 97.4732 140.093 98.0785 139.518 98.525C138.954 98.9598 138.183 99.1773 137.208 99.1773C136.245 99.1773 135.31 98.9714 134.405 98.5601C134.276 98.5014 134.212 98.407 134.212 98.2779C134.212 98.231 134.23 98.1959 134.265 98.1724C134.3 98.149 134.341 98.1432 134.388 98.1548C135.316 98.6014 136.256 98.8247 137.208 98.8248C138.089 98.8248 138.777 98.6364 139.271 98.2603C139.776 97.8843 140.028 97.3674 140.029 96.7095C140.029 96.1807 139.834 95.7223 139.446 95.3345C139.07 94.9468 138.313 94.6408 137.173 94.4175C136.116 94.2061 135.358 93.9126 134.9 93.5367C134.441 93.1489 134.212 92.6196 134.212 91.9498C134.212 91.2567 134.482 90.7047 135.023 90.2935C135.575 89.8705 136.303 89.6588 137.208 89.6588ZM146.153 89.8345C146.27 89.8347 146.328 89.8939 146.328 90.0113V98.8248C146.328 98.942 146.27 99.0004 146.153 99.0005C146.035 99.0005 145.976 98.9421 145.976 98.8248V90.0113C145.976 89.8938 146.035 89.8345 146.153 89.8345ZM167.554 89.6588C168.611 89.6588 169.375 89.9523 169.845 90.5396C170.315 91.1272 170.55 92.1265 170.55 93.5367V98.8248C170.55 98.9421 170.492 99.0005 170.374 99.0005C170.257 99.0005 170.198 98.9421 170.197 98.8248V93.5367C170.197 92.1503 169.987 91.2158 169.564 90.7339C169.141 90.2522 168.47 90.0113 167.554 90.0113C166.778 90.0113 166.027 90.3231 165.298 90.9459C164.57 91.5687 164.205 92.1971 164.205 92.8316V98.8248C164.205 98.9421 164.146 99.0005 164.029 99.0005C163.911 99.0005 163.853 98.9421 163.853 98.8248V90.0113C163.853 89.8938 163.911 89.8346 164.029 89.8345C164.146 89.8345 164.205 89.8938 164.205 90.0113V91.6685C164.205 91.68 164.211 91.6861 164.223 91.6861C164.246 91.6861 164.258 91.6799 164.258 91.6685C164.599 91.1162 165.081 90.6461 165.703 90.2584C166.326 89.8588 166.943 89.6588 167.554 89.6588ZM112.773 86.3091C112.009 86.3091 111.292 86.3801 110.622 86.5211C110.528 86.5446 110.481 86.6038 110.481 86.6978V98.4371C110.481 98.5309 110.528 98.5894 110.622 98.6129C111.292 98.7538 112.009 98.8248 112.773 98.8248C114.758 98.8247 116.221 98.3012 117.161 97.2554C118.113 96.2096 118.589 94.5883 118.589 92.3912C118.589 90.3231 118.113 88.7953 117.161 87.8082C116.221 86.8094 114.758 86.3092 112.773 86.3091ZM155.269 90.0113C153.095 90.0113 152.008 91.48 152.008 94.4175C152.008 95.7453 152.296 96.7856 152.871 97.5377C153.447 98.278 154.246 98.648 155.269 98.648C156.209 98.648 156.984 98.3779 157.595 97.8375C158.218 97.2852 158.529 96.5859 158.529 95.7398V92.9195C158.529 92.0735 158.218 91.3799 157.595 90.8394C156.984 90.2873 156.209 90.0113 155.269 90.0113ZM126.551 90.0113C124.354 90.0113 123.184 91.3098 123.043 93.9068C123.043 94.0125 123.097 94.065 123.202 94.065H129.547C129.653 94.065 129.706 94.0125 129.706 93.9068C129.624 91.3098 128.572 90.0113 126.551 90.0113ZM193.168 61.732C193.347 61.7169 193.609 61.7321 193.863 61.8882C194.136 62.0554 194.277 62.3072 194.337 62.5289C194.435 62.8919 194.336 63.2484 194.278 63.4351C194.204 63.6692 194.093 63.9202 193.97 64.1656C193.484 65.1375 192.597 66.4437 191.947 67.3326C191.651 67.738 191.081 67.8263 190.676 67.5298C190.27 67.2332 190.182 66.664 190.479 66.2584C190.821 65.7905 191.211 65.2272 191.565 64.6783C190.322 65.5461 188.735 66.7533 187.351 67.9517C186.292 68.8682 185.402 69.7373 184.878 70.4127C184.746 70.5832 184.652 70.7228 184.587 70.8326C184.651 70.8585 184.726 70.8872 184.811 70.9185C185.125 71.0343 185.529 71.1668 186.006 71.3121C186.96 71.6026 188.165 71.9344 189.454 72.2867C192.004 72.9835 194.913 73.7654 196.665 74.4283C198.491 75.119 200.271 75.8813 201.603 76.8091C202.925 77.7306 204 78.9559 204 80.607C204 81.152 203.783 81.6524 203.504 82.0777C203.221 82.5082 202.833 82.926 202.388 83.3238C201.498 84.1196 200.282 84.9269 198.926 85.6929C196.208 87.2288 192.786 88.6788 189.913 89.6031C185.344 91.0731 180.117 92.1288 178.066 92.4752C177.57 92.5587 177.101 92.2245 177.018 91.7291C176.934 91.2337 177.268 90.7649 177.763 90.6812C179.763 90.3436 184.897 89.305 189.356 87.8707C192.125 86.9797 195.432 85.5774 198.03 84.1089C199.333 83.3729 200.424 82.6394 201.175 81.9673C201.551 81.6313 201.817 81.3321 201.984 81.0787C202.153 80.8203 202.181 80.6682 202.181 80.607C202.181 79.8461 201.703 79.0968 200.563 78.3023C199.431 77.514 197.837 76.8174 196.021 76.1304C194.371 75.5064 191.573 74.7515 188.975 74.0416C187.69 73.6905 186.459 73.3518 185.476 73.0523C184.984 72.9027 184.543 72.7595 184.182 72.6265C183.842 72.5015 183.503 72.3607 183.263 72.2047C182.985 72.0237 182.778 71.753 182.692 71.4175C182.612 71.1078 182.653 70.8143 182.718 70.5845C182.844 70.141 183.131 69.6959 183.44 69.2974C184.077 68.4752 185.08 67.5113 186.16 66.5757C188.327 64.7007 191.01 62.7679 192.264 62.0572C192.521 61.9115 192.84 61.7597 193.168 61.732ZM146.153 85.7808C146.27 85.781 146.328 85.8395 146.328 85.9566V87.3668C146.328 87.4841 146.27 87.5434 146.153 87.5435C146.035 87.5435 145.976 87.4843 145.976 87.3668V85.9566C145.976 85.8394 146.035 85.7808 146.153 85.7808ZM82.3273 61.5347C82.5858 61.1041 83.1446 60.9641 83.5754 61.2222C84.0061 61.4808 84.1463 62.0404 83.8879 62.4713C83.7109 62.7662 83.7021 63.0011 83.7707 63.231C83.8512 63.5005 84.0605 63.8241 84.4308 64.1871C85.1759 64.9171 86.3244 65.5708 87.3244 66.0709C88.6207 66.719 90.3489 67.7105 91.9445 68.7974C93.5137 69.8664 95.0577 71.096 95.8908 72.232C96.8498 73.5398 97.9738 75.5069 97.6994 77.7769C97.418 80.1049 95.7181 82.4147 91.8019 84.5035C87.8157 86.6295 84.4529 86.663 81.8635 85.8502C79.3087 85.0481 77.586 83.448 76.7814 82.4068C76.2845 81.7637 75.7117 80.7178 75.2219 79.7134C74.726 78.6967 74.2752 77.6387 74.0344 76.9312C73.8725 76.4556 74.1263 75.939 74.6017 75.7769C75.0773 75.615 75.5939 75.8689 75.756 76.3443C75.9636 76.954 76.3797 77.9387 76.8566 78.9166C77.3396 79.9068 77.8464 80.8086 78.2219 81.2945C78.8467 82.1029 80.2767 83.4446 82.4084 84.1138C84.506 84.7723 87.3652 84.8075 90.9455 82.898C94.5954 80.9513 95.7115 79.0565 95.8928 77.5591C96.0808 76.0038 95.3136 74.5226 94.423 73.3082C93.7879 72.4422 92.4727 71.359 90.9201 70.3013C89.394 69.2617 87.7366 68.3117 86.5109 67.6988C85.4935 67.1901 84.1203 66.4306 83.1564 65.4859C82.6724 65.0115 82.2296 64.4313 82.0266 63.7505C81.8118 63.0303 81.8879 62.2671 82.3273 61.5347ZM119.531 11.4019C119.732 10.9413 120.268 10.73 120.729 10.9302C121.189 11.1305 121.4 11.6668 121.2 12.1275C120.554 13.6146 118.592 18.7545 117.495 23.2974C116.108 29.0449 113.53 40.7472 111.94 47.9019C111.493 49.9113 110.739 52.7256 109.884 55.8101C111.491 55.9297 112.786 56.0539 113.512 56.1783C116.246 56.647 118.497 57.1554 119.295 57.355C119.783 57.4769 120.08 57.972 119.958 58.4595C119.836 58.9468 119.341 59.2425 118.854 59.1207C118.101 58.9325 115.895 58.4335 113.204 57.9722C112.494 57.8506 111.124 57.724 109.385 57.5992C108.849 59.5131 108.291 61.4888 107.75 63.4068C106.945 66.2655 106.182 69.0032 105.603 71.2466C105.015 73.5215 104.639 75.2044 104.572 76.0025C104.338 78.7997 105.483 80.3235 105.757 80.8326C105.995 81.2749 105.83 81.8267 105.388 82.065C104.946 82.3032 104.394 82.138 104.155 81.6959C103.93 81.2772 102.472 79.2751 102.759 75.8502C102.841 74.8676 103.264 73.0251 103.841 70.7916C104.426 68.5266 105.194 65.7714 105.999 62.9136C106.508 61.1088 107.027 59.264 107.529 57.4742C106.582 57.4148 105.57 57.3573 104.529 57.3013C100.656 57.0934 96.447 56.9186 93.7541 56.8218C93.252 56.8038 92.8593 56.3825 92.8771 55.8804C92.8952 55.3783 93.3174 54.9854 93.8195 55.0035C96.5201 55.1005 100.74 55.2753 104.626 55.4839C105.802 55.5471 106.955 55.6132 108.029 55.6822C108.921 52.4751 109.708 49.5581 110.163 47.5074C111.75 40.3664 114.333 28.6392 115.726 22.8707C116.853 18.201 118.854 12.9594 119.531 11.4019ZM59.4113 1.13141C59.811 0.826977 60.3822 0.903713 60.6867 1.30328C60.9911 1.70299 60.9135 2.27415 60.5139 2.57867C59.298 3.50508 56.6648 5.57913 55.6144 6.62946C54.1962 8.04773 45.3153 16.2441 39.1642 24.1041C32.9267 32.0746 24.7236 41.9849 21.8254 46.4175C21.1291 47.4824 20.5526 48.6294 20.1828 49.7213C19.8092 50.8245 19.6674 51.8095 19.7707 52.5757C19.8695 53.3085 20.1799 53.8032 20.7258 54.1021C21.3199 54.4274 22.3405 54.6016 24.008 54.317C27.6291 53.6987 31.1918 53.7001 34.1838 54.1461C37.1356 54.5861 39.6741 55.4811 41.1193 56.774C43.0043 58.4606 43.785 60.978 43.8537 63.4947C43.9225 66.0186 43.2832 68.668 42.1799 70.7828C41.1384 72.7789 39.945 74.9947 38.9582 76.9468C38.4664 77.9198 38.0344 78.8124 37.7053 79.5621C37.3675 80.3314 37.1667 80.8878 37.1017 81.2125C37.003 81.7049 36.524 82.0239 36.0314 81.9254C35.5389 81.8267 35.2191 81.3477 35.3176 80.855C35.4248 80.3191 35.6983 79.6049 36.0383 78.8306C36.3868 78.0368 36.8365 77.111 37.3342 76.1265C38.3266 74.1631 39.5427 71.9035 40.5666 69.941C41.5287 68.0969 42.0946 65.754 42.0344 63.5445C41.9739 61.3279 41.2915 59.3699 39.9064 58.1304C38.8609 57.195 36.7519 56.3687 33.9152 55.9459C31.1185 55.529 27.7503 55.5243 24.3146 56.1109C22.4541 56.4286 20.9572 56.3031 19.8517 55.6978C18.6983 55.0662 18.1264 54.0008 17.967 52.8189C17.8121 51.6703 18.0368 50.3845 18.4592 49.1373C18.8855 47.8786 19.5353 46.5941 20.3019 45.4214C23.256 40.9034 31.5767 30.847 37.7316 22.982C43.9729 15.0068 52.991 6.6787 54.3273 5.34235C55.4802 4.18947 58.2174 2.04107 59.4113 1.13141ZM51.3644 57.2457C51.4436 56.7496 51.9103 56.4118 52.4064 56.4908C52.9026 56.5699 53.2404 57.0366 53.1613 57.5328C52.7484 60.1229 51.8273 64.9211 51.1818 68.2125C51.7916 66.9941 52.414 65.8869 53.0266 65.0132C54.5624 62.8227 55.9056 61.1225 57.2541 60.0123C58.64 58.8713 60.0839 58.3122 61.7658 58.4957C63.2265 58.6551 64.1543 59.5169 64.6887 60.4556C65.206 61.3644 65.3826 62.3798 65.3928 63.0582C65.4002 63.5604 64.9994 63.9742 64.4973 63.982C63.9949 63.9895 63.5811 63.5879 63.5734 63.0855C63.5668 62.6408 63.4409 61.9415 63.1076 61.356C62.7914 60.8005 62.32 60.3873 61.5685 60.3052C60.4848 60.187 59.5136 60.5083 58.4103 61.4166C57.2698 62.3555 56.0482 63.8739 54.5168 66.0582C53.3521 67.7194 52.0724 70.4254 50.9338 73.192C49.8029 75.9397 48.8403 78.6752 48.3019 80.3482C48.1628 80.7805 47.731 81.0355 47.2961 80.9673C47.2764 81.0221 47.256 81.0752 47.2375 81.1275C47.0695 81.6011 46.549 81.8492 46.0754 81.6812C45.6021 81.5132 45.354 80.9935 45.5217 80.5201C46.3945 78.0585 48.2199 73.7712 48.8566 70.5875C49.3422 68.1594 50.8147 60.6941 51.3644 57.2457ZM170.91 58.3755C171.458 58.3391 172.034 58.397 172.537 58.6588C173.444 59.1304 173.869 59.9881 174.022 60.8804C174.171 61.7546 174.083 62.7603 173.888 63.7603C173.495 65.7706 172.609 68.0483 171.834 69.8297C171.086 71.551 170.493 73.3728 170.181 74.9693C169.859 76.6182 169.873 77.8469 170.147 78.5035C170.34 78.9671 170.121 79.4996 169.657 79.6929C169.194 79.8862 168.66 79.6665 168.467 79.2027C167.971 78.013 168.063 76.3179 168.395 74.6207C168.737 72.8706 169.375 70.9216 170.165 69.1041C170.929 67.3467 171.748 65.2192 172.102 63.4117C172.279 62.5031 172.325 61.7466 172.229 61.1871C172.136 60.6459 171.936 60.3973 171.697 60.273C171.597 60.2208 171.392 60.168 171.031 60.192C170.678 60.2155 170.236 60.3082 169.721 60.4791C168.691 60.8207 167.47 61.4347 166.238 62.2164C165.011 62.9954 163.803 63.922 162.797 64.8697C161.781 65.8276 161.018 66.7623 160.625 67.5484C159.739 69.3199 159.17 71.0535 158.647 72.9293C158.131 74.7775 157.64 76.8501 156.945 79.1197C156.774 79.6796 156.636 80.0843 156.529 80.3306C156.502 80.3944 156.469 80.4657 156.43 80.5338C156.407 80.5742 156.323 80.7224 156.171 80.8463C156.093 80.9094 155.895 81.0514 155.6 81.0572C155.248 81.0639 154.995 80.8783 154.861 80.7105C154.746 80.5684 154.702 80.4271 154.685 80.3658C154.664 80.2923 154.655 80.2276 154.651 80.1851C154.635 80.0365 154.647 79.8737 154.657 79.7584C154.67 79.6227 154.689 79.4629 154.715 79.2886C154.766 78.939 154.844 78.4961 154.94 77.9986C155.321 76.0171 156.018 73.011 156.592 71.1929C158.078 66.4876 160.459 62.0469 161.869 59.0757C162.085 58.6219 162.627 58.4287 163.081 58.6441C163.535 58.8596 163.728 59.4021 163.513 59.856C163.029 60.8747 162.456 62.0223 161.853 63.2662C162.883 62.333 164.067 61.4399 165.264 60.6802C166.576 59.8477 167.934 59.1554 169.149 58.7525C169.756 58.5511 170.355 58.4125 170.91 58.3755ZM126.667 62.2232C127.165 62.2879 127.517 62.7445 127.452 63.2427C127.255 64.7648 126.701 68.381 126.072 70.4781C125.316 72.9997 124.809 74.8055 124.502 76.1353C124.243 77.2585 123.934 78.4385 123.871 78.7017C123.754 79.1903 123.262 79.4909 122.774 79.3736C122.285 79.2561 121.984 78.7654 122.102 78.2769C122.186 77.9275 122.465 76.8674 122.729 75.7261C123.05 74.3345 123.572 72.4802 124.329 69.9556C124.911 68.0154 125.45 64.5315 125.648 63.0084C125.712 62.5103 126.169 62.1587 126.667 62.2232ZM70.0598 62.8004C70.5589 62.8561 70.918 63.306 70.8625 63.8052C70.6742 65.4998 70.174 69.4172 69.6965 71.191C69.2275 72.9326 68.067 76.1636 67.5529 77.5435C67.3774 78.0142 66.8538 78.254 66.383 78.0787C65.9124 77.9033 65.6729 77.3795 65.8478 76.9088C66.3654 75.5194 67.4962 72.3643 67.9396 70.7173C68.3743 69.1027 68.863 65.3306 69.0549 63.6041C69.1104 63.1047 69.5604 62.7449 70.0598 62.8004ZM142.656 57.0406C143.236 56.9894 143.704 57.2549 144.018 57.5201C144.623 58.0315 145.042 58.8591 145.251 59.399C145.433 59.8674 145.2 60.395 144.732 60.5767C144.263 60.7583 143.736 60.5256 143.554 60.0572C143.475 59.854 143.362 59.6155 143.229 59.3961C143.091 59.1701 142.955 59.0046 142.843 58.9097C142.832 58.9007 142.822 58.893 142.814 58.8863C142.788 58.9114 142.754 58.949 142.712 59.0045C141.427 60.7176 137.44 66.2024 136.036 69.1851C135.669 69.9652 135.278 70.7845 134.953 71.5914C134.627 72.4042 134.394 73.1456 134.318 73.7613C134.24 74.389 134.344 74.7259 134.489 74.9048C134.624 75.0697 134.967 75.3116 135.891 75.3248C137.817 75.3523 140.065 74.6702 142.112 73.8218C144.144 72.9794 145.863 72.0232 146.766 71.5562C147.57 71.1402 148.898 70.3585 150.105 69.9029C150.714 69.6727 151.387 69.487 152.027 69.4908C152.695 69.4948 153.406 69.7131 153.897 70.3677C154.884 71.6847 155.459 73.6182 155.63 74.4097C155.736 74.9006 155.425 75.3844 154.934 75.4908C154.443 75.597 153.958 75.2846 153.852 74.7935C153.7 74.0934 153.195 72.4641 152.442 71.4595C152.388 71.3887 152.298 71.3118 152.016 71.3101C151.705 71.3083 151.278 71.4056 150.747 71.606C149.672 72.0119 148.551 72.6815 147.602 73.1724C146.751 73.6124 144.933 74.6218 142.809 75.5025C140.699 76.3771 138.171 77.1769 135.865 77.1441C134.673 77.1271 133.693 76.8084 133.079 76.0552C132.477 75.3159 132.407 74.3754 132.511 73.5377C132.616 72.6874 132.919 71.7735 133.265 70.9127C133.613 70.0456 134.031 69.1714 134.39 68.4097C135.888 65.2256 140.001 59.586 141.256 57.9127C141.6 57.4538 142.064 57.093 142.656 57.0406ZM187.954 43.523C188.261 43.1247 188.832 43.0506 189.231 43.357C189.629 43.6634 189.703 44.2341 189.397 44.6324C187.908 46.5683 184.28 51.4637 182.822 54.9039C182.448 55.7882 182 57.1945 181.645 58.605C181.284 60.0352 181.048 61.3584 181.048 62.1041C181.048 62.6065 180.64 63.0142 180.138 63.0142C179.636 63.0141 179.229 62.6064 179.229 62.1041C179.229 61.1149 179.517 59.6027 179.88 58.1607C180.248 56.6994 180.724 55.1953 181.148 54.1939C182.711 50.5032 186.49 45.427 187.954 43.523ZM124.656 46.6627C124.849 46.5622 125.077 46.5415 125.294 46.6011C125.512 46.6608 125.701 46.7973 125.842 46.9683C125.889 47.0295 125.934 47.092 125.978 47.1539C126.418 47.7787 126.724 48.401 126.97 49.0552C127.147 49.5306 127.259 50.0244 127.306 50.5484C127.312 50.6163 127.318 50.6894 127.321 50.7603C127.329 50.9781 127.29 51.2026 127.18 51.3941C127.07 51.5854 126.901 51.7274 126.7 51.7925C126.5 51.8576 126.279 51.842 126.077 51.7515C125.876 51.6611 125.712 51.5028 125.59 51.3218C125.555 51.2729 125.518 51.2163 125.483 51.1636C125.212 50.7498 124.989 50.3103 124.82 49.857C124.588 49.2365 124.407 48.5824 124.266 47.9761C124.252 47.9183 124.239 47.8617 124.228 47.8101C124.169 47.5961 124.164 47.3626 124.24 47.15C124.316 46.9376 124.463 46.7632 124.656 46.6627ZM65.715 45.9097C66.0061 45.5001 66.574 45.4038 66.9836 45.6949C67.5432 46.0925 68.3412 46.7771 68.842 47.5406C69.0899 47.9187 69.3272 48.409 69.3391 48.9527C69.3522 49.5637 69.0779 50.1149 68.5441 50.5084C68.0623 50.8634 67.5301 51.0076 66.9992 50.9605C66.4917 50.9155 66.05 50.7028 65.6984 50.4595C65.0083 49.982 64.4814 49.2611 64.1974 48.7564C63.9511 48.3185 64.1063 47.7636 64.5441 47.5172C64.9821 47.2708 65.537 47.4259 65.7834 47.8638C65.9881 48.2278 66.3489 48.6961 66.7336 48.9625C66.9192 49.0909 67.0623 49.1393 67.1594 49.148C67.2332 49.1546 67.327 49.1445 67.4641 49.0435C67.4954 49.0204 67.5122 49.0037 67.5197 48.9947V48.9918C67.5184 48.9382 67.4845 48.7888 67.3205 48.5386C66.9959 48.0438 66.401 47.5137 65.9289 47.1783C65.5196 46.8871 65.4241 46.3193 65.715 45.9097Z" fill="white"/>
</svg>
