<svg width="557" height="282" viewBox="0 0 557 282" fill="none" xmlns="http://www.w3.org/2000/svg">
<path d="M422.532 244.457C424.533 244.457 426.309 244.893 427.859 245.765C429.409 246.637 430.571 247.815 431.346 249.3C431.346 249.365 431.378 249.397 431.443 249.397C431.475 249.397 431.492 249.381 431.492 249.349V245.426C431.492 245.103 431.653 244.942 431.976 244.942C432.299 244.942 432.459 245.103 432.459 245.426V269.156C432.459 273.386 431.604 276.454 429.893 278.359C428.214 280.296 425.518 281.265 421.805 281.265C419.448 281.265 417.35 280.925 415.509 280.247C415.186 280.15 415.025 279.908 415.025 279.521C415.025 279.198 415.187 279.102 415.509 279.231C417.446 279.941 419.545 280.296 421.805 280.296C425.228 280.296 427.698 279.424 429.215 277.681C430.733 275.937 431.492 273.095 431.492 269.156V265.234C431.492 265.202 431.475 265.186 431.443 265.186C431.378 265.186 431.346 265.218 431.346 265.282C430.571 266.768 429.409 267.946 427.859 268.818C426.309 269.689 424.533 270.125 422.532 270.125C419.432 270.125 416.994 269.011 415.218 266.783C413.475 264.556 412.603 261.472 412.603 257.533C412.603 254.95 412.894 252.755 413.475 250.947C414.056 249.139 414.864 247.799 415.897 246.927C416.93 246.023 417.979 245.393 419.044 245.038C420.11 244.651 421.273 244.457 422.532 244.457ZM81.354 2.46118C81.767 1.14384 83.1704 0.410611 84.4878 0.823486C85.8052 1.23654 86.5385 2.63983 86.1255 3.95728C67.0475 64.8175 27.2946 191.799 20.8667 212.973C14.4502 234.11 7.80786 259.23 5.29053 269.142C4.95052 270.48 3.59051 271.289 2.25244 270.949C0.914494 270.61 0.105321 269.249 0.444824 267.911C2.97212 257.96 9.63521 232.759 16.0825 211.521C22.5188 190.319 62.2818 63.3031 81.354 2.46118ZM305.764 234.286C317.065 234.286 322.714 240.179 322.714 251.964C322.714 264.395 317.064 270.609 305.764 270.61C304.214 270.61 302.712 270.513 301.259 270.32C300.452 270.19 299.46 270.126 298.944 269.513C298.427 268.867 298.5 267.833 298.5 267.026V237.87C298.5 237.063 298.43 236.059 298.915 235.446C299.431 234.832 300.388 234.754 301.163 234.625C302.906 234.399 304.44 234.286 305.764 234.286ZM343.624 244.457C349.467 244.457 352.664 247.912 353.212 254.822C353.277 255.564 353.035 256.21 352.486 256.759C351.969 257.275 351.324 257.533 350.549 257.533H334.373C334.082 257.534 333.937 257.663 333.937 257.921C334.034 265.735 337.505 269.641 344.35 269.641C346.836 269.641 349.193 269.189 351.42 268.285C351.549 268.253 351.647 268.269 351.711 268.333C351.808 268.398 351.857 268.495 351.857 268.624C351.857 269.012 351.711 269.254 351.42 269.351C349.225 270.19 346.868 270.61 344.35 270.61C336.763 270.61 332.968 266.251 332.968 257.533C332.968 255.467 333.178 253.643 333.598 252.061C334.05 250.446 334.615 249.171 335.293 248.235C336.004 247.298 336.843 246.539 337.812 245.958C338.78 245.377 339.717 244.99 340.621 244.796C341.557 244.57 342.558 244.457 343.624 244.457ZM372.907 244.457C375.49 244.457 377.976 244.877 380.366 245.716C380.721 245.845 380.898 246.088 380.898 246.443C380.898 246.572 380.834 246.669 380.705 246.734C380.608 246.798 380.495 246.814 380.366 246.781C377.783 245.877 375.296 245.426 372.907 245.426C370.647 245.426 368.871 245.911 367.58 246.879C366.288 247.815 365.642 249.107 365.642 250.753C365.642 252.206 366.159 253.401 367.192 254.337C368.225 255.241 370.163 255.984 373.004 256.565C375.975 257.146 378.154 258.034 379.542 259.229C380.931 260.391 381.624 261.925 381.625 263.829C381.625 265.928 380.833 267.591 379.251 268.818C377.702 270.012 375.587 270.61 372.907 270.61C370.259 270.61 367.693 270.045 365.207 268.915C364.851 268.754 364.673 268.495 364.673 268.14C364.673 268.011 364.722 267.913 364.819 267.849C364.916 267.784 365.029 267.769 365.158 267.801C367.708 269.028 370.292 269.641 372.907 269.641C375.328 269.641 377.218 269.124 378.574 268.091C379.962 267.058 380.656 265.637 380.656 263.829C380.656 262.377 380.123 261.117 379.058 260.052C378.025 258.987 375.942 258.147 372.81 257.533C369.904 256.952 367.822 256.145 366.563 255.112C365.304 254.046 364.673 252.594 364.673 250.753C364.673 248.848 365.417 247.33 366.902 246.2C368.419 245.038 370.421 244.457 372.907 244.457ZM397.482 244.942C397.805 244.942 397.966 245.103 397.966 245.426V269.641C397.966 269.964 397.805 270.125 397.482 270.125C397.159 270.125 396.998 269.964 396.998 269.641V245.426C396.998 245.103 397.159 244.942 397.482 244.942ZM456.288 244.457C459.193 244.457 461.292 245.265 462.583 246.879C463.875 248.493 464.521 251.237 464.521 255.112V269.641C464.521 269.964 464.359 270.125 464.037 270.125C463.714 270.125 463.552 269.964 463.552 269.641V255.112C463.552 251.302 462.971 248.735 461.809 247.411C460.647 246.088 458.806 245.426 456.288 245.426C454.157 245.426 452.09 246.281 450.088 247.992C448.087 249.704 447.085 251.432 447.085 253.175V269.641C447.085 269.964 446.924 270.125 446.601 270.125C446.278 270.125 446.117 269.964 446.117 269.641V245.426C446.117 245.103 446.278 244.942 446.601 244.942C446.924 244.942 447.085 245.103 447.085 245.426V249.979C447.086 250.011 447.102 250.027 447.134 250.027C447.198 250.027 447.231 250.011 447.231 249.979C448.167 248.461 449.491 247.169 451.203 246.104C452.914 245.006 454.609 244.457 456.288 244.457ZM305.764 235.255C303.665 235.255 301.695 235.449 299.855 235.836C299.597 235.901 299.468 236.062 299.468 236.321V268.575C299.468 268.834 299.597 268.995 299.855 269.06C301.695 269.447 303.665 269.641 305.764 269.641C311.22 269.641 315.24 268.205 317.823 265.331C320.438 262.458 321.746 258.002 321.746 251.964C321.746 246.282 320.438 242.084 317.823 239.372C315.24 236.628 311.221 235.255 305.764 235.255ZM422.532 245.426C416.559 245.426 413.572 249.462 413.572 257.533C413.572 261.182 414.363 264.039 415.945 266.106C417.527 268.14 419.723 269.156 422.532 269.156C425.115 269.156 427.245 268.414 428.924 266.929C430.635 265.412 431.492 263.491 431.492 261.166V253.417C431.492 251.093 430.635 249.188 428.924 247.702C427.245 246.185 425.115 245.426 422.532 245.426ZM343.624 245.426C337.586 245.426 334.373 248.994 333.986 256.129C333.986 256.42 334.131 256.565 334.421 256.565H351.857C352.147 256.565 352.292 256.42 352.292 256.129C352.066 248.994 349.177 245.426 343.624 245.426ZM526.668 167.725C527.161 167.683 527.879 167.726 528.579 168.155C529.328 168.614 529.717 169.306 529.88 169.915C530.149 170.913 529.879 171.892 529.717 172.406C529.514 173.049 529.209 173.739 528.872 174.413C527.535 177.084 525.099 180.672 523.313 183.115C522.498 184.228 520.934 184.471 519.82 183.656C518.705 182.841 518.463 181.277 519.278 180.162C520.218 178.877 521.291 177.329 522.262 175.821C518.848 178.205 514.489 181.523 510.685 184.816C507.776 187.334 505.328 189.721 503.889 191.576C503.526 192.045 503.267 192.429 503.089 192.731C503.266 192.802 503.47 192.882 503.705 192.968C504.569 193.286 505.678 193.648 506.99 194.047C509.612 194.845 512.921 195.757 516.464 196.725C523.471 198.639 531.461 200.79 536.276 202.612C541.294 204.51 546.185 206.602 549.844 209.152C553.478 211.684 556.432 215.051 556.432 219.588C556.432 221.086 555.837 222.461 555.069 223.629C554.292 224.812 553.225 225.958 552.002 227.051C549.557 229.238 546.215 231.456 542.49 233.561C535.021 237.781 525.619 241.764 517.724 244.304C505.168 248.343 490.809 251.244 485.171 252.196C483.81 252.425 482.52 251.508 482.291 250.147C482.061 248.785 482.978 247.496 484.339 247.266C489.834 246.338 503.941 243.485 516.193 239.544C523.803 237.096 532.888 233.243 540.03 229.208C543.609 227.186 546.604 225.171 548.668 223.324C549.701 222.401 550.433 221.58 550.89 220.884C551.357 220.174 551.432 219.756 551.432 219.588C551.432 217.497 550.12 215.438 546.986 213.254C543.877 211.088 539.497 209.176 534.506 207.288C529.973 205.574 522.285 203.499 515.146 201.548C511.616 200.584 508.235 199.653 505.533 198.83C504.182 198.419 502.97 198.026 501.977 197.66C501.043 197.317 500.111 196.929 499.451 196.5C498.686 196.003 498.12 195.26 497.882 194.338C497.663 193.487 497.775 192.681 497.954 192.05C498.299 190.831 499.088 189.608 499.937 188.513C501.688 186.254 504.443 183.606 507.413 181.035C513.365 175.883 520.737 170.573 524.183 168.62C524.89 168.22 525.766 167.801 526.668 167.725ZM397.482 233.802C397.805 233.802 397.966 233.964 397.966 234.286V238.161C397.966 238.484 397.805 238.646 397.482 238.646C397.159 238.646 396.998 238.484 396.998 238.161V234.286C396.998 233.964 397.159 233.802 397.482 233.802ZM222.108 167.185C222.818 166.001 224.355 165.617 225.539 166.327C226.722 167.038 227.106 168.573 226.396 169.757C225.91 170.568 225.886 171.213 226.075 171.845C226.296 172.586 226.87 173.474 227.887 174.471C229.934 176.477 233.091 178.274 235.839 179.649C239.402 181.43 244.15 184.154 248.535 187.141C252.846 190.078 257.087 193.456 259.376 196.577C262.012 200.171 265.101 205.575 264.347 211.812C263.574 218.208 258.902 224.553 248.141 230.292C237.188 236.134 227.949 236.228 220.833 233.994C213.814 231.791 209.08 227.394 206.87 224.533C205.504 222.766 203.93 219.893 202.583 217.133C201.221 214.339 199.983 211.431 199.321 209.488C198.876 208.181 199.575 206.761 200.881 206.316C202.188 205.871 203.608 206.569 204.053 207.876C204.624 209.552 205.767 212.255 207.078 214.942C208.405 217.663 209.795 220.141 210.827 221.476C212.543 223.697 216.473 227.385 222.332 229.224C228.095 231.033 235.951 231.128 245.789 225.881C255.818 220.532 258.886 215.327 259.383 211.212C259.9 206.939 257.791 202.871 255.344 199.534C253.599 197.155 249.986 194.179 245.719 191.273C241.526 188.416 236.971 185.805 233.603 184.121C230.807 182.724 227.036 180.637 224.387 178.041C223.057 176.738 221.841 175.144 221.283 173.274C220.692 171.295 220.901 169.197 222.108 167.185ZM324.336 29.4397C324.887 28.174 326.36 27.5935 327.625 28.1438C328.892 28.6943 329.472 30.1677 328.921 31.4338C327.145 35.5198 321.754 49.6418 318.741 62.1243C314.929 77.9161 307.845 110.069 303.476 129.727C302.249 135.248 300.182 142.981 297.832 151.456C302.245 151.785 305.803 152.126 307.795 152.468C315.309 153.756 321.494 155.153 323.687 155.701C325.026 156.036 325.841 157.394 325.506 158.734C325.171 160.073 323.814 160.887 322.474 160.552C320.407 160.035 314.345 158.664 306.951 157.397C305.001 157.063 301.237 156.715 296.462 156.372C294.989 161.631 293.45 167.058 291.965 172.328C289.752 180.183 287.656 187.704 286.064 193.868C284.449 200.119 283.416 204.742 283.232 206.935C282.588 214.622 285.736 218.809 286.489 220.207C287.143 221.423 286.688 222.938 285.473 223.593C284.257 224.248 282.741 223.793 282.086 222.577C281.467 221.427 277.461 215.927 278.25 206.517C278.476 203.817 279.638 198.755 281.223 192.618C282.831 186.395 284.94 178.825 287.153 170.973C288.55 166.014 289.985 160.948 291.366 156.031C288.759 155.867 285.977 155.706 283.112 155.552C272.47 154.981 260.905 154.501 253.505 154.236C252.126 154.186 251.048 153.027 251.097 151.648C251.147 150.268 252.305 149.19 253.685 149.24C261.105 149.506 272.702 149.985 283.38 150.559C286.614 150.732 289.784 150.918 292.74 151.108C295.19 142.295 297.343 134.277 298.595 128.642C302.955 109.021 310.055 76.7999 313.88 60.9504C316.977 48.1202 322.476 33.7189 324.336 29.4397ZM161.141 1.22095C162.239 0.384176 163.808 0.596318 164.645 1.69458C165.481 2.79281 165.27 4.36081 164.171 5.19751C160.831 7.74284 153.595 13.4415 150.709 16.3274C146.813 20.2235 122.41 42.7436 105.508 64.3401C88.3694 86.2398 65.8291 113.47 57.8657 125.649C55.9526 128.575 54.3681 131.726 53.3521 134.726C52.3254 137.757 51.9364 140.463 52.2202 142.569C52.4917 144.582 53.3451 145.941 54.8452 146.762C56.4778 147.656 59.2821 148.137 63.8647 147.355C73.8145 145.656 83.6026 145.658 91.8237 146.883C99.9349 148.092 106.911 150.552 110.881 154.105C116.061 158.739 118.205 165.656 118.394 172.571C118.583 179.505 116.827 186.783 113.795 192.594C110.934 198.079 107.654 204.168 104.943 209.532C103.591 212.206 102.403 214.658 101.499 216.718C100.571 218.832 100.021 220.358 99.8423 221.25C99.5714 222.604 98.2547 223.482 96.9009 223.211C95.5471 222.94 94.6693 221.624 94.9399 220.27C95.2345 218.797 95.9864 216.836 96.9204 214.708C97.8782 212.527 99.1133 209.982 100.481 207.277C103.208 201.882 106.549 195.674 109.363 190.281C112.006 185.215 113.562 178.777 113.396 172.706C113.23 166.616 111.353 161.236 107.547 157.83C104.675 155.26 98.8809 152.99 91.0864 151.828C83.4017 150.683 74.1469 150.672 64.7065 152.283C59.5942 153.156 55.4815 152.811 52.4438 151.148C49.274 149.412 47.703 146.484 47.2651 143.237C46.8397 140.081 47.4561 136.549 48.6167 133.122C49.788 129.664 51.5734 126.134 53.6802 122.912C61.7969 110.499 84.6586 82.868 101.571 61.2581C118.72 39.3452 143.501 16.4643 147.173 12.7922C150.341 9.62464 157.861 3.72038 161.141 1.22095ZM139.032 155.401C139.249 154.037 140.531 153.108 141.894 153.325C143.257 153.543 144.187 154.824 143.969 156.188C142.835 163.302 140.303 176.48 138.529 185.524C140.203 182.179 141.918 179.141 143.6 176.742C147.82 170.724 151.51 166.051 155.215 163C159.023 159.866 162.99 158.331 167.611 158.835C171.625 159.273 174.176 161.64 175.644 164.219C177.065 166.716 177.55 169.507 177.578 171.37C177.598 172.751 176.496 173.886 175.116 173.907C173.735 173.928 172.599 172.825 172.579 171.445C172.56 170.223 172.215 168.301 171.299 166.693C170.43 165.166 169.134 164.031 167.069 163.806C164.091 163.481 161.424 164.365 158.393 166.861C155.259 169.44 151.902 173.612 147.694 179.614C144.494 184.178 140.977 191.612 137.848 199.213C134.741 206.763 132.096 214.279 130.617 218.876C130.234 220.065 129.046 220.766 127.85 220.577C127.796 220.728 127.742 220.875 127.691 221.019C127.229 222.32 125.8 223.001 124.499 222.539C123.198 222.078 122.517 220.649 122.978 219.348C125.376 212.584 130.392 200.805 132.141 192.058C133.475 185.386 137.521 164.876 139.032 155.401ZM465.51 158.504C467.016 158.404 468.597 158.562 469.98 159.281C472.471 160.577 473.641 162.933 474.061 165.385C474.473 167.788 474.228 170.552 473.691 173.3C472.61 178.824 470.176 185.081 468.048 189.976C465.992 194.705 464.364 199.709 463.506 204.096C462.621 208.627 462.662 212.002 463.414 213.806C463.944 215.08 463.341 216.544 462.067 217.075C460.792 217.606 459.328 217.003 458.797 215.729C457.435 212.46 457.688 207.802 458.599 203.138C459.539 198.33 461.292 192.975 463.463 187.982C465.563 183.153 467.812 177.307 468.784 172.341C469.272 169.845 469.396 167.766 469.132 166.229C468.877 164.741 468.328 164.058 467.672 163.717C467.396 163.574 466.834 163.427 465.842 163.493C464.87 163.558 463.659 163.815 462.244 164.284C459.413 165.223 456.059 166.908 452.674 169.056C449.301 171.197 445.982 173.744 443.218 176.348C440.425 178.98 438.331 181.548 437.25 183.708C434.817 188.576 433.251 193.338 431.813 198.492C430.396 203.571 429.046 209.263 427.138 215.499C426.667 217.038 426.29 218.149 425.997 218.826C425.921 219.002 425.829 219.198 425.722 219.385C425.659 219.496 425.431 219.904 425.012 220.244C424.799 220.418 424.253 220.808 423.441 220.823C422.476 220.842 421.781 220.333 421.411 219.872C421.097 219.482 420.974 219.094 420.927 218.925C420.871 218.723 420.846 218.546 420.833 218.429C420.79 218.02 420.822 217.571 420.851 217.254C420.885 216.881 420.941 216.443 421.011 215.964C421.152 215.003 421.365 213.786 421.628 212.419C422.676 206.975 424.591 198.717 426.168 193.722C430.251 180.793 436.794 168.591 440.668 160.427C441.261 159.18 442.751 158.649 443.999 159.24C445.245 159.832 445.777 161.323 445.185 162.571C443.857 165.37 442.281 168.524 440.623 171.942C443.453 169.377 446.706 166.922 449.995 164.835C453.599 162.548 457.332 160.646 460.67 159.539C462.339 158.986 463.984 158.606 465.51 158.504ZM343.943 169.076C345.312 169.254 346.279 170.508 346.101 171.877C345.558 176.059 344.036 185.994 342.308 191.756C340.23 198.685 338.836 203.647 337.993 207.301C337.28 210.387 336.433 213.628 336.259 214.352C335.937 215.694 334.588 216.521 333.246 216.198C331.903 215.876 331.076 214.527 331.398 213.185C331.628 212.225 332.397 209.312 333.121 206.176C334.003 202.352 335.439 197.257 337.519 190.321C339.118 184.99 340.599 175.419 341.142 171.234C341.32 169.865 342.574 168.899 343.943 169.076ZM190.4 172.662C191.772 172.815 192.76 174.051 192.608 175.423C192.091 180.079 190.716 190.842 189.404 195.715C188.115 200.5 184.927 209.379 183.514 213.17C183.032 214.464 181.592 215.122 180.298 214.64C179.005 214.158 178.347 212.719 178.829 211.425C180.251 207.608 183.357 198.941 184.576 194.415C185.77 189.979 187.112 179.615 187.639 174.87C187.792 173.498 189.028 172.51 190.4 172.662ZM387.876 154.835C389.469 154.694 390.756 155.425 391.618 156.154C393.28 157.559 394.43 159.833 395.005 161.317C395.504 162.604 394.865 164.052 393.578 164.551C392.291 165.05 390.843 164.411 390.343 163.124C390.127 162.566 389.817 161.912 389.45 161.309C389.071 160.687 388.699 160.233 388.39 159.972C388.36 159.946 388.332 159.925 388.307 159.906C388.236 159.976 388.143 160.08 388.029 160.232C384.498 164.939 373.542 180.008 369.685 188.203C368.676 190.347 367.602 192.598 366.711 194.815C365.814 197.049 365.172 199.086 364.962 200.778C364.749 202.504 365.037 203.43 365.437 203.921C365.806 204.374 366.749 205.036 369.287 205.073C374.579 205.148 380.757 203.275 386.38 200.944C391.964 198.629 396.687 196.003 399.167 194.72C401.377 193.577 405.025 191.43 408.341 190.178C410.017 189.545 411.866 189.034 413.624 189.044C415.459 189.055 417.413 189.655 418.762 191.453C421.476 195.072 423.055 200.384 423.525 202.559C423.816 203.908 422.959 205.239 421.61 205.531C420.261 205.822 418.93 204.964 418.638 203.615C418.222 201.693 416.833 197.214 414.762 194.453C414.616 194.259 414.369 194.048 413.593 194.043C412.74 194.038 411.566 194.305 410.107 194.856C407.153 195.971 404.072 197.812 401.464 199.16C399.127 200.369 394.131 203.143 388.294 205.563C382.498 207.966 375.551 210.162 369.215 210.072C365.94 210.025 363.247 209.15 361.56 207.08C359.905 205.049 359.715 202.465 360 200.163C360.289 197.827 361.121 195.316 362.072 192.95C363.029 190.568 364.177 188.167 365.162 186.074C369.279 177.326 380.581 161.829 384.029 157.232C384.974 155.971 386.249 154.979 387.876 154.835ZM512.343 117.696C513.185 116.601 514.755 116.397 515.849 117.239C516.943 118.08 517.148 119.65 516.306 120.744C512.214 126.064 502.245 139.514 498.242 148.966C497.212 151.396 495.981 155.26 495.004 159.136C494.014 163.065 493.366 166.7 493.366 168.748C493.365 170.129 492.246 171.248 490.866 171.248C489.485 171.248 488.366 170.129 488.366 168.748C488.366 166.031 489.158 161.876 490.156 157.914C491.167 153.899 492.473 149.768 493.638 147.016C497.933 136.875 508.319 122.927 512.343 117.696ZM338.417 126.323C338.948 126.046 339.572 125.989 340.17 126.153C340.769 126.316 341.286 126.692 341.674 127.162C341.805 127.33 341.929 127.5 342.049 127.67C343.258 129.387 344.098 131.098 344.775 132.896C345.261 134.202 345.568 135.558 345.698 136.997C345.713 137.184 345.731 137.385 345.741 137.58C345.762 138.179 345.653 138.795 345.35 139.322C345.048 139.848 344.583 140.239 344.033 140.417C343.482 140.596 342.875 140.552 342.322 140.303C341.768 140.054 341.318 139.619 340.984 139.122C340.887 138.988 340.785 138.832 340.689 138.688C339.946 137.55 339.332 136.343 338.869 135.097C338.229 133.392 337.731 131.595 337.344 129.929C337.306 129.77 337.27 129.615 337.239 129.473C337.076 128.885 337.065 128.246 337.274 127.661C337.482 127.077 337.887 126.599 338.417 126.323ZM184.461 126.252C185.261 125.127 186.822 124.863 187.948 125.662C189.485 126.755 191.679 128.635 193.055 130.733C193.737 131.772 194.388 133.12 194.42 134.615C194.457 136.294 193.702 137.808 192.235 138.889C190.911 139.864 189.45 140.259 187.991 140.13C186.596 140.006 185.383 139.422 184.417 138.753C182.52 137.441 181.072 135.46 180.292 134.073C179.616 132.87 180.043 131.346 181.246 130.669C182.449 129.992 183.973 130.419 184.65 131.622C185.213 132.623 186.205 133.909 187.262 134.641C187.772 134.994 188.165 135.126 188.432 135.15C188.635 135.168 188.892 135.141 189.269 134.864C189.356 134.799 189.401 134.752 189.421 134.728C189.421 134.726 189.421 134.724 189.421 134.722C189.418 134.575 189.325 134.163 188.874 133.475C187.982 132.115 186.348 130.66 185.051 129.739C183.926 128.939 183.662 127.378 184.461 126.252Z" fill="white"/>
</svg>
