<svg width="557" height="281" viewBox="0 0 557 281" fill="none" xmlns="http://www.w3.org/2000/svg">
<path d="M422.531 244.14C424.533 244.14 426.31 244.576 427.86 245.447C429.409 246.319 430.571 247.498 431.346 248.984C431.346 249.048 431.379 249.08 431.444 249.08C431.476 249.08 431.491 249.064 431.491 249.031V245.109C431.492 244.786 431.653 244.624 431.976 244.624C432.299 244.624 432.46 244.786 432.46 245.109V268.84C432.46 273.07 431.605 276.137 429.894 278.042C428.215 279.979 425.518 280.947 421.805 280.947C419.448 280.947 417.349 280.609 415.509 279.931C415.186 279.834 415.025 279.592 415.025 279.204C415.025 278.882 415.186 278.784 415.509 278.913C417.446 279.624 419.545 279.979 421.805 279.979C425.227 279.979 427.698 279.107 429.215 277.363C430.733 275.62 431.491 272.779 431.491 268.84V264.917C431.491 264.885 431.476 264.868 431.444 264.868C431.379 264.868 431.346 264.901 431.346 264.965C430.571 266.45 429.409 267.629 427.86 268.501C426.31 269.373 424.533 269.809 422.531 269.809C419.432 269.809 416.995 268.695 415.219 266.467C413.476 264.239 412.604 261.156 412.604 257.217C412.604 254.634 412.894 252.438 413.475 250.63C414.056 248.822 414.864 247.482 415.897 246.611C416.93 245.706 417.98 245.076 419.045 244.721C420.11 244.334 421.273 244.14 422.531 244.14ZM81.3518 2.14569C81.7649 0.828346 83.1682 0.0951204 84.4856 0.507996C85.803 0.921049 86.5363 2.32433 86.1233 3.64178C67.0453 64.502 27.2924 191.483 20.8645 212.657C14.448 233.794 7.80567 258.914 5.28833 268.826C4.94832 270.164 3.58831 270.974 2.25024 270.634C0.912297 270.294 0.103124 268.934 0.442627 267.596C2.96992 257.645 9.63301 232.443 16.0803 211.205C22.5166 190.003 62.2796 62.9876 81.3518 2.14569ZM305.764 233.97C317.064 233.97 322.715 239.862 322.715 251.647C322.715 264.077 317.064 270.293 305.764 270.293C304.214 270.293 302.713 270.196 301.26 270.002C300.453 269.873 299.461 269.809 298.945 269.195C298.428 268.55 298.499 267.516 298.499 266.709V237.554C298.499 236.747 298.431 235.742 298.915 235.128C299.432 234.515 300.389 234.438 301.163 234.309C302.907 234.083 304.44 233.97 305.764 233.97ZM343.623 244.14C349.467 244.14 352.664 247.595 353.213 254.504C353.278 255.247 353.035 255.893 352.487 256.442C351.97 256.958 351.324 257.217 350.549 257.217H334.373C334.083 257.217 333.938 257.346 333.938 257.604C334.035 265.417 337.505 269.324 344.35 269.324C346.836 269.324 349.193 268.872 351.421 267.968C351.55 267.936 351.647 267.952 351.711 268.017C351.808 268.081 351.857 268.178 351.857 268.307C351.857 268.694 351.712 268.936 351.421 269.033C349.226 269.873 346.868 270.293 344.35 270.293C336.763 270.293 332.969 265.934 332.969 257.217C332.969 255.151 333.178 253.325 333.598 251.743C334.05 250.129 334.615 248.854 335.293 247.918C336.003 246.982 336.843 246.223 337.812 245.642C338.78 245.061 339.716 244.672 340.62 244.479C341.557 244.253 342.558 244.14 343.623 244.14ZM372.907 244.14C375.49 244.14 377.976 244.56 380.365 245.4C380.721 245.529 380.899 245.771 380.899 246.126C380.899 246.255 380.833 246.352 380.704 246.416C380.608 246.481 380.495 246.497 380.365 246.465C377.783 245.561 375.297 245.109 372.907 245.109C370.648 245.109 368.872 245.593 367.58 246.562C366.289 247.498 365.643 248.789 365.643 250.436C365.643 251.889 366.159 253.083 367.193 254.02C368.226 254.924 370.163 255.667 373.004 256.248C375.974 256.829 378.154 257.717 379.542 258.911C380.931 260.074 381.625 261.608 381.625 263.513C381.625 265.611 380.834 267.274 379.252 268.501C377.702 269.696 375.587 270.293 372.907 270.293C370.26 270.293 367.692 269.728 365.206 268.598C364.851 268.436 364.674 268.177 364.674 267.822C364.674 267.694 364.723 267.597 364.82 267.532C364.916 267.468 365.029 267.451 365.158 267.484C367.709 268.711 370.292 269.324 372.907 269.324C375.329 269.324 377.217 268.808 378.573 267.775C379.962 266.741 380.656 265.321 380.656 263.513C380.656 262.06 380.123 260.8 379.058 259.735C378.025 258.669 375.942 257.83 372.811 257.217C369.905 256.636 367.822 255.828 366.563 254.795C365.304 253.73 364.674 252.276 364.674 250.436C364.674 248.531 365.417 247.014 366.902 245.884C368.419 244.722 370.421 244.14 372.907 244.14ZM397.482 244.624C397.804 244.624 397.966 244.786 397.966 245.109V269.324C397.966 269.647 397.805 269.809 397.482 269.809C397.159 269.809 396.997 269.647 396.997 269.324V245.109C396.997 244.786 397.159 244.624 397.482 244.624ZM456.288 244.14C459.194 244.14 461.293 244.947 462.584 246.562C463.876 248.176 464.521 250.921 464.521 254.795V269.324C464.521 269.647 464.36 269.809 464.037 269.809C463.715 269.809 463.553 269.647 463.553 269.324V254.795C463.553 250.985 462.971 248.418 461.809 247.094C460.647 245.77 458.806 245.109 456.288 245.109C454.157 245.109 452.091 245.965 450.089 247.676C448.087 249.387 447.086 251.114 447.086 252.858V269.324C447.086 269.647 446.925 269.809 446.602 269.809C446.279 269.809 446.117 269.647 446.117 269.324V245.109C446.117 244.786 446.279 244.624 446.602 244.624C446.925 244.624 447.086 244.786 447.086 245.109V249.661C447.086 249.693 447.102 249.71 447.134 249.71C447.199 249.71 447.232 249.694 447.232 249.661C448.168 248.144 449.491 246.852 451.202 245.786C452.914 244.689 454.609 244.14 456.288 244.14ZM305.764 234.939C303.665 234.939 301.696 235.132 299.856 235.52C299.597 235.584 299.468 235.746 299.468 236.004V268.259C299.468 268.517 299.597 268.679 299.856 268.743C301.696 269.131 303.665 269.324 305.764 269.324C311.22 269.324 315.24 267.887 317.823 265.014C320.439 262.14 321.746 257.684 321.746 251.647C321.746 245.964 320.439 241.767 317.823 239.055C315.24 236.31 311.22 234.939 305.764 234.939ZM422.531 245.109C416.559 245.109 413.573 249.145 413.573 257.217C413.573 260.865 414.364 263.723 415.946 265.789C417.528 267.823 419.723 268.84 422.531 268.84C425.114 268.84 427.246 268.098 428.925 266.612C430.636 265.095 431.491 263.174 431.491 260.849V253.1C431.491 250.775 430.636 248.87 428.925 247.385C427.246 245.867 425.114 245.109 422.531 245.109ZM343.623 245.109C337.586 245.109 334.373 248.676 333.986 255.812C333.986 256.102 334.132 256.248 334.422 256.248H351.857C352.147 256.248 352.292 256.102 352.292 255.812C352.066 248.676 349.177 245.109 343.623 245.109ZM526.669 167.407C527.162 167.366 527.88 167.408 528.579 167.837C529.328 168.296 529.717 168.989 529.881 169.598C530.149 170.595 529.88 171.575 529.718 172.088C529.515 172.731 529.21 173.422 528.872 174.096C527.536 176.767 525.1 180.355 523.314 182.797C522.499 183.911 520.935 184.154 519.821 183.339C518.706 182.524 518.464 180.959 519.279 179.845C520.219 178.559 521.292 177.011 522.263 175.503C518.849 177.888 514.49 181.205 510.686 184.498C507.776 187.016 505.328 189.403 503.89 191.259C503.527 191.727 503.268 192.112 503.09 192.413C503.267 192.484 503.471 192.564 503.705 192.651C504.569 192.969 505.679 193.33 506.99 193.73C509.612 194.528 512.922 195.439 516.465 196.407C523.472 198.322 531.462 200.473 536.277 202.294C541.294 204.192 546.186 206.285 549.845 208.834C553.479 211.366 556.433 214.734 556.433 219.271C556.433 220.768 555.837 222.143 555.07 223.312C554.293 224.494 553.225 225.641 552.003 226.734C549.558 228.92 546.216 231.138 542.49 233.243C535.021 237.463 525.619 241.447 517.725 243.987C505.169 248.025 490.81 250.926 485.172 251.878C483.811 252.108 482.521 251.191 482.291 249.829C482.062 248.468 482.979 247.178 484.34 246.948C489.835 246.021 503.942 243.168 516.194 239.227C523.804 236.779 532.889 232.926 540.031 228.891C543.61 226.868 546.605 224.853 548.669 223.007C549.702 222.084 550.433 221.263 550.891 220.567C551.357 219.857 551.433 219.439 551.433 219.271C551.433 217.18 550.121 215.12 546.987 212.937C543.878 210.771 539.497 208.858 534.507 206.971C529.974 205.256 522.285 203.181 515.147 201.231C511.617 200.266 508.236 199.336 505.533 198.513C504.183 198.102 502.971 197.708 501.978 197.343C501.044 196.999 500.111 196.612 499.451 196.183C498.687 195.686 498.12 194.942 497.883 194.021C497.664 193.17 497.775 192.364 497.954 191.733C498.3 190.514 499.089 189.291 499.938 188.195C501.689 185.936 504.444 183.288 507.413 180.718C513.365 175.566 520.738 170.256 524.184 168.303C524.891 167.902 525.767 167.484 526.669 167.407ZM397.482 233.486C397.805 233.486 397.966 233.647 397.966 233.97V237.844C397.966 238.167 397.805 238.328 397.482 238.328C397.159 238.328 396.997 238.167 396.997 237.844V233.97C396.997 233.647 397.159 233.486 397.482 233.486ZM222.109 166.867C222.819 165.684 224.355 165.3 225.539 166.01C226.723 166.72 227.107 168.256 226.397 169.44C225.91 170.25 225.887 170.896 226.075 171.528C226.296 172.268 226.87 173.156 227.888 174.154C229.935 176.16 233.092 177.957 235.84 179.331C239.402 181.112 244.151 183.837 248.535 186.823C252.847 189.761 257.088 193.139 259.377 196.26C262.012 199.853 265.102 205.257 264.348 211.494C263.575 217.891 258.902 224.236 248.142 229.975C237.189 235.816 227.949 235.91 220.834 233.677C213.814 231.473 209.081 227.077 206.87 224.216C205.505 222.449 203.93 219.575 202.584 216.816C201.221 214.022 199.983 211.114 199.322 209.17C198.877 207.863 199.575 206.443 200.882 205.998C202.189 205.553 203.609 206.252 204.054 207.559C204.624 209.234 205.768 211.937 207.078 214.624C208.406 217.345 209.796 219.823 210.827 221.158C212.544 223.38 216.474 227.067 222.332 228.906C228.096 230.716 235.952 230.81 245.789 225.564C255.819 220.214 258.887 215.009 259.384 210.895C259.9 206.621 257.792 202.554 255.345 199.217C253.6 196.837 249.986 193.862 245.72 190.955C241.526 188.098 236.972 185.488 233.604 183.804C230.808 182.406 227.036 180.319 224.388 177.724C223.058 176.42 221.842 174.827 221.283 172.956C220.693 170.977 220.901 168.88 222.109 166.867ZM139.03 160.085C139.247 158.722 140.529 157.793 141.892 158.01C143.255 158.227 144.184 159.509 143.967 160.872C142.833 167.987 140.3 181.165 138.527 190.208C140.201 186.863 141.916 183.826 143.598 181.427C147.818 175.408 151.508 170.735 155.213 167.685C159.021 164.55 162.987 163.016 167.609 163.52C171.623 163.958 174.173 166.324 175.642 168.904C177.063 171.4 177.548 174.191 177.575 176.055C177.596 177.435 176.494 178.571 175.114 178.592C173.733 178.613 172.597 177.51 172.576 176.129C172.558 174.907 172.213 172.986 171.297 171.377C170.428 169.851 169.132 168.716 167.067 168.49C164.089 168.166 161.422 169.05 158.391 171.545C155.257 174.125 151.9 178.296 147.692 184.298C144.492 188.862 140.974 196.296 137.846 203.898C134.739 211.447 132.094 218.964 130.615 223.561C130.232 224.749 129.044 225.451 127.848 225.262C127.794 225.412 127.74 225.559 127.689 225.703C127.227 227.005 125.798 227.685 124.496 227.224C123.195 226.762 122.514 225.334 122.976 224.032C125.374 217.269 130.389 205.49 132.139 196.742C133.473 190.071 137.519 169.56 139.03 160.085ZM324.336 29.1232C324.887 27.8574 326.359 27.2771 327.625 27.8273C328.891 28.3779 329.472 29.8512 328.921 31.1174C327.144 35.2039 321.753 49.3256 318.74 61.8078C314.929 77.5999 307.844 109.752 303.476 129.41C302.249 134.931 300.182 142.665 297.831 151.14C302.245 151.468 305.802 151.81 307.795 152.152C315.309 153.44 321.494 154.837 323.687 155.385C325.026 155.72 325.841 157.078 325.506 158.417C325.171 159.756 323.813 160.57 322.474 160.236C320.406 159.719 314.345 158.348 306.95 157.08C305.001 156.746 301.237 156.399 296.462 156.056C294.988 161.315 293.45 166.742 291.965 172.012C289.752 179.866 287.656 187.388 286.064 193.552C284.449 199.802 283.416 204.425 283.232 206.618C282.587 214.306 285.736 218.493 286.489 219.891C287.143 221.106 286.688 222.622 285.473 223.277C284.257 223.931 282.741 223.476 282.086 222.261C281.467 221.111 277.46 215.611 278.249 206.2C278.476 203.501 279.637 198.439 281.223 192.302C282.831 186.079 284.94 178.509 287.153 170.656C288.55 165.698 289.985 160.631 291.365 155.713C288.759 155.55 285.976 155.389 283.112 155.236C272.47 154.664 260.905 154.185 253.505 153.919C252.126 153.869 251.048 152.711 251.097 151.331C251.147 149.952 252.305 148.874 253.685 148.923C261.105 149.19 272.702 149.669 283.38 150.242C286.614 150.416 289.784 150.602 292.74 150.791C295.19 141.979 297.343 133.96 298.595 128.325C302.955 108.705 310.054 76.4836 313.88 60.634C316.977 47.804 322.475 33.403 324.336 29.1232ZM161.139 0.905457C162.237 0.0686851 163.806 0.280828 164.643 1.37909C165.479 2.47732 165.267 4.04532 164.169 4.88202C160.828 7.42735 153.593 13.126 150.707 16.0119C146.811 19.908 122.408 42.4281 105.506 64.0246C88.3672 85.9244 65.8269 113.154 57.8635 125.333C55.9504 128.259 54.3659 131.41 53.3499 134.41C52.3232 137.442 51.9342 140.148 52.218 142.253C52.4895 144.267 53.3429 145.625 54.843 146.446C56.4756 147.34 59.2799 147.822 63.8625 147.039C73.8123 145.341 83.6004 145.342 91.8215 146.568C99.9327 147.777 106.908 150.236 110.879 153.789C116.059 158.424 118.203 165.34 118.392 172.255C118.581 179.19 116.825 186.468 113.793 192.279C110.931 197.764 107.652 203.853 104.941 209.217C103.589 211.891 102.401 214.343 101.496 216.403C100.568 218.516 100.018 220.043 99.8401 220.935C99.5692 222.289 98.2525 223.166 96.8987 222.896C95.545 222.625 94.6671 221.308 94.9377 219.954C95.2323 218.482 95.9842 216.52 96.9182 214.393C97.876 212.211 99.1111 209.667 100.479 206.961C103.206 201.566 106.547 195.358 109.361 189.966C112.004 184.899 113.559 178.462 113.394 172.391C113.228 166.3 111.351 160.92 107.545 157.515C104.672 154.945 98.8787 152.675 91.0842 151.513C83.3995 150.367 74.1447 150.356 64.7043 151.968C59.592 152.841 55.4793 152.495 52.4417 150.832C49.2718 149.097 47.7008 146.169 47.2629 142.921C46.8375 139.765 47.4539 136.234 48.6145 132.807C49.7858 129.348 51.5713 125.819 53.678 122.597C61.7947 110.183 84.6564 82.5525 101.569 60.9426C118.718 39.0297 143.499 16.1488 147.171 12.4767C150.339 9.30915 157.858 3.40489 161.139 0.905457ZM465.51 158.187C467.016 158.086 468.597 158.245 469.98 158.964C472.471 160.26 473.641 162.616 474.061 165.068C474.472 167.47 474.228 170.234 473.691 172.983C472.61 178.506 470.176 184.764 468.048 189.658C465.992 194.388 464.363 199.392 463.506 203.779C462.621 208.309 462.662 211.684 463.413 213.488C463.944 214.763 463.341 216.227 462.067 216.758C460.792 217.289 459.328 216.686 458.797 215.411C457.435 212.142 457.688 207.484 458.599 202.82C459.538 198.012 461.292 192.658 463.463 187.664C465.563 182.836 467.812 176.99 468.783 172.024C469.272 169.527 469.395 167.448 469.132 165.911C468.877 164.424 468.328 163.741 467.672 163.4C467.396 163.256 466.834 163.11 465.842 163.176C464.87 163.241 463.659 163.498 462.243 163.967C459.413 164.905 456.058 166.591 452.674 168.738C449.301 170.879 445.982 173.426 443.218 176.03C440.425 178.663 438.33 181.231 437.25 183.391C434.816 188.258 433.251 193.021 431.813 198.175C430.396 203.253 429.046 208.946 427.138 215.182C426.667 216.72 426.29 217.832 425.996 218.509C425.92 218.684 425.828 218.88 425.722 219.068C425.659 219.178 425.431 219.587 425.012 219.927C424.798 220.1 424.253 220.49 423.441 220.506C422.475 220.525 421.781 220.016 421.41 219.555C421.097 219.164 420.974 218.776 420.927 218.608C420.871 218.405 420.846 218.228 420.833 218.112C420.79 217.703 420.822 217.254 420.851 216.937C420.885 216.564 420.941 216.125 421.011 215.647C421.152 214.686 421.365 213.469 421.628 212.102C422.676 206.657 424.591 198.4 426.168 193.404C430.251 180.476 436.794 168.273 440.668 160.11C441.26 158.863 442.751 158.331 443.998 158.923C445.245 159.515 445.776 161.006 445.185 162.253C443.856 165.052 442.28 168.206 440.622 171.624C443.452 169.06 446.705 166.605 449.994 164.518C453.599 162.23 457.332 160.329 460.67 159.222C462.339 158.669 463.983 158.288 465.51 158.187ZM190.4 177.345C191.772 177.498 192.76 178.734 192.608 180.106C192.09 184.761 190.716 195.524 189.404 200.398C188.115 205.183 184.927 214.061 183.514 217.853C183.032 219.147 181.592 219.804 180.298 219.322C179.005 218.84 178.347 217.401 178.828 216.108C180.251 212.29 183.357 203.623 184.575 199.098C185.77 194.661 187.112 184.297 187.639 179.553C187.792 178.181 189.028 177.193 190.4 177.345ZM343.944 168.76C345.312 168.938 346.278 170.191 346.101 171.56C345.558 175.742 344.037 185.678 342.309 191.44C340.231 198.368 338.837 203.33 337.993 206.984C337.281 210.07 336.434 213.311 336.26 214.034C335.938 215.377 334.588 216.204 333.245 215.882C331.903 215.56 331.075 214.21 331.398 212.867C331.628 211.907 332.397 208.995 333.121 205.86C334.004 202.036 335.44 196.94 337.52 190.003C339.118 184.672 340.6 175.102 341.143 170.917C341.321 169.548 342.574 168.582 343.944 168.76ZM387.877 154.518C389.469 154.377 390.756 155.107 391.618 155.836C393.281 157.241 394.431 159.516 395.006 160.999C395.505 162.286 394.865 163.734 393.578 164.234C392.291 164.732 390.843 164.094 390.344 162.807C390.128 162.249 389.818 161.594 389.45 160.991C389.072 160.37 388.699 159.915 388.391 159.654C388.361 159.629 388.332 159.608 388.308 159.589C388.237 159.658 388.144 159.762 388.03 159.914C384.499 164.621 373.542 179.691 369.686 187.886C368.677 190.029 367.603 192.28 366.712 194.497C365.815 196.731 365.172 198.768 364.963 200.46C364.75 202.187 365.037 203.112 365.438 203.604C365.807 204.057 366.749 204.719 369.287 204.755C374.58 204.831 380.757 202.957 386.381 200.626C391.965 198.311 396.688 195.686 399.168 194.403C401.378 193.26 405.025 191.113 408.342 189.861C410.018 189.228 411.866 188.716 413.624 188.727C415.46 188.738 417.414 189.337 418.763 191.136C421.477 194.754 423.055 200.067 423.526 202.241C423.817 203.591 422.96 204.921 421.611 205.213C420.261 205.505 418.931 204.647 418.639 203.298C418.223 201.375 416.833 196.897 414.763 194.136C414.617 193.941 414.369 193.73 413.594 193.726C412.741 193.721 411.567 193.987 410.108 194.538C407.153 195.654 404.073 197.494 401.465 198.843C399.128 200.052 394.132 202.826 388.295 205.245C382.498 207.648 375.552 209.844 369.216 209.754C365.94 209.707 363.248 208.833 361.561 206.763C359.905 204.731 359.716 202.148 360 199.846C360.289 197.51 361.122 194.998 362.073 192.633C363.03 190.251 364.178 187.85 365.162 185.757C369.28 177.008 380.582 161.511 384.03 156.914C384.975 155.653 386.249 154.662 387.877 154.518ZM512.343 117.378C513.185 116.284 514.755 116.08 515.849 116.921C516.943 117.763 517.148 119.333 516.306 120.427C512.214 125.746 502.245 139.197 498.241 148.649C497.212 151.079 495.981 154.942 495.004 158.819C494.014 162.748 493.366 166.382 493.365 168.431C493.365 169.811 492.246 170.931 490.865 170.931C489.485 170.931 488.366 169.811 488.365 168.431C488.366 165.713 489.157 161.559 490.156 157.597C491.167 153.582 492.472 149.45 493.638 146.698C497.933 136.558 508.319 122.61 512.343 117.378ZM184.462 130.936C185.262 129.81 186.823 129.546 187.948 130.346C189.486 131.438 191.68 133.318 193.056 135.416C193.737 136.455 194.389 137.804 194.421 139.298C194.457 140.977 193.703 142.491 192.236 143.572C190.912 144.548 189.45 144.943 187.991 144.814C186.597 144.69 185.383 144.105 184.417 143.437C182.521 142.124 181.073 140.144 180.293 138.757C179.616 137.554 180.043 136.03 181.246 135.353C182.45 134.676 183.974 135.102 184.651 136.306C185.213 137.306 186.206 138.593 187.263 139.324C187.773 139.678 188.166 139.809 188.433 139.833C188.636 139.851 188.893 139.825 189.27 139.547C189.357 139.483 189.402 139.436 189.422 139.411C189.422 139.41 189.422 139.407 189.422 139.405C189.419 139.259 189.326 138.847 188.874 138.158C187.982 136.799 186.349 135.344 185.052 134.422C183.927 133.622 183.663 132.061 184.462 130.936ZM338.418 126.006C338.949 125.73 339.573 125.672 340.171 125.836C340.769 126 341.286 126.376 341.675 126.846C341.805 127.014 341.93 127.184 342.05 127.354C343.259 129.071 344.099 130.782 344.776 132.579C345.262 133.885 345.569 135.241 345.698 136.681C345.714 136.867 345.731 137.069 345.741 137.264C345.763 137.862 345.653 138.479 345.351 139.005C345.049 139.531 344.584 139.922 344.033 140.101C343.483 140.279 342.876 140.235 342.323 139.987C341.769 139.738 341.319 139.303 340.985 138.806C340.888 138.671 340.786 138.516 340.69 138.371C339.946 137.234 339.333 136.026 338.869 134.78C338.23 133.075 337.732 131.279 337.345 129.612C337.307 129.453 337.271 129.298 337.24 129.156C337.077 128.568 337.066 127.929 337.275 127.345C337.483 126.761 337.888 126.282 338.418 126.006Z" fill="white"/>
</svg>
