<svg width="225" height="102" viewBox="0 0 225 102" fill="none" xmlns="http://www.w3.org/2000/svg">
<path d="M175.239 88.1852C175.959 88.1852 176.596 88.3427 177.153 88.6559C177.71 88.9691 178.128 89.3927 178.406 89.9264C178.406 89.9493 178.418 89.9606 178.441 89.9606C178.453 89.9606 178.459 89.9546 178.459 89.943V88.5338C178.459 88.4178 178.517 88.36 178.633 88.36C178.749 88.36 178.807 88.4178 178.807 88.5338V97.0612C178.807 98.5809 178.5 99.6833 177.885 100.368C177.281 101.064 176.313 101.412 174.979 101.412C174.132 101.412 173.377 101.29 172.716 101.047C172.6 101.012 172.542 100.924 172.542 100.785C172.542 100.669 172.6 100.634 172.716 100.68C173.412 100.936 174.166 101.063 174.979 101.063C176.208 101.063 177.095 100.75 177.641 100.124C178.186 99.4972 178.459 98.4765 178.459 97.0612V95.651C178.459 95.6396 178.453 95.6344 178.441 95.6344C178.418 95.6344 178.406 95.6455 178.406 95.6686C178.128 96.2022 177.71 96.6259 177.153 96.9391C176.597 97.2522 175.958 97.4088 175.239 97.4088C174.126 97.4088 173.249 97.0091 172.611 96.2086C171.985 95.4081 171.672 94.2998 171.672 92.8844C171.672 91.9563 171.777 91.1669 171.985 90.5172C172.194 89.8677 172.484 89.3861 172.855 89.0729C173.227 88.7482 173.604 88.5218 173.986 88.3942C174.369 88.255 174.787 88.1852 175.239 88.1852ZM29.7227 1.2184C29.8711 0.74505 30.3753 0.481189 30.8486 0.629533C31.3219 0.777926 31.5857 1.28219 31.4375 1.75551C24.5825 23.6237 10.2984 69.2504 7.98829 76.86C5.68266 84.455 3.29518 93.4819 2.39063 97.0436C2.26837 97.5241 1.7804 97.8148 1.29981 97.693C0.818986 97.5709 0.528339 97.082 0.6504 96.6012C1.55854 93.0254 3.9519 83.9699 6.26856 76.3385C8.58129 68.7201 22.8695 23.0805 29.7227 1.2184ZM133.281 84.5309C137.342 84.5309 139.373 86.6488 139.373 90.8834C139.373 95.3499 137.342 97.5827 133.281 97.5827C132.725 97.5826 132.185 97.5487 131.663 97.4791C131.373 97.4328 131.017 97.4094 130.831 97.1891C130.645 96.9571 130.671 96.5856 130.671 96.2955V85.819C130.671 85.5291 130.647 85.1684 130.82 84.9479C131.006 84.7275 131.35 84.6994 131.629 84.653C132.255 84.5718 132.806 84.5309 133.281 84.5309ZM146.886 88.1852C148.986 88.1853 150.134 89.4271 150.331 91.9098C150.354 92.1766 150.268 92.4089 150.07 92.6061C149.885 92.7917 149.652 92.8844 149.374 92.8844H143.562C143.457 92.8845 143.405 92.9306 143.405 93.0231C143.44 95.8307 144.687 97.235 147.146 97.235C148.04 97.235 148.887 97.0725 149.688 96.7477C149.734 96.7361 149.769 96.7421 149.792 96.7653C149.827 96.7885 149.844 96.8235 149.844 96.8698C149.844 97.0088 149.792 97.0957 149.688 97.1305C148.899 97.4322 148.051 97.5827 147.146 97.5827C144.42 97.5826 143.057 96.0168 143.057 92.8844C143.057 92.1419 143.132 91.4861 143.283 90.9176C143.446 90.3376 143.649 89.879 143.893 89.5426C144.148 89.2065 144.449 88.934 144.797 88.7252C145.145 88.5164 145.482 88.3769 145.807 88.3073C146.143 88.2261 146.503 88.1852 146.886 88.1852ZM157.408 88.1852C158.336 88.1852 159.229 88.3367 160.088 88.6383C160.215 88.6847 160.279 88.7715 160.279 88.8991C160.279 88.9454 160.256 88.9804 160.21 89.0036C160.175 89.0268 160.134 89.0327 160.088 89.0211C159.16 88.6963 158.267 88.5339 157.408 88.5338C156.596 88.5338 155.958 88.7083 155.494 89.0563C155.03 89.3927 154.798 89.8563 154.798 90.4479C154.798 90.97 154.983 91.3995 155.355 91.736C155.726 92.0608 156.422 92.328 157.442 92.5368C158.51 92.7456 159.293 93.0645 159.792 93.4938C160.291 93.9114 160.54 94.4626 160.54 95.1471C160.54 95.901 160.256 96.4983 159.688 96.9391C159.131 97.3683 158.371 97.5826 157.408 97.5827C156.457 97.5827 155.534 97.3803 154.641 96.9743C154.513 96.9163 154.449 96.8233 154.449 96.6959C154.449 96.6496 154.467 96.6147 154.502 96.5914C154.537 96.5682 154.578 96.5623 154.624 96.5739C155.54 97.0146 156.469 97.235 157.408 97.235C158.278 97.235 158.957 97.0496 159.444 96.6784C159.943 96.3072 160.192 95.7966 160.192 95.1471C160.192 94.6251 160.001 94.1725 159.618 93.7897C159.247 93.4068 158.498 93.1048 157.373 92.8844C156.329 92.6756 155.58 92.3855 155.128 92.0143C154.676 91.6315 154.449 91.1091 154.449 90.4479C154.449 89.7635 154.716 89.2182 155.25 88.8122C155.795 88.3945 156.515 88.1852 157.408 88.1852ZM166.238 88.36C166.354 88.36 166.412 88.4178 166.412 88.5338V97.235C166.412 97.351 166.354 97.4088 166.238 97.4088C166.122 97.4088 166.064 97.351 166.064 97.235V88.5338C166.064 88.4178 166.122 88.36 166.238 88.36ZM187.369 88.1852C188.413 88.1853 189.167 88.4763 189.631 89.0563C190.095 89.6364 190.327 90.6222 190.327 92.0143V97.235C190.327 97.351 190.269 97.4088 190.153 97.4088C190.037 97.4088 189.98 97.351 189.98 97.235V92.0143C189.98 90.6455 189.77 89.7234 189.353 89.2477C188.935 88.7721 188.274 88.5339 187.369 88.5338C186.604 88.5338 185.861 88.841 185.142 89.4557C184.422 90.0706 184.063 90.6916 184.063 91.318V97.235C184.063 97.3509 184.004 97.4087 183.889 97.4088C183.773 97.4088 183.714 97.351 183.714 97.235V88.5338C183.714 88.4178 183.773 88.36 183.889 88.36C184.004 88.3601 184.063 88.4179 184.063 88.5338V90.1696C184.063 90.1812 184.068 90.1872 184.08 90.1872C184.103 90.1871 184.114 90.1811 184.114 90.1696C184.451 89.6243 184.927 89.1598 185.542 88.777C186.157 88.3827 186.766 88.1852 187.369 88.1852ZM133.281 84.8795C132.527 84.8796 131.819 84.9493 131.158 85.0885C131.066 85.1118 131.02 85.1697 131.02 85.2623V96.8522C131.02 96.9448 131.066 97.0027 131.158 97.026C131.819 97.1652 132.527 97.235 133.281 97.235C135.242 97.235 136.687 96.7187 137.615 95.6862C138.555 94.6537 139.024 93.0527 139.024 90.8834C139.024 88.8415 138.555 87.3326 137.615 86.358C136.687 85.3719 135.242 84.8795 133.281 84.8795ZM175.239 88.5338C173.093 88.5339 172.02 89.9841 172.02 92.8844C172.02 94.1954 172.305 95.222 172.873 95.9645C173.441 96.6953 174.23 97.0611 175.239 97.0612C176.167 97.0612 176.933 96.7939 177.536 96.2604C178.151 95.7151 178.459 95.0244 178.459 94.1891V91.4049C178.459 90.5697 178.151 89.8848 177.536 89.3512C176.933 88.8062 176.167 88.5338 175.239 88.5338ZM146.886 88.5338C144.716 88.5338 143.562 89.8157 143.423 92.3795C143.423 92.4839 143.475 92.5368 143.579 92.5368H149.844C149.948 92.5368 150.001 92.4839 150.001 92.3795C149.92 89.8157 148.881 88.5339 146.886 88.5338ZM214.306 57.5407C214.483 57.5258 214.741 57.5409 214.992 57.695C215.261 57.86 215.401 58.1089 215.46 58.3278C215.556 58.6862 215.46 59.0389 215.401 59.2233C215.328 59.4543 215.218 59.7018 215.097 59.944C214.616 60.9037 213.741 62.1934 213.1 63.0709C212.807 63.4711 212.245 63.558 211.845 63.2653C211.444 62.9725 211.357 62.4108 211.649 62.0104C211.987 61.5484 212.374 60.9919 212.723 60.4498C211.496 61.3066 209.93 62.499 208.563 63.6823C207.517 64.5872 206.637 65.4452 206.12 66.112C205.99 66.2801 205.897 66.4177 205.833 66.526C205.897 66.5516 205.97 66.581 206.054 66.612C206.364 66.7262 206.763 66.8562 207.234 66.9997C208.176 67.2865 209.366 67.6137 210.639 67.9616C213.157 68.6495 216.028 69.4224 217.758 70.0768C219.561 70.7587 221.318 71.5105 222.633 72.4264C223.939 73.3361 225 74.5463 225 76.1764C225 76.7144 224.787 77.2087 224.511 77.6286C224.232 78.0536 223.847 78.4653 223.408 78.858C222.53 79.6438 221.329 80.4415 219.99 81.1979C217.306 82.7142 213.928 84.1457 211.092 85.0582C206.58 86.5096 201.42 87.5512 199.395 87.8932C198.905 87.9758 198.442 87.6461 198.359 87.1569C198.277 86.6679 198.607 86.2043 199.096 86.1217C201.07 85.7883 206.139 84.7634 210.541 83.3473C213.276 82.4676 216.54 81.0833 219.106 79.6334C220.393 78.9067 221.469 78.1827 222.211 77.5192C222.582 77.1875 222.844 76.8923 223.009 76.6422C223.176 76.387 223.204 76.2368 223.204 76.1764C223.204 75.4252 222.732 74.6854 221.606 73.901C220.489 73.1228 218.915 72.4356 217.122 71.7575C215.493 71.1414 212.73 70.3959 210.165 69.695C208.897 69.3484 207.682 69.0141 206.711 68.7184C206.226 68.5707 205.79 68.4288 205.434 68.2975C205.098 68.174 204.763 68.0347 204.525 67.8805C204.251 67.7019 204.047 67.4351 203.962 67.1041C203.883 66.7985 203.923 66.5087 203.987 66.2819C204.111 65.8439 204.395 65.4039 204.7 65.0104C205.33 64.1986 206.32 63.2475 207.387 62.3239C209.525 60.4728 212.174 58.5647 213.412 57.8629C213.666 57.719 213.981 57.568 214.306 57.5407ZM166.238 84.3571C166.354 84.3571 166.412 84.4151 166.412 84.5309V85.9235C166.412 86.0395 166.354 86.0973 166.238 86.0973C166.122 86.0973 166.064 86.0394 166.064 85.9235V84.5309C166.065 84.4151 166.122 84.3571 166.238 84.3571ZM58.3916 0.772111C58.7862 0.471438 59.3507 0.548376 59.6514 0.94301C59.9517 1.33762 59.875 1.90123 59.4805 2.2018C58.2799 3.11657 55.6805 5.16397 54.6436 6.20082C53.2431 7.60119 44.4743 15.6929 38.4014 23.4528C32.2429 31.3219 24.1437 41.1068 21.2822 45.483C20.5951 46.5341 20.0262 47.6662 19.6611 48.7438C19.2923 49.8329 19.152 50.8056 19.2539 51.5622C19.3515 52.2857 19.6583 52.7739 20.1973 53.069C20.7839 53.3901 21.7918 53.563 23.4385 53.2819C27.0135 52.6715 30.5304 52.6726 33.4844 53.1129C36.3988 53.5474 38.9052 54.4311 40.332 55.7077C42.1931 57.3728 42.9644 59.8579 43.0322 62.3424C43.1002 64.8342 42.4692 67.4499 41.3799 69.5377C40.3516 71.5087 39.1726 73.6971 38.1983 75.6247C37.7127 76.5851 37.2858 77.4657 36.9609 78.2057C36.6275 78.9652 36.4304 79.5141 36.3662 79.8346C36.2689 80.3211 35.7951 80.637 35.3086 80.5397C34.8223 80.4423 34.5073 79.9684 34.6045 79.4821C34.7104 78.9529 34.9809 78.2484 35.3164 77.484C35.6606 76.7002 36.1043 75.7853 36.5957 74.8131C37.5756 72.8747 38.7763 70.6441 39.7871 68.7067C40.737 66.886 41.2958 64.5726 41.2363 62.3913C41.1766 60.203 40.5022 58.2702 39.1348 57.0465C38.1025 56.123 36.0205 55.3068 33.2197 54.8893C30.4584 54.4777 27.1324 54.4742 23.7402 55.0534C21.9035 55.3669 20.4254 55.2427 19.334 54.6452C18.1951 54.0215 17.631 52.9693 17.4736 51.8024C17.3208 50.6684 17.5419 49.399 17.959 48.1676C18.3798 46.9251 19.0215 45.6572 19.7783 44.4997C22.6949 40.0391 30.9103 30.1104 36.9873 22.3454C43.1495 14.4715 52.0537 6.24968 53.3731 4.93031C54.5112 3.79214 57.2128 1.67025 58.3916 0.772111ZM55.4287 55.4274C55.9185 55.5055 56.2517 55.9659 56.1738 56.4557C55.7662 59.013 54.8552 63.751 54.2178 67.0006C54.8199 65.7976 55.4362 64.7051 56.041 63.8424C57.5575 61.6796 58.8833 60.0001 60.2149 58.9039C61.5832 57.7775 63.0084 57.2268 64.669 57.4079C66.1114 57.5652 67.028 58.4156 67.5557 59.3424C68.0663 60.2396 68.24 61.2421 68.25 61.9118C68.2574 62.4078 67.8612 62.8164 67.3652 62.8239C66.8694 62.831 66.4615 62.434 66.4541 61.9381C66.4475 61.499 66.3231 60.809 65.9942 60.2311C65.6819 59.6826 65.2166 59.275 64.4746 59.194C63.4046 59.0773 62.4457 59.3949 61.3565 60.2916C60.2305 61.2187 59.0246 62.7174 57.5127 64.8737C56.3628 66.5137 55.0988 69.1852 53.9746 71.9166C52.8581 74.6295 51.9075 77.3303 51.376 78.9821C51.2386 79.4088 50.8122 79.6608 50.3828 79.5934C50.3633 79.6474 50.3435 79.7 50.3252 79.7516C50.1594 80.2192 49.6453 80.4633 49.1777 80.2975C48.7105 80.1315 48.4661 79.6184 48.6318 79.151C49.4937 76.7207 51.2952 72.4885 51.9238 69.3454C52.4033 66.9482 53.8576 59.5781 54.4004 56.1735C54.4785 55.6836 54.9388 55.3494 55.4287 55.4274ZM91.5137 55.8522C91.769 55.4271 92.3208 55.2894 92.7461 55.5446C93.1713 55.7998 93.3098 56.3517 93.0547 56.777C92.88 57.0682 92.8708 57.3 92.9385 57.527C93.0179 57.793 93.2244 58.1121 93.5899 58.4704C94.3254 59.1912 95.4598 59.8369 96.4473 60.3307C97.7272 60.9707 99.4334 61.9499 101.009 63.0231C102.558 64.0785 104.083 65.2921 104.905 66.4137C105.852 67.7049 106.962 69.6471 106.691 71.8883C106.414 74.1866 104.735 76.4668 100.868 78.5289C96.9326 80.6279 93.6123 80.6615 91.0557 79.859C88.5334 79.0672 86.8325 77.4876 86.0381 76.4596C85.5475 75.8247 84.9817 74.792 84.4981 73.8004C84.0084 72.7966 83.563 71.7518 83.3252 71.0534C83.1654 70.5839 83.4164 70.0738 83.8858 69.9137C84.3554 69.7538 84.8665 70.0046 85.0264 70.4743C85.2313 71.0763 85.6415 72.048 86.1123 73.0133C86.5892 73.991 87.0893 74.8813 87.46 75.361C88.0768 76.1591 89.4888 77.4844 91.5938 78.1452C93.6647 78.7952 96.4876 78.8292 100.022 76.944C103.626 75.0219 104.728 73.1509 104.907 71.6725C105.093 70.1371 104.335 68.6752 103.456 67.4762C102.829 66.6212 101.53 65.5527 99.9971 64.5084C98.4902 63.4819 96.8537 62.5432 95.6436 61.9381C94.6391 61.4359 93.2836 60.6861 92.332 59.7536C91.8542 59.2852 91.4173 58.7127 91.2168 58.0407C91.0047 57.3295 91.0798 56.5754 91.5137 55.8522ZM139.926 63.3551C140.418 63.4192 140.764 63.8702 140.7 64.362C140.505 65.8646 139.959 69.4342 139.338 71.5045C138.591 73.9942 138.09 75.7776 137.787 77.0905C137.531 78.1991 137.227 79.3633 137.164 79.6237C137.048 80.1061 136.563 80.4035 136.081 80.2877C135.599 80.1718 135.302 79.6871 135.418 79.2047C135.501 78.8596 135.777 77.8128 136.037 76.6862C136.354 75.3122 136.87 73.4813 137.617 70.9889C138.192 69.0734 138.724 65.6342 138.919 64.1305C138.983 63.6386 139.434 63.2913 139.926 63.3551ZM77.502 64.8649C77.9948 64.9198 78.3496 65.3642 78.2949 65.8571C78.1091 67.53 77.6151 71.3978 77.1436 73.1491C76.6806 74.8685 75.5349 78.0581 75.0274 79.4205C74.8542 79.8854 74.337 80.122 73.8721 79.9489C73.4073 79.7756 73.1706 79.2584 73.3438 78.7936C73.8548 77.4219 74.9714 74.3073 75.4092 72.6813C75.8383 71.0871 76.3204 67.3634 76.5098 65.6588C76.5646 65.1658 77.0089 64.8101 77.502 64.8649ZM189.403 57.3004C189.944 57.2644 190.513 57.3212 191.01 57.5797C191.905 58.0453 192.325 58.8921 192.476 59.7731C192.623 60.6363 192.536 61.6294 192.343 62.6168C191.955 64.6016 191.08 66.8503 190.315 68.609C189.577 70.3085 188.992 72.1071 188.684 73.6832C188.366 75.3113 188.38 76.5243 188.65 77.1725C188.841 77.6303 188.624 78.1566 188.166 78.3473C187.708 78.5379 187.182 78.3208 186.991 77.8629C186.502 76.6883 186.592 75.0143 186.92 73.3385C187.258 71.6109 187.888 69.6874 188.668 67.8932C189.422 66.1583 190.23 64.0575 190.579 62.2731C190.755 61.3763 190.8 60.6291 190.705 60.0768C190.614 59.5424 190.416 59.2961 190.181 59.1735C190.081 59.1219 189.879 59.0697 189.522 59.0934C189.173 59.1167 188.738 59.2089 188.23 59.3776C187.212 59.7148 186.007 60.3207 184.791 61.0924C183.579 61.8616 182.387 62.7768 181.394 63.7125C180.39 64.6583 179.637 65.5809 179.249 66.3571C178.374 68.1061 177.812 69.8175 177.295 71.6696C176.786 73.4943 176.301 75.5402 175.615 77.7809C175.446 78.3336 175.311 78.733 175.205 78.9762C175.178 79.0391 175.145 79.1092 175.106 79.1764C175.084 79.2161 175.002 79.3636 174.852 79.486C174.775 79.5483 174.579 79.6883 174.287 79.694C173.94 79.7006 173.691 79.5178 173.558 79.3522C173.445 79.2118 173.401 79.072 173.384 79.0114C173.364 78.9389 173.354 78.8757 173.35 78.8336C173.334 78.6866 173.346 78.5248 173.356 78.4108C173.369 78.277 173.389 78.1197 173.414 77.9479C173.465 77.6026 173.541 77.1648 173.636 76.6735C174.012 74.7173 174.7 71.7506 175.267 69.9557C176.734 65.31 179.085 60.9253 180.478 57.9918C180.69 57.5437 181.226 57.3524 181.674 57.5651C182.122 57.7778 182.312 58.3133 182.1 58.7614C181.622 59.7673 181.057 60.9013 180.461 62.1295C181.478 61.2082 182.646 60.3258 183.828 59.5758C185.123 58.7538 186.464 58.0703 187.664 57.6725C188.264 57.4737 188.855 57.3369 189.403 57.3004ZM133.54 9.79653C133.738 9.34165 134.267 9.13296 134.722 9.3307C135.177 9.52851 135.385 10.0574 135.188 10.5123C134.549 11.9806 132.612 17.0554 131.529 21.5407C130.16 27.2152 127.614 38.768 126.044 45.8317C125.604 47.8136 124.86 50.5886 124.017 53.6305C125.609 53.7489 126.893 53.8726 127.611 53.9957C130.311 54.4586 132.534 54.9609 133.322 55.1579C133.803 55.2783 134.096 55.7665 133.976 56.2477C133.855 56.7289 133.367 57.0213 132.886 56.901C132.143 56.7152 129.965 56.2226 127.309 55.7672C126.606 55.6468 125.247 55.5207 123.523 55.3971C122.993 57.2892 122.443 59.243 121.908 61.1393C121.113 63.9616 120.36 66.6646 119.788 68.8795C119.208 71.1255 118.836 72.7869 118.77 73.5748C118.538 76.3367 119.67 77.841 119.94 78.3434C120.176 78.7802 120.012 79.325 119.575 79.5602C119.138 79.7954 118.594 79.6318 118.358 79.195C118.135 78.781 116.696 76.8049 116.98 73.4245C117.061 72.4544 117.478 70.6355 118.048 68.4303C118.626 66.1942 119.384 63.4744 120.179 60.653C120.682 58.8683 121.196 57.0438 121.692 55.2741C120.76 55.2157 119.766 55.1591 118.742 55.1041C114.918 54.8988 110.762 54.727 108.104 54.6315C107.608 54.6134 107.221 54.1973 107.238 53.7018C107.256 53.206 107.673 52.8178 108.169 52.8356C110.835 52.9314 115.002 53.1042 118.839 53.3102C119.995 53.3723 121.129 53.4377 122.187 53.5055C123.066 50.3423 123.84 47.465 124.29 45.442C125.857 38.3918 128.409 26.8139 129.783 21.1188C130.896 16.5088 132.871 11.3346 133.54 9.79653ZM156.64 59.3961C157.212 59.3456 157.675 59.6089 157.984 59.8707C158.582 60.3756 158.995 61.1922 159.202 61.7252C159.381 62.1878 159.151 62.708 158.688 62.8873C158.226 63.0666 157.706 62.8371 157.526 62.3747C157.449 62.1741 157.337 61.9388 157.205 61.7223C157.069 61.4993 156.935 61.3355 156.824 61.2418C156.814 61.2328 156.804 61.225 156.795 61.2184C156.77 61.2432 156.735 61.2809 156.694 61.3356C155.426 63.027 151.489 68.4416 150.104 71.3864C149.741 72.1565 149.355 72.9656 149.035 73.7623C148.713 74.5651 148.481 75.2969 148.406 75.9049C148.33 76.5252 148.433 76.8582 148.577 77.0348C148.71 77.1975 149.049 77.4348 149.96 77.4479C151.862 77.475 154.082 76.8022 156.103 75.9645C158.109 75.1328 159.806 74.1892 160.697 73.7282C161.491 73.3175 162.802 72.5462 163.993 72.0963C164.595 71.869 165.26 71.6853 165.892 71.6891C166.551 71.693 167.254 71.908 167.738 72.5543C168.713 73.8543 169.28 75.7629 169.449 76.5446C169.554 77.0293 169.246 77.508 168.762 77.6129C168.277 77.7178 167.798 77.4093 167.693 76.9245C167.544 76.2334 167.045 74.6244 166.301 73.6325C166.248 73.5625 166.159 73.4867 165.881 73.485C165.574 73.4832 165.152 73.579 164.628 73.777C163.566 74.1777 162.46 74.8392 161.522 75.3239C160.683 75.7583 158.887 76.7552 156.79 77.6247C154.707 78.4881 152.211 79.2773 149.935 79.2448C148.757 79.2279 147.79 78.9134 147.184 78.1696C146.589 77.4396 146.521 76.5112 146.623 75.6842C146.727 74.8447 147.027 73.9424 147.368 73.0924C147.712 72.2364 148.125 71.3737 148.479 70.6217C149.958 67.478 154.019 61.9093 155.258 60.2575C155.598 59.8047 156.055 59.448 156.64 59.3961ZM209.158 39.5631C209.461 39.1702 210.025 39.0967 210.418 39.3991C210.811 39.7016 210.884 40.2656 210.582 40.6588C209.112 42.5701 205.529 47.403 204.091 50.7995C203.721 51.6726 203.279 53.0611 202.928 54.4538C202.572 55.8657 202.339 57.1717 202.339 57.9079C202.339 58.4039 201.937 58.8063 201.44 58.8063C200.944 58.8062 200.542 58.4039 200.542 57.9079C200.542 56.9313 200.827 55.4388 201.186 54.0153C201.549 52.5727 202.018 51.088 202.437 50.0993C203.98 46.4554 207.712 41.4429 209.158 39.5631ZM73.2119 48.1891C73.4993 47.7847 74.0604 47.6899 74.4649 47.9772C75.0174 48.3698 75.8054 49.0456 76.2998 49.7995C76.5447 50.1728 76.7794 50.6571 76.791 51.194C76.804 51.7974 76.5322 52.3416 76.0049 52.7301C75.5293 53.0804 75.0045 53.2219 74.4805 53.1754C73.9794 53.131 73.5434 52.9214 73.1963 52.6813C72.5148 52.2097 71.9942 51.4979 71.7139 50.9997C71.4707 50.5673 71.6243 50.0193 72.0567 49.776C72.489 49.5329 73.0371 49.6864 73.2803 50.1188C73.4825 50.4782 73.8389 50.9409 74.2188 51.2038C74.4019 51.3304 74.5429 51.3778 74.6387 51.3864C74.7115 51.3928 74.8042 51.3834 74.9395 51.2838C74.9704 51.261 74.9867 51.2439 74.9942 51.235V51.2321C74.9928 51.179 74.9596 51.0315 74.7979 50.7848C74.4774 50.2962 73.8899 49.7732 73.4238 49.442C73.0196 49.1547 72.9247 48.5935 73.2119 48.1891ZM138.569 47.9313C138.784 47.9902 138.971 48.1257 139.11 48.2946C139.157 48.3549 139.202 48.4162 139.245 48.4772C139.679 49.094 139.982 49.7084 140.225 50.3541C140.399 50.8234 140.509 51.3114 140.556 51.8288C140.561 51.8957 140.568 51.9678 140.571 52.0377C140.579 52.2528 140.539 52.4746 140.431 52.6637C140.322 52.8525 140.156 52.993 139.958 53.0573C139.76 53.1215 139.542 53.1056 139.343 53.0163C139.144 52.927 138.982 52.7709 138.862 52.5924C138.828 52.5441 138.79 52.4882 138.756 52.4362C138.489 52.0274 138.268 51.5928 138.102 51.1452C137.872 50.5327 137.694 49.8872 137.555 49.2887C137.541 49.2314 137.528 49.1757 137.517 49.1247C137.458 48.9134 137.454 48.6833 137.529 48.4733C137.604 48.2638 137.749 48.0921 137.939 47.9928C138.13 47.8936 138.355 47.8725 138.569 47.9313Z" fill="white"/>
</svg>
