<svg width="43" height="20" viewBox="0 0 43 20" fill="none" xmlns="http://www.w3.org/2000/svg">
<g clip-path="url(#clip0_30_1202)">
<path d="M41.1044 19.7478C40.6721 19.7478 40.2686 19.5759 39.9515 19.2607L26.9239 6.30975C26.7222 6.13785 26.4051 6.25239 26.4051 6.53896V18.0573C26.4051 18.9742 25.6845 19.7191 24.7911 19.7478C23.8688 19.7478 23.1194 19.0315 23.1194 18.1146V1.92593C23.1194 1.35287 23.4076 0.808471 23.8976 0.493289C24.5317 0.0921547 25.3963 0.206769 25.9151 0.722499L38.9427 13.6735C39.1445 13.874 39.4615 13.7308 39.4615 13.4729V1.92593C39.4615 1.03769 40.1821 0.264078 41.0756 0.264078C41.9979 0.235491 42.7473 0.980373 42.7473 1.86861V18.0573C42.7473 18.659 42.4302 19.232 41.9403 19.5186C41.6809 19.6619 41.3926 19.7478 41.1044 19.7478Z" fill="#E8711F"/>
<path d="M18.2196 8.37282H13.3775C12.484 8.37282 11.7058 9.08913 11.7058 9.97735C11.677 10.8942 12.4264 11.6106 13.3199 11.6106H16.1733C16.4038 11.6106 16.6056 11.8111 16.6056 12.0403V16.0803C16.6056 16.3096 16.4038 16.5101 16.1733 16.5101H10.1783C6.37373 16.5101 3.31858 13.4157 3.52033 9.63354C3.72209 6.2239 6.57549 3.50187 10.063 3.50187H18.162C19.0843 3.50187 19.8625 2.81422 19.8625 1.89734C19.8625 0.980455 19.1419 0.26416 18.2196 0.26416H10.2071C4.96144 0.26416 0.522833 4.30417 0.263434 9.54757C0.00403531 15.1062 4.50029 19.7479 10.063 19.7479H18.2196C19.1419 19.7479 19.8625 19.0029 19.8625 18.1147V10.006C19.8625 9.11779 19.1419 8.37282 18.2196 8.37282Z" fill="#E8711F"/>
</g>
<defs>
<clipPath id="clip0_30_1202">
<rect width="43" height="20" fill="white"/>
</clipPath>
</defs>
</svg>
