<svg width="60" height="20" viewBox="0 0 60 20" fill="none" xmlns="http://www.w3.org/2000/svg">
<g clip-path="url(#clip0_30_1212)">
<path d="M18.2022 9.40956C16.8289 9.40956 16.8289 9.73274 16.8289 9.8819V10.1429C16.8289 10.2797 16.8289 10.6028 18.2022 10.6028C19.5754 10.6028 19.5754 10.2797 19.5754 10.1429V9.8819C19.5629 9.73274 19.5629 9.40956 18.2022 9.40956ZM26.5665 10.1305V8.04225C26.5665 7.90552 26.5665 7.58234 25.1933 7.58234C23.82 7.58234 23.82 7.90552 23.82 8.04225V10.1305C23.82 10.2672 23.82 10.5904 25.1933 10.5904C26.5665 10.5904 26.5665 10.2672 26.5665 10.1305ZM35.6924 10.6028C37.0657 10.6028 37.0657 10.2797 37.0657 10.1429V9.8819C37.0657 9.74517 37.0657 9.40956 35.6924 9.40956C34.3192 9.40956 34.3192 9.73274 34.3192 9.8819V10.1429C34.3192 10.2797 34.3192 10.6028 35.6924 10.6028Z" fill="#FFD100"/>
<path d="M58.0016 0H1.5109C0.811786 0 0.25 0.559354 0.25 1.25544V18.757C0.25 19.4531 0.811786 20.0124 1.5109 20.0124H58.0016C58.7007 20.0124 59.2625 19.4531 59.2625 18.757V1.25544C59.25 0.559354 58.6882 0 58.0016 0ZM32.8336 9.63331C32.8336 9.31013 32.8336 8.6762 35.68 8.6762C36.2417 8.6762 36.6912 8.70106 37.0532 8.73835V8.04226C37.0532 7.90553 37.0532 7.58235 35.68 7.58235C34.4191 7.58235 34.4191 7.90553 34.4191 8.04226C34.4191 8.1417 34.3442 8.21628 34.2443 8.21628H33.1082C33.0084 8.21628 32.9335 8.1417 32.9335 8.04226V7.80609C32.9335 7.48291 32.9335 6.84898 35.68 6.84898C38.5263 6.84898 38.5263 7.48291 38.5263 7.80609V10.3791C38.5263 10.7023 38.5263 11.3362 35.68 11.3362C32.8336 11.3362 32.8336 10.7023 32.8336 10.3791V9.63331ZM9.03883 14.9037C9.03883 14.9658 8.98889 15.0031 8.93895 15.0031H8.51449C8.45207 15.0031 8.41462 14.9534 8.41462 14.9037V13.8595C8.41462 13.7974 8.46456 13.7601 8.51449 13.7601H8.93895C9.00138 13.7601 9.03883 13.8098 9.03883 13.8595V14.9037ZM11.1486 14.8912C11.1486 14.9534 11.0987 15.0031 11.0363 15.0031H10.5494C10.487 15.0031 10.437 14.9534 10.437 14.8912V13.8595C10.437 13.7974 10.487 13.7477 10.5494 13.7477H11.0363C11.0987 13.7477 11.1486 13.7974 11.1486 13.8595V14.8912ZM13.2709 14.8912C13.2709 14.9534 13.221 15.0031 13.1586 15.0031H12.5968C12.5344 15.0031 12.4844 14.9534 12.4844 14.8912V13.872C12.4844 13.8098 12.5344 13.7601 12.5968 13.7601H13.1586C13.221 13.7601 13.2709 13.8098 13.2709 13.872V14.8912ZM14.1074 10.3791C14.1074 10.7023 14.1074 11.3362 11.261 11.3362C8.41462 11.3362 8.41462 10.7023 8.41462 10.3791V9.94407C8.41462 9.84463 8.48953 9.77004 8.5894 9.77004H9.72546C9.82533 9.77004 9.90023 9.84463 9.90023 9.94407V10.1678C9.90023 10.317 9.95017 10.6153 11.2735 10.6153C12.6467 10.6153 12.6467 10.2921 12.6467 10.1554V5.19577C12.6467 5.09633 12.7216 5.02175 12.8215 5.02175H13.9576C14.0574 5.02175 14.1324 5.09633 14.1324 5.19577L14.1074 10.3791ZM15.3933 14.8788C15.3933 14.941 15.3433 14.9907 15.2809 14.9907H14.6567C14.5943 14.9907 14.5443 14.941 14.5443 14.8788V13.8595C14.5443 13.7974 14.5943 13.7477 14.6567 13.7477H15.2809C15.3433 13.7477 15.3933 13.7974 15.3933 13.8595V14.8788ZM17.5031 14.8788C17.5031 14.941 17.4531 15.0031 17.3782 15.0031H16.6791C16.6167 15.0031 16.5543 14.9534 16.5543 14.8788V13.872C16.5543 13.8098 16.6042 13.7477 16.6791 13.7477H17.3782C17.4406 13.7477 17.5031 13.7974 17.5031 13.872V14.8788ZM15.3433 10.3791V9.63331C15.3433 9.31013 15.3433 8.6762 18.1897 8.6762C18.7515 8.6762 19.2009 8.70106 19.5629 8.73835V8.04226C19.5629 7.90553 19.5629 7.58235 18.1897 7.58235C16.9163 7.58235 16.9163 7.90553 16.9163 8.04226C16.9163 8.1417 16.8414 8.21628 16.7415 8.21628H15.6055C15.5056 8.21628 15.4307 8.1417 15.4307 8.04226V7.80609C15.4307 7.48291 15.4307 6.84898 18.1772 6.84898C21.0236 6.84898 21.0236 7.48291 21.0236 7.80609V10.3791C21.0236 10.7023 21.0236 11.3362 18.1772 11.3362C15.3433 11.3362 15.3433 10.7023 15.3433 10.3791ZM19.6254 14.8788C19.6254 14.9534 19.5629 15.0031 19.5005 15.0031H18.739C18.6641 15.0031 18.6142 14.941 18.6142 14.8788V13.8844C18.6142 13.8098 18.6766 13.7601 18.739 13.7601H19.5005C19.5754 13.7601 19.6254 13.8223 19.6254 13.8844V14.8788ZM21.7477 14.8664C21.7477 14.941 21.6853 15.0031 21.6103 15.0031H20.7739C20.699 15.0031 20.6366 14.941 20.6366 14.8664V13.8844C20.6366 13.8098 20.699 13.7477 20.7739 13.7477H21.6103C21.6853 13.7477 21.7477 13.8098 21.7477 13.8844V14.8664ZM22.3469 10.3667V5.18334C22.3469 5.0839 22.4218 5.00932 22.5217 5.00932H23.6577C23.7576 5.00932 23.8325 5.0839 23.8325 5.18334V6.8987C24.1946 6.86141 24.644 6.83655 25.2058 6.83655C28.0522 6.83655 28.0522 7.47048 28.0522 7.79366V10.3667C28.0522 10.6899 28.0522 11.3238 25.2058 11.3238C22.3469 11.3362 22.3469 10.6899 22.3469 10.3667ZM23.8575 14.8664C23.8575 14.941 23.7951 15.0031 23.7202 15.0031H22.8213C22.7464 15.0031 22.684 14.941 22.684 14.8664V13.8844C22.684 13.8098 22.7464 13.7477 22.8213 13.7477H23.7202C23.7951 13.7477 23.8575 13.8098 23.8575 13.8844V14.8664ZM25.9798 14.8539C25.9798 14.9285 25.9174 14.9907 25.8425 14.9907H24.8687C24.7938 14.9907 24.7314 14.9285 24.7314 14.8539V13.8844C24.7314 13.8098 24.7938 13.7477 24.8687 13.7477H25.8425C25.9174 13.7477 25.9798 13.8098 25.9798 13.8844V14.8539ZM28.1021 14.8539C28.1021 14.941 28.0397 15.0031 27.9523 15.0031H26.9161C26.8287 15.0031 26.7663 14.941 26.7663 14.8539V13.8968C26.7663 13.8098 26.8287 13.7477 26.9161 13.7477H27.9523C28.0397 13.7477 28.1021 13.8098 28.1021 13.8968V14.8539ZM30.2244 14.8539C30.2244 14.941 30.162 15.0031 30.0746 15.0031H28.9635C28.8761 15.0031 28.8137 14.941 28.8137 14.8539V13.9093C28.8137 13.8223 28.8761 13.7601 28.9635 13.7601H30.0621C30.1495 13.7601 30.2119 13.8223 30.2119 13.9093V14.8539H30.2244ZM30.8236 11.0628C30.8236 11.1622 30.7487 11.2368 30.6489 11.2368H29.5128C29.4129 11.2368 29.338 11.1622 29.338 11.0628V7.80609C29.338 7.48291 29.338 6.84898 32.1844 6.84898C32.2843 6.84898 32.3592 6.92356 32.3592 7.023V7.40833C32.3592 7.50777 32.2843 7.58235 32.1844 7.58235C30.8112 7.58235 30.8112 7.90553 30.8112 8.04226L30.8236 11.0628ZM45.9919 14.7296C45.9919 14.8788 45.867 15.0031 45.7172 15.0031H31.1233C30.9734 15.0031 30.8486 14.8788 30.8486 14.7296V14.0336C30.8486 13.8844 30.9734 13.7601 31.1233 13.7601H45.7172C45.867 13.7601 45.9919 13.8844 45.9919 14.0336V14.7296ZM46.0043 8.96209C46.0043 9.16097 45.842 9.32256 45.6423 9.32256H43.8196C42.5837 9.32256 41.585 8.29086 41.6474 7.04786C41.6973 5.89186 42.6836 4.98446 43.8571 4.98446H45.6423C45.842 4.98446 46.0043 5.14605 46.0043 5.35737C46.0043 5.55625 45.8296 5.71784 45.6298 5.71784H43.8196C43.0456 5.71784 42.4089 6.32691 42.3715 7.08515C42.3215 7.91796 43.0081 8.61405 43.8446 8.61405H45.1804C45.2303 8.61405 45.2678 8.57676 45.2678 8.52704V7.61964C45.2678 7.56992 45.2303 7.53263 45.1804 7.53263H44.5437C44.3439 7.53263 44.1817 7.37104 44.1817 7.15973C44.1817 6.96085 44.3564 6.79925 44.5562 6.79925H45.6298C45.8296 6.79925 45.9919 6.96085 45.9919 7.15973V8.96209H46.0043ZM51.0729 8.94966C51.0729 9.07396 51.0105 9.21069 50.8981 9.27284C50.8357 9.31013 50.7733 9.32256 50.7109 9.32256C50.611 9.32256 50.5236 9.28527 50.4487 9.21069L47.5649 6.33934C47.5274 6.30205 47.4525 6.32691 47.4525 6.38906V8.94966C47.4525 9.14854 47.2902 9.32256 47.0905 9.32256C46.8907 9.32256 46.7159 9.16097 46.7159 8.96209V5.35737C46.7159 5.23306 46.7784 5.10876 46.8907 5.04661C47.0405 4.9596 47.2278 4.98446 47.3401 5.09633L50.2365 7.98011C50.2739 8.0174 50.3488 7.99254 50.3488 7.93039V5.35737C50.3488 5.15848 50.5111 4.98446 50.6984 4.98446C50.8981 4.98446 51.0729 5.14605 51.0729 5.34494V8.94966Z" fill="#FFD100"/>
<path d="M32.1969 7.58232C32.2968 7.58232 32.3717 7.50774 32.3717 7.4083V7.02297C32.3717 6.92353 32.2968 6.84895 32.1969 6.84895C29.3505 6.84895 29.3505 7.48288 29.3505 7.80606V11.0627C29.3505 11.1622 29.4254 11.2368 29.5253 11.2368H30.6614C30.7612 11.2368 30.8361 11.1622 30.8361 11.0627V8.04224C30.8237 7.9055 30.8237 7.58232 32.1969 7.58232ZM21.0486 10.3791V7.80606C21.0486 7.48288 21.0486 6.84895 18.2022 6.84895C15.4557 6.84895 15.4557 7.48288 15.4557 7.80606V8.04224C15.4557 8.14168 15.5306 8.21626 15.6305 8.21626H16.7665C16.8664 8.21626 16.9413 8.14168 16.9413 8.04224C16.9413 7.9055 16.9413 7.58232 18.2147 7.58232C19.5879 7.58232 19.5879 7.9055 19.5879 8.04224V8.73832C19.2259 8.70103 18.7765 8.67617 18.2147 8.67617C15.3683 8.67617 15.3683 9.3101 15.3683 9.63329V10.3791C15.3683 10.7023 15.3683 11.3362 18.2147 11.3362C21.0486 11.3362 21.0486 10.7023 21.0486 10.3791ZM19.563 10.1305C19.563 10.2672 19.563 10.5904 18.1897 10.5904C16.8165 10.5904 16.8165 10.2672 16.8165 10.1305V9.86946C16.8165 9.73273 16.8165 9.39711 18.1897 9.39711C19.563 9.39711 19.563 9.7203 19.563 9.86946V10.1305ZM28.0397 10.3667V7.80606C28.0397 7.48288 28.0397 6.84895 25.1933 6.84895C24.6315 6.84895 24.1821 6.87381 23.8201 6.9111V5.18332C23.8201 5.08388 23.7452 5.0093 23.6453 5.0093H22.5092C22.4094 5.0093 22.3345 5.08388 22.3345 5.18332V10.3667C22.3345 10.6898 22.3345 11.3238 25.1808 11.3238C28.0397 11.3362 28.0397 10.6898 28.0397 10.3667ZM23.8326 10.1305V8.04224C23.8326 7.9055 23.8325 7.58232 25.2058 7.58232C26.5791 7.58232 26.5791 7.9055 26.5791 8.04224V10.1305C26.5791 10.2672 26.5791 10.5904 25.2058 10.5904C23.8325 10.5904 23.8326 10.2672 23.8326 10.1305ZM35.6925 11.3362C38.5389 11.3362 38.5389 10.7023 38.5389 10.3791V7.80606C38.5389 7.48288 38.5389 6.84895 35.6925 6.84895C32.946 6.84895 32.946 7.48288 32.946 7.80606V8.04224C32.946 8.14168 33.0209 8.21626 33.1207 8.21626H34.2568C34.3567 8.21626 34.4316 8.14168 34.4316 8.04224C34.4316 7.9055 34.4316 7.58232 35.6925 7.58232C37.0657 7.58232 37.0657 7.9055 37.0657 8.04224V8.73832C36.7037 8.70103 36.2543 8.67617 35.6925 8.67617C32.8461 8.67617 32.8461 9.3101 32.8461 9.63329V10.3791C32.8336 10.7023 32.8336 11.3362 35.6925 11.3362ZM34.3192 9.86946C34.3192 9.73273 34.3192 9.39711 35.6925 9.39711C37.0657 9.39711 37.0657 9.7203 37.0657 9.86946V10.1305C37.0657 10.2672 37.0657 10.5904 35.6925 10.5904C34.3192 10.5904 34.3192 10.2672 34.3192 10.1305V9.86946ZM13.9202 5.02173H12.7841C12.6842 5.02173 12.6093 5.09631 12.6093 5.19575V10.1429C12.6093 10.2797 12.6093 10.6028 11.2361 10.6028C9.92523 10.6028 9.87529 10.3045 9.86281 10.1553V9.93161C9.86281 9.83217 9.7879 9.75759 9.68803 9.75759H8.55198C8.4521 9.75759 8.3772 9.83217 8.3772 9.93161V10.3667C8.3772 10.6898 8.3772 11.3238 11.2236 11.3238C14.07 11.3238 14.07 10.6898 14.07 10.3667V5.18332C14.1074 5.09631 14.02 5.02173 13.9202 5.02173ZM8.9265 13.7476H8.50204C8.43962 13.7476 8.40217 13.7974 8.40217 13.8471V14.8912C8.40217 14.9534 8.4521 14.9907 8.50204 14.9907H8.9265C8.98892 14.9907 9.02637 14.9409 9.02637 14.8912V13.8471C9.03886 13.7974 8.98892 13.7476 8.9265 13.7476ZM11.0488 13.7476H10.5619C10.4995 13.7476 10.4496 13.7974 10.4496 13.8595V14.8912C10.4496 14.9534 10.4995 15.0031 10.5619 15.0031H11.0488C11.1112 15.0031 11.1612 14.9534 11.1612 14.8912V13.8595C11.1487 13.7974 11.0987 13.7476 11.0488 13.7476ZM13.1586 13.7476H12.5968C12.5344 13.7476 12.4845 13.7974 12.4845 13.8595V14.8788C12.4845 14.9409 12.5344 14.9907 12.5968 14.9907H13.1586C13.221 14.9907 13.271 14.9409 13.271 14.8788V13.8595C13.271 13.7974 13.221 13.7476 13.1586 13.7476ZM15.2684 13.7476H14.6442C14.5818 13.7476 14.5319 13.7974 14.5319 13.8595V14.8788C14.5319 14.9409 14.5818 14.9907 14.6442 14.9907H15.2684C15.3309 14.9907 15.3808 14.9409 15.3808 14.8788V13.8595C15.3933 13.7974 15.3309 13.7476 15.2684 13.7476ZM17.3907 13.7476H16.6916C16.6292 13.7476 16.5668 13.7974 16.5668 13.8719V14.8788C16.5668 14.9409 16.6167 15.0031 16.6916 15.0031H17.3907C17.4532 15.0031 17.5156 14.9534 17.5156 14.8788V13.8719C17.5031 13.8098 17.4532 13.7476 17.3907 13.7476ZM19.5006 13.7476H18.739C18.6641 13.7476 18.6142 13.8098 18.6142 13.8719V14.8664C18.6142 14.9409 18.6766 14.9907 18.739 14.9907H19.5006C19.5755 14.9907 19.6254 14.9285 19.6254 14.8664V13.8719C19.6254 13.8098 19.563 13.7476 19.5006 13.7476ZM21.6104 13.7476H20.7739C20.699 13.7476 20.6366 13.8098 20.6366 13.8844V14.8664C20.6366 14.9409 20.699 15.0031 20.7739 15.0031H21.6104C21.6853 15.0031 21.7477 14.9409 21.7477 14.8664V13.8844C21.7477 13.8098 21.6853 13.7476 21.6104 13.7476ZM23.7202 13.7476H22.8213C22.7464 13.7476 22.684 13.8098 22.684 13.8844V14.8664C22.684 14.9409 22.7464 15.0031 22.8213 15.0031H23.7202C23.7951 15.0031 23.8575 14.9409 23.8575 14.8664V13.8844C23.8575 13.8098 23.8076 13.7476 23.7202 13.7476ZM25.8425 13.7476H24.8687C24.7938 13.7476 24.7314 13.8098 24.7314 13.8844V14.8539C24.7314 14.9285 24.7938 14.9907 24.8687 14.9907H25.8425C25.9174 14.9907 25.9798 14.9285 25.9798 14.8539V13.8844C25.9798 13.8098 25.9174 13.7476 25.8425 13.7476ZM27.9523 13.7476H26.9161C26.8287 13.7476 26.7663 13.8098 26.7663 13.8968V14.8539C26.7663 14.9409 26.8287 15.0031 26.9161 15.0031H27.9523C28.0397 15.0031 28.1021 14.9409 28.1021 14.8539V13.8968C28.1021 13.8222 28.0397 13.7476 27.9523 13.7476ZM30.0621 13.7476H28.9635C28.8761 13.7476 28.8137 13.8098 28.8137 13.8968V14.8415C28.8137 14.9285 28.8761 14.9907 28.9635 14.9907H30.0621C30.1495 14.9907 30.2119 14.9285 30.2119 14.8415V13.8968C30.2244 13.8222 30.1495 13.7476 30.0621 13.7476ZM45.7172 13.7476H31.1233C30.9735 13.7476 30.8486 13.8719 30.8486 14.0211V14.7172C30.8486 14.8664 30.9735 14.9907 31.1233 14.9907H45.7172C45.867 14.9907 45.9919 14.8664 45.9919 14.7172V14.0211C45.9919 13.8719 45.867 13.7476 45.7172 13.7476ZM50.7109 4.98444C50.5111 4.98444 50.3613 5.15846 50.3613 5.35734V7.91794C50.3613 7.98009 50.2864 8.00495 50.249 7.96766L47.3402 5.09631C47.2278 4.98444 47.0406 4.95958 46.8907 5.04659C46.7784 5.10874 46.716 5.23304 46.716 5.35734V8.96206C46.716 9.16094 46.8783 9.32253 47.0905 9.32253C47.2902 9.32253 47.4525 9.14851 47.4525 8.94963V6.38904C47.4525 6.32689 47.5274 6.30202 47.5649 6.33932L50.4612 9.22309C50.5361 9.29767 50.6235 9.33496 50.7234 9.33496C50.7858 9.33496 50.8482 9.32253 50.9106 9.28524C51.023 9.22309 51.0854 9.09879 51.0854 8.96206V5.34491C51.0729 5.14603 50.9106 4.98444 50.7109 4.98444ZM45.6298 6.79923H44.5562C44.3565 6.79923 44.1817 6.96082 44.1817 7.1597C44.1817 7.35858 44.344 7.5326 44.5437 7.5326H45.1804C45.2303 7.5326 45.2678 7.56989 45.2678 7.61961V8.52701C45.2678 8.57673 45.2303 8.61402 45.1804 8.61402H43.8446C42.9957 8.61402 42.3215 7.93037 42.3715 7.08512C42.4089 6.32688 43.0456 5.71781 43.8196 5.71781H45.6174C45.8171 5.71781 45.9919 5.55622 45.9919 5.35734C45.9919 5.15846 45.8296 4.98444 45.6298 4.98444H43.8446C42.6836 4.98444 41.6973 5.89183 41.6349 7.04783C41.5725 8.29084 42.5712 9.32253 43.8072 9.32253H45.6174C45.8171 9.32253 45.9794 9.16094 45.9794 8.96206V7.1597C46.0044 6.96082 45.8421 6.79923 45.6298 6.79923Z" fill="#212721"/>
</g>
<defs>
<clipPath id="clip0_30_1212">
<rect width="59" height="20" fill="white" transform="translate(0.25)"/>
</clipPath>
</defs>
</svg>
