<svg width="75" height="20" viewBox="0 0 75 20" fill="none" xmlns="http://www.w3.org/2000/svg">
<mask id="mask0_30_1266" style="mask-type:luminance" maskUnits="userSpaceOnUse" x="0" y="0" width="75" height="20">
<path d="M0 0H74.4414V20H0V0Z" fill="white"/>
</mask>
<g mask="url(#mask0_30_1266)">
<path d="M4.36404 18.35V1.65003C4.36404 1.07614 3.89881 0.610849 3.32486 0.610849C2.75091 0.610849 2.28568 1.07614 2.28568 1.65003V18.35C2.28568 18.9239 2.75091 19.3892 3.32486 19.3892C3.89881 19.3892 4.36404 18.9239 4.36404 18.35Z" fill="#CD8080"/>
<path d="M69.3098 11.7573C69.878 12.5663 70.4374 13.348 70.9795 14.1415C71.2196 14.4928 71.4751 14.8085 71.8693 15.0044C72.1219 15.1298 72.1907 15.3225 72.1399 15.5615C72.0987 15.7555 71.9395 15.8888 71.6658 15.902C71.2754 15.9207 70.8835 15.9126 70.4923 15.914C70.1082 15.9154 69.7241 15.9186 69.3401 15.9116C69.2189 15.9094 69.0914 15.8954 68.9786 15.8544C68.6222 15.7251 68.553 15.33 68.834 15.0766C69.1687 14.7746 69.1805 14.7444 68.9396 14.3623C68.5808 13.7936 68.2074 13.2341 67.8455 12.6673C67.7798 12.5644 67.719 12.5352 67.5996 12.5822C67.3034 12.6987 67.0039 12.8077 66.7011 12.9059C66.5657 12.9498 66.5289 13.0224 66.5321 13.158C66.5411 13.5337 66.5396 13.9099 66.5338 14.2857C66.5299 14.5475 66.6348 14.7462 66.8486 14.8916C66.9742 14.9771 67.1029 15.0583 67.2262 15.147C67.3684 15.2493 67.4724 15.3777 67.4358 15.5672C67.3968 15.7689 67.2413 15.8454 67.0614 15.878C66.9408 15.8998 66.8168 15.9119 66.6943 15.9124C65.9696 15.9155 65.245 15.9171 64.5203 15.9114C64.3698 15.9103 64.2058 15.907 64.0733 15.8481C63.9574 15.7967 63.8191 15.6771 63.7972 15.5665C63.7748 15.4538 63.8547 15.2916 63.9397 15.1943C64.0411 15.0784 64.1946 15.0072 64.327 14.9191C64.5614 14.7631 64.6753 14.5557 64.6747 14.2647C64.6692 11.5681 64.6675 8.87155 64.6754 6.17499C64.6767 5.75542 64.522 5.45139 64.1631 5.24185C64.057 5.17995 63.9537 5.11204 63.8549 5.03902C63.6124 4.85973 63.6022 4.62463 63.8517 4.45352C64.0346 4.32801 64.2373 4.2164 64.4473 4.14807C64.8179 4.02747 65.1988 3.93597 65.5795 3.85046C65.7175 3.81951 65.8691 3.82496 66.0113 3.84147C66.2734 3.87199 66.4346 4.02403 66.4807 4.28185C66.5097 4.44447 66.5221 4.61199 66.5225 4.77733C66.5285 7.08354 66.5312 9.3897 66.5347 11.6959C66.5348 11.782 66.5347 11.8681 66.5347 11.9873C66.6843 11.9412 66.8134 11.9062 66.9393 11.862C67.7626 11.5728 68.5572 11.2226 69.2525 10.6872C69.4617 10.5263 69.6541 10.3303 69.8113 10.1187C70.0152 9.84436 69.9803 9.67798 69.7026 9.48055C69.3514 9.23074 69.1652 8.9109 69.2444 8.48016C69.2747 8.31553 69.3432 8.14365 69.4407 8.00828C69.7098 7.6345 70.3013 7.48213 70.7813 7.63619C71.2238 7.77815 71.5092 8.15869 71.535 8.64752C71.5645 9.20256 71.3978 9.70332 71.0962 10.1622C70.6904 10.7797 70.1264 11.229 69.5141 11.6254C69.454 11.6643 69.3938 11.703 69.3098 11.7573Z" fill="black"/>
<path d="M56.915 9.13682C56.9787 9.06341 57.0148 9.0317 57.039 8.99262C57.8041 7.75284 59.0481 7.39072 60.3932 7.6602C61.4868 7.87933 62.1363 8.58865 62.3262 9.73197C62.3899 10.1149 62.4138 10.5077 62.4181 10.8964C62.4301 11.9879 62.4317 13.0797 62.4171 14.171C62.4122 14.5377 62.5421 14.7963 62.8558 14.9765C62.9683 15.0411 63.0789 15.114 63.1757 15.1996C63.4342 15.428 63.3653 15.7521 63.0368 15.8521C62.9205 15.8874 62.7952 15.9086 62.6738 15.9094C61.8913 15.9145 61.1086 15.9154 60.3261 15.9091C60.1908 15.908 60.05 15.8834 59.9219 15.8399C59.6319 15.7417 59.5647 15.4286 59.7907 15.2205C59.9119 15.1089 60.0566 15.0211 60.1964 14.9316C60.4498 14.7696 60.5682 14.5492 60.5658 14.2433C60.5578 13.2024 60.5683 12.1613 60.5588 11.1204C60.5561 10.8256 60.5339 10.5264 60.4778 10.2375C60.2641 9.13873 59.4689 8.79791 58.4848 9.01573C57.649 9.20069 57.2561 9.83393 57.0758 10.6128C57.0113 10.8917 56.9899 11.1853 56.9865 11.4726C56.9756 12.3906 56.9887 13.3088 56.9788 14.2268C56.9755 14.5405 57.0899 14.7692 57.3529 14.9344C57.4875 15.0189 57.6251 15.1035 57.7428 15.2088C57.9915 15.4313 57.9225 15.7511 57.6045 15.8479C57.4681 15.8895 57.3201 15.9095 57.1772 15.9107C56.4308 15.9167 55.6843 15.9176 54.9381 15.9102C54.7812 15.9086 54.6176 15.8851 54.4696 15.8352C54.192 15.7417 54.1265 15.4294 54.3419 15.2282C54.4674 15.1109 54.6194 15.0206 54.7643 14.9255C55.0077 14.7658 55.1252 14.5524 55.1239 14.2542C55.1175 12.7723 55.1186 11.2903 55.1232 9.80843C55.1241 9.52614 55.0257 9.32429 54.7626 9.19916C54.6066 9.12494 54.4556 9.03366 54.318 8.92952C54.0828 8.75148 54.0673 8.50472 54.2997 8.32848C54.8717 7.89459 55.5222 7.63709 56.2416 7.60123C56.672 7.57982 56.8617 7.77878 56.8904 8.21355C56.9052 8.43677 56.8966 8.66151 56.9002 8.88554C56.9012 8.95355 56.9079 9.02145 56.915 9.13682Z" fill="black"/>
<path d="M51.2491 14.4475C51.1996 14.5131 51.149 14.578 51.1006 14.6443C50.164 15.9265 48.901 16.2077 47.4809 15.7826C46.5801 15.513 46.1217 14.819 45.969 13.9372C45.8647 13.3351 45.8256 12.7181 45.8048 12.1061C45.7778 11.3116 45.7928 10.5154 45.8009 9.72013C45.8036 9.44357 45.7116 9.24809 45.4497 9.13338C45.3113 9.07278 45.1787 8.99392 45.0538 8.90847C44.7703 8.71463 44.7598 8.47523 45.0217 8.2506C45.0923 8.19005 45.1708 8.12706 45.2568 8.09806C45.756 7.92967 46.2506 7.73697 46.7621 7.61823C47.3385 7.48444 47.6462 7.74024 47.6536 8.33174C47.669 9.57528 47.6544 10.8192 47.6669 12.0628C47.6707 12.4444 47.6938 12.8303 47.7574 13.2059C47.9701 14.4617 48.8171 14.7765 49.8753 14.4857C50.5464 14.3013 50.9179 13.8007 51.0897 13.1559C51.1689 12.8586 51.2107 12.5443 51.2184 12.2364C51.2396 11.3908 51.2307 10.5445 51.2404 9.69855C51.2434 9.44019 51.1563 9.25256 50.9096 9.14488C50.7841 9.09005 50.6647 9.0191 50.5484 8.94597C50.1866 8.71817 50.1606 8.41207 50.5358 8.20815C50.9319 7.99289 51.367 7.84177 51.7972 7.69899C52.0185 7.62558 52.267 7.60264 52.502 7.60809C52.8454 7.61605 53.0141 7.78678 53.0646 8.12537C53.0869 8.27468 53.0896 8.42787 53.0898 8.57932C53.0914 10.2786 53.0959 11.978 53.0866 13.6772C53.0848 14.0139 53.1975 14.2432 53.5104 14.3833C53.6605 14.4505 53.8057 14.542 53.9303 14.649C54.1273 14.8178 54.1328 15.0491 53.929 15.208C53.3493 15.6601 52.6849 15.9221 51.9496 15.9509C51.5263 15.9674 51.3466 15.7656 51.322 15.3412C51.309 15.1177 51.3155 14.8931 51.3115 14.6691C51.3102 14.6005 51.3032 14.5321 51.2988 14.4637C51.2822 14.4583 51.2657 14.4529 51.2491 14.4475Z" fill="black"/>
<path d="M36.5734 11.5574C36.0814 11.6674 34.3111 12.418 33.9521 12.6732C33.8118 12.7728 33.6747 12.886 33.5647 13.0169C33.2704 13.3671 33.2132 13.7711 33.3698 14.1955C33.5175 14.5954 33.8392 14.7813 34.2445 14.8478C35.0527 14.9804 35.841 14.5885 36.248 13.8554C36.6483 13.1343 36.5747 12.352 36.5734 11.5574ZM36.6145 14.572C36.5081 14.7176 36.4343 14.8203 36.3588 14.9217C35.5575 15.9975 33.9661 16.4646 32.709 15.9891C32.0022 15.7218 31.5582 15.2206 31.4289 14.474C31.2948 13.6997 31.5624 13.067 32.1699 12.5744C32.7342 12.117 33.3951 11.8373 34.0568 11.5601C34.5441 11.3559 35.0398 11.1701 35.5185 10.9481C35.9419 10.7516 36.3105 10.4807 36.4012 9.97607C36.4611 9.64343 36.4498 9.31237 36.318 8.99575C36.1063 8.48725 35.5463 8.23455 34.8945 8.34207C34.358 8.43057 33.9657 8.73477 33.674 9.17166C33.5182 9.40496 33.3981 9.66218 33.265 9.91024C33.0823 10.2507 32.8384 10.4934 32.4143 10.469C32.0329 10.447 31.7463 10.1846 31.6989 9.80637C31.6557 9.46147 31.78 9.16627 31.9812 8.89825C32.3504 8.40648 32.8559 8.10147 33.4219 7.89411C34.4073 7.53313 35.4193 7.48147 36.4386 7.71106C37.5314 7.95727 38.1888 8.72932 38.338 9.91945C38.3837 10.2844 38.4067 10.6541 38.4102 11.0219C38.4199 12.0341 38.4256 13.0467 38.4083 14.0587C38.4002 14.533 38.5597 14.8562 39.0113 15.0517C39.3796 15.2111 39.4169 15.5914 39.122 15.8561C38.4058 16.4992 36.9674 16.1103 36.6975 15.1938C36.6457 15.0179 36.6467 14.8265 36.6145 14.572Z" fill="black"/>
<path d="M25.4007 11.0183C25.4195 11.0239 25.4392 11.035 25.4589 11.035C26.5412 11.0365 27.6236 11.0356 28.7059 11.0395C28.8445 11.04 28.8771 10.9618 28.8733 10.8537C28.8618 10.5253 28.8787 10.191 28.8226 9.86985C28.62 8.71176 27.5129 8.17383 26.52 8.72396C25.7829 9.13236 25.3698 10.2307 25.4007 11.0183ZM25.4 11.7686C25.4408 12.3776 25.6183 12.9071 25.9243 13.397C26.7255 14.6793 28.6545 15.0545 29.8279 13.8605C29.9017 13.7854 29.9774 13.712 30.0558 13.6417C30.2459 13.4712 30.4622 13.4263 30.6104 13.5231C30.7588 13.6202 30.8197 13.8387 30.7092 14.0768C30.5833 14.348 30.4419 14.6213 30.2572 14.8541C29.765 15.4742 29.0986 15.8301 28.3261 15.9608C27.3873 16.1196 26.4725 16.0016 25.6136 15.5823C24.6097 15.0921 23.9622 14.2922 23.6725 13.2183C23.3695 12.0952 23.4463 10.992 23.946 9.9359C24.6353 8.47895 26.1271 7.62952 27.7377 7.74293C28.4391 7.7923 29.1014 7.94859 29.6646 8.39034C30.506 9.05039 30.7964 9.95508 30.7476 10.9798C30.7219 11.5207 30.4149 11.7619 29.8241 11.7649C28.4391 11.7721 27.054 11.768 25.669 11.7686C25.5868 11.7686 25.5046 11.7686 25.4 11.7686Z" fill="black"/>
<path d="M40.7888 8.72335C40.5545 8.72335 40.3446 8.72886 40.1351 8.72199C39.8515 8.71278 39.679 8.54602 39.6679 8.28313C39.6568 8.01856 39.8114 7.84613 40.1085 7.82471C40.3308 7.80869 40.5553 7.82155 40.8118 7.82155C40.8118 7.67436 40.8125 7.54733 40.8116 7.42025C40.8077 6.81883 40.826 6.22057 41.0196 5.64161C41.3887 4.53698 42.2489 3.8864 43.4175 3.83044C43.9023 3.80722 44.3761 3.85665 44.8132 4.08041C45.4792 4.42139 45.8614 4.96226 45.88 5.71834C45.895 6.32918 45.3935 6.70542 44.7988 6.56363C44.4381 6.47763 44.3107 6.20711 44.2426 5.88864C44.2034 5.70521 44.1895 5.516 44.1451 5.33409C44.0007 4.74237 43.5178 4.51676 42.9611 4.77736C42.5498 4.96989 42.3615 5.33044 42.2639 5.74526C42.1042 6.42357 42.2127 7.08144 42.456 7.7215C42.4743 7.76967 42.5767 7.81158 42.6407 7.81273C43.1045 7.82096 43.5685 7.81142 44.0322 7.82068C44.3736 7.82749 44.5363 7.9779 44.5385 8.25845C44.5409 8.54978 44.3794 8.71343 44.0563 8.72063C43.6507 8.72967 43.2446 8.72368 42.8388 8.72499C42.7897 8.7251 42.7405 8.73 42.6768 8.73343C42.6721 8.81572 42.6647 8.8857 42.6647 8.95567C42.6641 10.7127 42.6691 12.4696 42.6598 14.2266C42.6581 14.5522 42.7779 14.7801 43.0487 14.9465C43.1779 15.0259 43.3089 15.1076 43.4212 15.2081C43.666 15.427 43.5949 15.7553 43.2804 15.8485C43.1369 15.891 42.9815 15.9097 42.8312 15.9109C42.0992 15.9171 41.3671 15.9172 40.6351 15.9111C40.4849 15.9098 40.3294 15.8912 40.186 15.8484C39.8556 15.7498 39.787 15.4219 40.0493 15.1976C40.186 15.0807 40.3454 14.9903 40.4938 14.8869C40.6985 14.7444 40.8016 14.552 40.8013 14.2989C40.7994 12.4914 40.8004 10.6838 40.8 8.87621C40.8 8.83436 40.794 8.79245 40.7888 8.72335Z" fill="black"/>
<path d="M20.75 9.0902C20.8052 8.99243 20.8588 8.89363 20.916 8.79701C21.1834 8.34589 21.5293 7.97532 22.0105 7.74557C22.356 7.58055 22.7171 7.53303 23.0893 7.62497C23.5922 7.74905 23.8589 8.12954 23.8229 8.6539C23.7842 9.21695 23.455 9.58883 22.9346 9.63178C22.7567 9.64649 22.5748 9.61832 22.3953 9.60382C22.1864 9.58693 21.9782 9.54807 21.7695 9.54638C21.4173 9.5436 21.1327 9.70802 21.0174 10.0342C20.9014 10.3627 20.8072 10.7167 20.7983 11.0619C20.7702 12.1527 20.7878 13.2446 20.7848 14.3361C20.7841 14.5759 20.896 14.7494 21.0826 14.8834C21.2294 14.9888 21.4012 15.0695 21.5216 15.1985C21.6091 15.292 21.6891 15.4592 21.6651 15.5706C21.6414 15.6814 21.497 15.7886 21.3806 15.8505C21.2785 15.9048 21.1419 15.9091 21.0204 15.9098C20.2451 15.9147 19.4698 15.9156 18.6946 15.9096C18.5591 15.9086 18.4187 15.8847 18.2899 15.843C17.9857 15.7445 17.9168 15.4292 18.1535 15.2144C18.2703 15.1083 18.4086 15.0244 18.5429 14.9395C18.8031 14.7749 18.925 14.554 18.923 14.2365C18.9135 12.7764 18.9136 11.3162 18.9228 9.85608C18.9249 9.53374 18.8058 9.32121 18.5143 9.18584C18.3645 9.1163 18.2192 9.02785 18.0906 8.92464C17.8617 8.74099 17.8549 8.49794 18.0888 8.32208C18.6504 7.8999 19.2885 7.64791 19.9901 7.60088C20.458 7.56954 20.6397 7.74605 20.6739 8.2133C20.6947 8.49881 20.6777 8.78698 20.6777 9.07396L20.75 9.0902Z" fill="black"/>
<path d="M15.6094 13.7982C15.1712 13.1683 14.6938 12.5562 14.2896 11.904C14.2461 11.8338 14.2799 11.7545 14.3404 11.7105C15.1394 11.1304 16.0029 10.5805 16.353 9.59992C16.4934 9.20657 16.5598 8.71927 16.3769 8.32919C16.2043 7.96085 15.7842 7.68989 15.3815 7.66472C14.3957 7.60303 14.1701 8.61229 13.8572 9.31791C13.54 10.0337 13.0757 10.6764 12.4857 11.1916C12.2337 11.4114 11.9788 11.6275 11.7252 11.8454C11.6349 11.9231 11.4839 11.8748 11.4837 11.7455C11.4826 11.2581 11.4817 10.7708 11.4806 10.2835C11.4786 9.3088 11.4768 8.33415 11.4747 7.35954C11.4735 6.87218 11.4724 6.38483 11.4713 5.89758C11.47 5.42085 11.535 4.88575 11.4389 4.41627C11.3423 3.94406 10.8324 4.03611 10.4643 4.10548C10.0309 4.18712 9.59379 4.36875 9.19913 4.56167C9.03401 4.64243 8.79979 4.76968 8.98207 4.96199C9.05548 5.03943 9.1642 5.09573 9.25346 5.15382C9.33744 5.20859 9.38033 5.22608 9.4024 5.3239C9.40818 5.34919 9.40284 5.38085 9.40376 5.40652C9.44992 6.80265 9.44573 8.20226 9.46692 9.59894C9.49172 11.2411 9.51646 12.8833 9.5412 14.5254C9.54322 14.6692 9.5642 14.8274 9.54785 14.9708C9.53788 15.0587 9.51466 15.0923 9.43821 15.1497C9.29412 15.258 8.8387 15.4679 9.02829 15.6992C9.15668 15.856 9.45875 15.8425 9.63777 15.8434C10.1176 15.8458 10.5971 15.8466 11.0768 15.8459C11.3317 15.8455 12.4596 15.9783 12.3447 15.5095C12.2907 15.2891 11.9876 15.1829 11.8236 15.0576C11.7155 14.9751 11.6234 14.8771 11.5635 14.7535C11.4068 14.4296 11.4817 13.977 11.4835 13.6303C11.4855 13.2659 11.4448 12.9801 11.822 12.8291C12.0238 12.7483 12.2285 12.6741 12.4342 12.6039C12.567 12.5586 12.7102 12.488 12.8536 12.5261C12.988 12.5619 13.0415 12.6646 13.1144 12.7751C13.2455 12.9737 13.3762 13.1725 13.506 13.3718C13.7498 13.7458 14.0782 14.1398 14.2494 14.5517C14.3705 14.8434 14.2275 15.047 14.0293 15.2462C13.8269 15.4498 13.8788 15.7309 14.163 15.8173C14.3752 15.8818 14.6291 15.8486 14.8492 15.8489C15.3296 15.8493 15.8102 15.8497 16.2907 15.8479C16.5172 15.8471 16.8361 15.8956 17.0094 15.7211C17.1959 15.5332 17.0673 15.2918 16.8721 15.1882C16.2882 14.8951 15.9694 14.3157 15.6094 13.7982Z" fill="black"/>
<path d="M14.4876 11.9517C14.4867 11.9504 14.4859 11.9491 14.4849 11.9477C14.4845 11.9501 14.4839 11.9524 14.4832 11.9548C14.4847 11.9537 14.4861 11.9527 14.4876 11.9517Z" fill="white"/>
</g>
</svg>
