<svg width="76" height="20" viewBox="0 0 76 20" fill="none" xmlns="http://www.w3.org/2000/svg">
<g clip-path="url(#clip0_30_1101)">
<path d="M2.1306 9.70422C1.2557 9.52922 0.405741 10.1001 0.231178 10.9751C0.056614 11.8521 0.626024 12.7042 1.49884 12.8792C2.37374 13.0542 3.2237 12.4834 3.39826 11.6084C3.57282 10.7313 3.00341 9.87922 2.1306 9.70422Z" fill="#E89C2E"/>
<path d="M11.6318 11.6001C10.1751 11.3084 8.75778 12.2584 8.46684 13.7188C8.17797 15.1792 9.12353 16.6001 10.5803 16.8917C12.0371 17.1813 13.4544 16.2334 13.7453 14.773C14.0362 13.3126 13.0886 11.8917 11.6318 11.6001Z" fill="#E89C2E"/>
<path d="M14.4706 0.062529C12.7208 -0.287471 11.0209 0.850029 10.6697 2.6042L10.358 4.1917C10.1273 5.36253 8.99054 6.12295 7.82263 5.8917L6.76694 5.67503C5.60526 5.44378 4.84466 4.31045 5.07741 3.13961L5.13144 2.87503C5.33094 1.8542 4.66802 0.856279 3.65181 0.656279C2.62936 0.452112 1.63809 1.11461 1.43443 2.13961C1.23078 3.16045 1.89786 4.15211 2.91407 4.35836L3.17799 4.41253C4.34591 4.64378 5.10443 5.78336 4.86752 6.94795L4.76569 7.47711C4.53502 8.64795 5.29354 9.78753 6.45521 10.0188C7.62313 10.25 8.75987 9.48961 8.99054 8.31878L9.09237 7.78961C9.32305 6.62295 10.4598 5.86253 11.6215 6.09586L13.2092 6.41461C14.959 6.76045 16.6589 5.62086 17.0038 3.8667C17.353 2.11253 16.2183 0.408362 14.4685 0.062529H14.4706Z" fill="#E89C2E"/>
<path d="M21.4885 7.42087C21.0583 7.42087 20.7092 7.56045 20.4452 7.8417C20.1813 8.12295 20.0255 8.5292 19.9797 9.06462H22.8891C22.885 8.7417 22.833 8.45629 22.7312 8.21045C22.6294 7.96254 22.4777 7.77087 22.274 7.63129C22.0703 7.4917 21.8085 7.42295 21.4885 7.42295V7.42087ZM21.4905 6.47504C22.0371 6.47504 22.5068 6.58962 22.8974 6.81879C23.2881 7.04795 23.5895 7.37295 23.7994 7.7917C24.0093 8.21045 24.1132 8.71045 24.1132 9.28754V9.96879H19.9527C19.9652 10.5959 20.1314 11.0771 20.4473 11.4146C20.7632 11.7521 21.2079 11.9209 21.7794 11.9209C22.1743 11.9209 22.5275 11.8834 22.8393 11.8063C23.151 11.7313 23.4731 11.6188 23.8077 11.4709V12.4938C23.498 12.6375 23.1842 12.7438 22.8663 12.8105C22.5483 12.8771 22.168 12.9105 21.7275 12.9105C21.1227 12.9105 20.5928 12.7917 20.1356 12.5521C19.6784 12.3146 19.323 11.9584 19.0674 11.4875C18.8118 11.0167 18.683 10.4334 18.683 9.73754C18.683 9.0417 18.7994 8.45837 19.0321 7.97295C19.2649 7.48754 19.5911 7.1167 20.013 6.86045C20.4349 6.6042 20.9274 6.47712 21.4926 6.47712L21.4905 6.47504Z" fill="#29283E"/>
<path d="M32.0163 12.9084C31.4365 12.9084 30.9336 12.7938 30.5055 12.5667C30.0774 12.3375 29.747 11.9875 29.5142 11.5167C29.2815 11.0459 29.1651 10.448 29.1651 9.72504C29.1651 9.00212 29.2919 8.35629 29.5433 7.87712C29.7948 7.39795 30.146 7.04587 30.5928 6.8167C31.0396 6.58754 31.5529 6.47504 32.1306 6.47504C32.486 6.47504 32.8143 6.51045 33.1115 6.58129C33.4087 6.65212 33.6601 6.73962 33.8658 6.8417L33.4959 7.8417C33.2757 7.75212 33.045 7.67712 32.806 7.61254C32.567 7.55004 32.3363 7.5167 32.1181 7.5167C31.742 7.5167 31.4303 7.60004 31.183 7.7667C30.9357 7.93337 30.7486 8.1792 30.626 8.5042C30.5034 8.8292 30.4411 9.23337 30.4411 9.71462C30.4411 10.1959 30.5034 10.573 30.626 10.8938C30.7486 11.2146 30.9315 11.4563 31.1747 11.6209C31.4157 11.7855 31.7171 11.8667 32.0724 11.8667C32.4091 11.8667 32.7104 11.8271 32.9785 11.748C33.2466 11.6688 33.4959 11.5667 33.7287 11.4417V12.5271C33.5001 12.6563 33.2549 12.7521 32.9889 12.8146C32.7229 12.8771 32.3987 12.9105 32.0163 12.9105V12.9084Z" fill="#29283E"/>
<path d="M36.1747 9.67915C36.1747 10.1417 36.2328 10.5375 36.3471 10.8667C36.4614 11.1958 36.6381 11.45 36.8791 11.625C37.1181 11.8 37.4278 11.8875 37.8081 11.8875C38.1884 11.8875 38.4939 11.8 38.7328 11.625C38.9739 11.45 39.1506 11.1958 39.2628 10.8667C39.375 10.5354 39.4311 10.1396 39.4311 9.67915C39.4311 9.21873 39.375 8.82707 39.2628 8.50207C39.1506 8.17707 38.9739 7.92915 38.7349 7.75832C38.4959 7.58748 38.1842 7.49998 37.7998 7.49998C37.2366 7.49998 36.8251 7.68957 36.5653 8.06665C36.3056 8.44373 36.1747 8.98332 36.1747 9.67915ZM40.7092 9.67915C40.7092 10.1937 40.6427 10.65 40.5076 11.05C40.3746 11.45 40.1792 11.7875 39.9236 12.0625C39.668 12.3375 39.3604 12.5479 39.0009 12.6917C38.6414 12.8354 38.2362 12.9083 37.7831 12.9083C37.3613 12.9083 36.9727 12.8354 36.6194 12.6917C36.2661 12.5479 35.9627 12.3375 35.705 12.0625C35.4473 11.7875 35.2478 11.45 35.1086 11.05C34.9673 10.65 34.8987 10.1937 34.8987 9.67915C34.8987 8.9979 35.0151 8.41665 35.252 7.93957C35.4868 7.46248 35.8235 7.0979 36.2599 6.8479C36.6963 6.5979 37.2179 6.4729 37.8226 6.4729C38.392 6.4729 38.8949 6.5979 39.3293 6.84998C39.7636 7.09998 40.1023 7.46457 40.3455 7.94373C40.5886 8.42082 40.7112 8.99998 40.7112 9.67915H40.7092Z" fill="#29283E"/>
<path d="M45.4826 6.4729C46.1871 6.4729 46.7337 6.65415 47.1202 7.01457C47.5067 7.37498 47.7021 7.95415 47.7021 8.74998V12.7958H46.4656V8.95832C46.4656 8.47082 46.3638 8.10415 46.158 7.8604C45.9523 7.61665 45.6364 7.49373 45.2083 7.49373C44.5911 7.49373 44.163 7.68123 43.9199 8.05415C43.6767 8.42707 43.5562 8.96873 43.5562 9.67915V12.7958H42.3156V6.58957H43.286L43.4627 7.44373H43.5313C43.6643 7.22707 43.8305 7.04582 44.0321 6.90415C44.2337 6.7604 44.4581 6.65415 44.7054 6.58332C44.9548 6.5104 45.2125 6.47498 45.4826 6.47498V6.4729Z" fill="#29283E"/>
<path d="M50.5471 9.67915C50.5471 10.1417 50.6053 10.5375 50.7196 10.8667C50.8339 11.1958 51.0105 11.45 51.2516 11.625C51.4906 11.8 51.8002 11.8875 52.1805 11.8875C52.5608 11.8875 52.8663 11.8 53.1053 11.625C53.3463 11.45 53.523 11.1958 53.6352 10.8667C53.7474 10.5354 53.8035 10.1396 53.8035 9.67915C53.8035 9.21873 53.7474 8.82707 53.6352 8.50207C53.523 8.17707 53.3463 7.92915 53.1074 7.75832C52.8684 7.58748 52.5567 7.49998 52.1722 7.49998C51.609 7.49998 51.1975 7.68957 50.9378 8.06665C50.678 8.44373 50.5471 8.98332 50.5471 9.67915ZM55.0816 9.67915C55.0816 10.1937 55.0151 10.65 54.88 11.05C54.747 11.45 54.5517 11.7875 54.2961 12.0625C54.0404 12.3375 53.7329 12.5479 53.3734 12.6917C53.0138 12.8354 52.6086 12.9083 52.1556 12.9083C51.7337 12.9083 51.3451 12.8354 50.9918 12.6917C50.6385 12.5479 50.3351 12.3375 50.0774 12.0625C49.8197 11.7875 49.6202 11.45 49.481 11.05C49.3397 10.65 49.2711 10.1937 49.2711 9.67915C49.2711 8.9979 49.3875 8.41665 49.6244 7.93957C49.8592 7.46248 50.1959 7.0979 50.6323 6.8479C51.0687 6.5979 51.5903 6.4729 52.1951 6.4729C52.7645 6.4729 53.2674 6.5979 53.7017 6.84998C54.136 7.09998 54.4748 7.46457 54.7179 7.94373C54.9611 8.42082 55.0837 8.99998 55.0837 9.67915H55.0816Z" fill="#29283E"/>
<path d="M63.629 6.47292C64.3189 6.47292 64.8405 6.65208 65.1917 7.01042C65.5429 7.36875 65.7196 7.94375 65.7196 8.73542V12.7938H64.4831V8.93333C64.4831 8.45625 64.3875 8.09583 64.1984 7.85417C64.0093 7.6125 63.7225 7.49167 63.3401 7.49167C62.8019 7.49167 62.4153 7.66042 62.1784 7.99583C61.9415 8.33333 61.8231 8.82292 61.8231 9.46667V12.7917H60.5845V8.93125C60.5845 8.6125 60.5429 8.34583 60.4577 8.13333C60.3746 7.92083 60.2478 7.76042 60.0774 7.65208C59.9091 7.54583 59.6951 7.49167 59.4374 7.49167C59.0654 7.49167 58.7703 7.575 58.55 7.73958C58.3297 7.90417 58.1697 8.15 58.0741 8.47083C57.9764 8.79375 57.9286 9.1875 57.9286 9.65417V12.7917H56.688V6.58542H57.6585L57.8351 7.42917H57.9037C58.0284 7.21458 58.1863 7.03542 58.3754 6.89375C58.5645 6.75208 58.7744 6.64583 59.0051 6.575C59.2358 6.50417 59.4789 6.46875 59.7325 6.46875C60.1959 6.46875 60.5866 6.55208 60.9025 6.71667C61.2204 6.88125 61.4552 7.13333 61.609 7.47083H61.6984C61.8937 7.12917 62.166 6.87708 62.513 6.71458C62.8621 6.55208 63.232 6.46875 63.6269 6.46875L63.629 6.47292Z" fill="#29283E"/>
<path d="M68.8846 6.5896V12.7958H67.6439V6.5896H68.8846Z" fill="#29283E"/>
<path d="M73.3505 12.9084C72.7707 12.9084 72.2678 12.7938 71.8397 12.5667C71.4116 12.3375 71.0811 11.9875 70.8484 11.5167C70.6156 11.0459 70.4993 10.448 70.4993 9.72504C70.4993 9.00212 70.626 8.35629 70.8775 7.87712C71.1289 7.39795 71.4801 7.04587 71.9269 6.8167C72.3737 6.58754 72.887 6.47504 73.4648 6.47504C73.8201 6.47504 74.1485 6.51045 74.4456 6.58129C74.7428 6.65212 74.9943 6.73962 75.2 6.8417L74.8301 7.8417C74.6098 7.75212 74.3791 7.67712 74.1402 7.61254C73.9012 7.55004 73.6705 7.5167 73.4523 7.5167C73.0762 7.5167 72.7644 7.60004 72.5171 7.7667C72.2698 7.93337 72.0828 8.1792 71.9602 8.5042C71.8376 8.8292 71.7752 9.23337 71.7752 9.71462C71.7752 10.1959 71.8376 10.573 71.9602 10.8938C72.0828 11.2146 72.2657 11.4563 72.5088 11.6209C72.7499 11.7855 73.0512 11.8667 73.4066 11.8667C73.7432 11.8667 74.0446 11.8271 74.3127 11.748C74.5807 11.6688 74.8301 11.5667 75.0629 11.4417V12.5271C74.8343 12.6563 74.589 12.7521 74.323 12.8146C74.057 12.8771 73.7329 12.9105 73.3505 12.9105V12.9084Z" fill="#29283E"/>
<path d="M68.2653 5.66876C68.6739 5.66876 69.0051 5.3367 69.0051 4.92709C69.0051 4.51748 68.6739 4.18542 68.2653 4.18542C67.8567 4.18542 67.5255 4.51748 67.5255 4.92709C67.5255 5.3367 67.8567 5.66876 68.2653 5.66876Z" fill="#29283E"/>
<path d="M26.6235 10.5021C27.07 10.5021 27.4319 10.1393 27.4319 9.6917C27.4319 9.24412 27.07 8.88129 26.6235 8.88129C26.1771 8.88129 25.8151 9.24412 25.8151 9.6917C25.8151 10.1393 26.1771 10.5021 26.6235 10.5021Z" fill="#29283E"/>
<path d="M54.6805 15.9896C54.3272 15.9896 54.0591 16.1229 53.8783 16.3917H53.8534C53.8575 16.3562 53.8617 16.2729 53.8679 16.1417C53.8742 16.0104 53.8783 15.9104 53.8783 15.8437V14.9417H53.3068V18.7333H53.7349L53.8388 18.4146H53.8783C54.0674 18.6604 54.3313 18.7833 54.6701 18.7833C55.0088 18.7833 55.2707 18.6604 55.4598 18.4146C55.6489 18.1687 55.7445 17.825 55.7445 17.3833C55.7445 16.9417 55.651 16.6021 55.4639 16.3583C55.2769 16.1146 55.0151 15.9937 54.6805 15.9937V15.9896ZM55.0026 18.0729C54.8987 18.2333 54.7449 18.3146 54.5412 18.3146C54.3064 18.3146 54.1381 18.2416 54.0342 18.0937C53.9303 17.9458 53.8783 17.7083 53.8783 17.3812V17.3416C53.8825 17.0229 53.9344 16.7958 54.0342 16.6604C54.1339 16.525 54.3002 16.4562 54.5308 16.4562C54.9486 16.4562 55.1584 16.7625 55.1584 17.375C55.1584 17.6792 55.1065 17.9104 55.0026 18.0729ZM58.0512 16.0375H58.6684L57.5192 19.0917C57.3093 19.6521 56.9623 19.9333 56.4739 19.9333C56.3471 19.9333 56.2245 19.9187 56.104 19.8917V19.4375C56.1892 19.4562 56.2869 19.4667 56.397 19.4667C56.6734 19.4667 56.8667 19.3062 56.9789 18.9875L57.0786 18.7333L56.0001 16.0375H56.6215L57.168 17.5646C57.2511 17.7833 57.3052 17.9875 57.3343 18.1792H57.353C57.3675 18.0896 57.3945 17.9812 57.434 17.8541C57.4735 17.7271 57.6792 17.1208 58.0512 16.0375ZM62.4548 15.1708H63.0574L61.8126 18.7333H61.1996L59.9589 15.1708H60.5574L61.2993 17.3854C61.3388 17.4916 61.3804 17.6271 61.424 17.7937C61.4677 17.9604 61.4968 18.0833 61.5092 18.1646C61.53 18.0417 61.5633 17.8979 61.6069 17.7354C61.6505 17.5729 61.6859 17.4521 61.7129 17.375L62.4548 15.1687V15.1708ZM63.5271 15.1708H64.109V18.7333H63.5271V15.1708ZM67.0101 17.3479C67.0662 17.4666 67.0953 17.6062 67.0953 17.7666C67.0953 18.0833 66.981 18.3312 66.7524 18.5125C66.5238 18.6937 66.2079 18.7833 65.8068 18.7833C65.4057 18.7833 65.0753 18.7208 64.8197 18.5958V18.0458C64.9818 18.1229 65.1543 18.1833 65.3372 18.2271C65.52 18.2708 65.6884 18.2937 65.8463 18.2937C66.077 18.2937 66.2453 18.25 66.3555 18.1625C66.4656 18.075 66.5196 17.9562 66.5196 17.8083C66.5196 17.675 66.4697 17.5625 66.3679 17.4687C66.2661 17.375 66.0604 17.2666 65.7466 17.1396C65.4224 17.0083 65.1938 16.8583 65.0608 16.6896C64.9278 16.5208 64.8613 16.3167 64.8613 16.0812C64.8613 15.7833 64.9673 15.55 65.1772 15.3792C65.387 15.2083 65.6697 15.1229 66.025 15.1229C66.3804 15.1229 66.7046 15.1979 67.0412 15.3479L66.8563 15.8229C66.5404 15.6896 66.2578 15.6229 66.0105 15.6229C65.8234 15.6229 65.6801 15.6646 65.5824 15.7458C65.4847 15.8271 65.4369 15.9354 65.4369 16.0708C65.4369 16.1625 65.4556 16.2416 65.4951 16.3083C65.5346 16.375 65.5969 16.4354 65.6863 16.4937C65.7757 16.5521 65.9357 16.6291 66.1684 16.725C66.4303 16.8333 66.6215 16.9354 66.742 17.0291C66.8625 17.1229 66.9519 17.2291 67.0101 17.3479ZM70.6198 15.1708H71.4407V18.7333H70.8816V16.9708C70.8816 16.7937 70.8858 16.5625 70.8941 16.2792C70.9024 15.9958 70.9107 15.8229 70.917 15.7625H70.8983L69.8301 18.7333H69.3168L68.286 15.7583H68.2673C68.2944 16.2 68.3089 16.6146 68.3089 17.0021V18.7354H67.7811V15.1729H68.5998L69.587 18.0062H69.6015L70.6177 15.1729L70.6198 15.1708ZM73.87 15.1562H73.2382L71.9082 18.7333H72.5213L72.8683 17.7437H74.2274L74.5828 18.7333H75.2L73.87 15.1562ZM73.0387 17.2417L73.3588 16.3125C73.444 16.075 73.5063 15.8562 73.55 15.6562C73.5666 15.7208 73.5957 15.8229 73.6393 15.9625C73.683 16.1021 73.7162 16.2041 73.7391 16.2687L74.0716 17.2396H73.0367L73.0387 17.2417Z" fill="#29283E"/>
</g>
<defs>
<clipPath id="clip0_30_1101">
<rect width="75" height="20" fill="white" transform="translate(0.200012)"/>
</clipPath>
</defs>
</svg>
