<svg width="211" height="346" viewBox="0 0 211 346" fill="none" xmlns="http://www.w3.org/2000/svg">
<path d="M103.63 2.78345C104.157 1.10148 105.949 0.16536 107.631 0.692627C109.313 1.22006 110.249 3.01163 109.722 4.6936C85.3643 82.3957 34.6103 244.516 26.4033 271.55C18.2111 298.536 9.73061 330.608 6.5166 343.263C6.08265 344.971 4.34617 346.004 2.6377 345.571C0.929723 345.136 -0.103278 343.401 0.330078 341.693C3.55677 328.988 12.0644 296.812 20.2959 269.697C28.5134 242.627 79.2798 80.4624 103.63 2.78345ZM205.496 1.19849C206.898 0.130167 208.901 0.400842 209.97 1.80298C211.038 3.20513 210.767 5.20738 209.365 6.27563C205.1 9.52539 195.862 16.8011 192.178 20.4856C187.203 25.4606 156.046 54.212 134.468 81.7844C112.586 109.745 83.8088 144.51 73.6416 160.06C71.1991 163.795 69.1751 167.819 67.8779 171.649C66.5673 175.519 66.0713 178.973 66.4336 181.661C66.7802 184.232 67.8698 185.967 69.7852 187.016C71.8696 188.157 75.4503 188.772 81.3008 187.773C94.0037 185.604 106.5 185.606 116.996 187.17C127.352 188.714 136.258 191.854 141.328 196.39C147.941 202.307 150.679 211.138 150.92 219.966C151.161 228.82 148.919 238.112 145.049 245.531C141.395 252.534 137.208 260.308 133.746 267.156C132.02 270.57 130.503 273.7 129.349 276.33C128.164 279.029 127.462 280.979 127.234 282.117C126.888 283.846 125.207 284.966 123.479 284.62C121.75 284.275 120.629 282.594 120.975 280.865C121.351 278.985 122.311 276.481 123.504 273.765C124.727 270.98 126.304 267.731 128.05 264.277C131.532 257.389 135.798 249.463 139.39 242.578C142.765 236.109 144.749 227.891 144.538 220.14C144.326 212.364 141.931 205.495 137.071 201.147C133.404 197.866 126.007 194.967 116.056 193.484C106.244 192.021 94.4278 192.007 82.375 194.065C75.8479 195.179 70.597 194.738 66.7188 192.615C62.6719 190.399 60.6666 186.661 60.1074 182.515C59.5642 178.486 60.3512 173.976 61.833 169.601C63.3284 165.185 65.6072 160.679 68.2969 156.566C78.6598 140.717 107.849 105.44 129.441 77.8499C151.336 49.8732 182.974 20.6605 187.663 15.9719C191.707 11.9278 201.308 4.3897 205.496 1.19849Z" fill="#272727"/>
</svg>
