<svg width="125" height="20" viewBox="0 0 125 20" fill="none" xmlns="http://www.w3.org/2000/svg">
<g clip-path="url(#clip0_30_1281)">
<path fill-rule="evenodd" clip-rule="evenodd" d="M0.5 14.7913L0.529851 0.179288C0.529851 0.0298815 0.679104 0 0.679104 0H7.90298C8.05224 0 8.08209 0.149407 8.08209 0.149407L12.9776 9.29309C13.0373 9.38273 13.1568 9.41264 13.2463 9.38273C13.3358 9.35291 13.3656 9.20345 13.3656 9.20345L13.1268 0.20917C13.1268 0.0896443 13.1568 0.0298815 13.2463 0.0298815H18.1716C18.3806 0 18.4104 0.149407 18.4104 0.149407V14.7315C18.4104 14.7315 18.3806 14.9407 18.2015 14.9407H11.2462C11.097 14.9407 10.9477 14.9407 10.7985 14.7016L5.96268 5.52806C5.78358 5.28901 5.54478 5.4683 5.54478 5.73724L5.81343 14.7315C5.84328 14.8511 5.72387 14.9407 5.60448 14.9407H0.679104C0.589552 14.9407 0.5 14.8511 0.5 14.7913ZM28.7379 9.77127L25.723 3.91455C25.6932 3.8548 25.6334 3.76515 25.5439 3.73527H20.529C20.4977 3.73527 20.4645 3.73425 20.4305 3.73321C20.2052 3.72628 19.9515 3.71849 20.0812 4.0042L25.8722 14.3731C26.2305 15.0305 26.0215 15.6281 25.1259 15.6281H22.0215C21.9021 15.6281 21.8424 15.6878 21.8126 15.8074V19.0345C21.8126 19.2138 21.9917 19.2138 21.9917 19.2138H26.5887C27.6931 19.184 29.2454 18.7058 30.0215 17.3015L37.2454 3.88468C37.3051 3.70539 37.1259 3.70539 37.1259 3.70539H31.8126C31.723 3.70539 31.5738 3.76515 31.514 3.8548L29.0066 9.74145C29.0364 9.77127 28.8872 10.0701 28.7379 9.77127ZM44.8579 7.82894L47.9624 3.88459C48.1116 3.73518 48.3802 3.7053 48.3802 3.7053H54.1116C54.4996 3.7053 54.2012 4.00411 54.2012 4.00411L50.4101 8.03811C50.3505 8.12774 50.3505 8.18751 50.4101 8.24727L55.6639 14.7016C55.8429 14.8511 55.6937 14.9407 55.634 14.9407H49.0072C48.8261 14.9407 48.7652 14.8377 48.7202 14.7618C48.7059 14.7375 48.6932 14.7161 48.6787 14.7016L45.5146 10.07C45.3654 9.86091 45.1862 9.74136 44.7385 9.77127C44.5594 9.77127 44.5594 10.0103 44.5594 10.0103V14.7315C44.5594 14.7315 44.5594 14.9407 44.3504 14.9407H38.8878C38.7683 14.9407 38.7086 14.8212 38.7086 14.7315V0.149407C38.7086 0.0597628 38.7086 0 38.8878 0H44.4101C44.4101 0 44.5594 0 44.5594 0.149407V7.67953C44.5594 7.85882 44.6489 8.00823 44.8579 7.82894ZM63.1859 14.7615V7.73938L63.191 7.73406L63.1951 7.72936L63.1992 7.7245L63.2067 7.71538C63.2322 7.68414 63.2658 7.64302 63.3352 7.61985L66.5591 6.03614C66.6784 5.97638 66.6784 5.82697 66.6784 5.82697V3.8548C66.6784 3.76515 66.5591 3.70539 66.5591 3.70539H57.574C57.4546 3.70539 57.4248 3.88468 57.4248 3.88468V14.7615C57.4248 14.7615 57.4845 14.9109 57.6038 14.9109H63.0367C63.1859 14.9408 63.2158 14.7615 63.1859 14.7615ZM74.1706 10.13C74.0213 10.13 73.9616 10.1898 73.9616 10.3093H73.9317V11.0265C73.9317 11.6241 74.081 12.0125 74.3795 12.1918C75.1257 12.6401 76.9466 12.5803 77.6929 12.3413C78.1705 12.1619 78.2899 11.8631 78.2899 11.4149C78.2899 11.3552 78.3795 11.2655 78.4989 11.2655H83.9318C84.081 11.2655 84.1108 11.4149 84.1108 11.5345C84.1052 11.5785 84.0998 11.6245 84.0942 11.6723C83.952 12.8861 83.6798 15.2098 75.7526 15.2098C69.1855 15.2098 68.081 12.9986 68.081 11.3253V7.20163C68.081 5.55815 69.1258 3.25728 75.7526 3.25728C80.6481 3.25728 82.7079 4.06408 83.6332 5.28922C84.1407 5.97649 84.2004 6.69365 84.2004 6.69365V9.92082C84.2004 10.0105 84.1407 10.13 84.0213 10.13H74.1706ZM73.9627 6.90267C73.9925 6.63374 74.0522 6.33493 74.2313 6.18552C74.8283 5.67754 77.6045 5.67754 78.2313 6.09587C78.5298 6.33493 78.5596 6.60385 78.5895 6.90267V7.70947C78.5895 7.79911 78.5596 7.91864 78.4104 7.91864H74.0821C74.0223 7.91864 73.9328 7.85887 73.9328 7.73935V6.90267H73.9627ZM118.829 14.9111C116.739 14.9111 115.366 13.8354 115.366 11.7137H115.336V1.13574C115.366 1.01621 115.515 0.986327 115.515 0.986327H120.888C121.037 0.986327 121.067 1.13574 121.067 1.13574V3.49636C121.067 3.58601 121.097 3.67565 121.217 3.70554H124.291C124.413 3.70554 124.435 3.76533 124.456 3.8198C124.461 3.83183 124.465 3.84415 124.471 3.85495V5.64783C124.464 5.65381 124.46 5.66098 124.453 5.66959C124.431 5.70401 124.392 5.76138 124.202 5.857L121.187 7.35107C121.187 7.35107 121.067 7.4706 121.067 7.62V10.9667C121.067 11.5644 121.515 11.8632 122.023 11.8632H124.351C124.471 11.8632 124.5 11.9229 124.5 12.0425V14.7019C124.5 14.8215 124.441 14.9111 124.321 14.9111H118.829ZM102.053 0H96.7404C96.7404 0 96.5316 0.0298814 96.5316 0.20917V3.43636C94.0233 3.13755 90.2327 2.8985 87.8446 4.78103C86.8595 5.55794 86.7401 7.05201 86.7401 7.91857V10.6975C86.7401 11.7434 86.979 12.4905 87.1879 12.8789C88.0536 14.1936 89.2177 14.5224 90.6207 14.8511C92.6311 15.3084 94.7108 15.1358 95.9919 15.0295C96.3839 14.9969 96.7021 14.9705 96.9191 14.9705H102.024C102.024 14.9705 102.173 14.9108 102.173 14.7913V0.149407C102.173 0.149407 102.173 0 102.053 0ZM94.947 12.3114C95.753 12.3114 96.5891 11.9527 96.5891 11.0862V7.47054C96.5891 6.60397 95.753 6.18564 94.947 6.18564H94.3507C93.5447 6.18564 92.7086 6.60397 92.7086 7.47054C92.7086 7.47054 92.6484 9.05425 92.6484 9.23355C92.6484 9.41282 92.7086 11.0862 92.7086 11.0862C92.7086 11.9229 93.5447 12.3114 94.3507 12.3114H94.947ZM111.962 4.51222C111.962 4.42257 111.903 4.36281 111.814 4.36281H106.172C106.082 4.36281 106.022 4.42257 106.022 4.51222V14.7316C106.022 14.8512 106.112 14.911 106.202 14.911H111.784C111.873 14.911 111.933 14.8213 111.933 14.7316V4.51222H111.962ZM111.814 0.0299644C111.903 0.0299644 111.962 0.0897272 111.962 0.179372H111.933V2.98823C111.933 3.07787 111.873 3.13764 111.784 3.13764H106.172C106.082 3.13764 106.022 3.07787 106.022 2.98823V0.179372C106.022 0.0897272 106.082 0.0299644 106.172 0.0299644H111.814Z" fill="#0F1E82"/>
</g>
<defs>
<clipPath id="clip0_30_1281">
<rect width="124" height="20" fill="white" transform="translate(0.5)"/>
</clipPath>
</defs>
</svg>
