<svg width="67" height="20" viewBox="0 0 67 20" fill="none" xmlns="http://www.w3.org/2000/svg">
<g clip-path="url(#clip0_30_1087)">
<path d="M0.482605 19.9172H66.3177V0.0828514H0.482605V19.9172Z" fill="black"/>
<mask id="mask0_30_1087" style="mask-type:luminance" maskUnits="userSpaceOnUse" x="0" y="0" width="67" height="20">
<path d="M0.482605 19.9172H66.3176V0.0828571H0.482605V19.9172Z" fill="white"/>
</mask>
<g mask="url(#mask0_30_1087)">
<path d="M23.1088 13.0162H18.6951C18.5698 13.0162 18.5456 12.9665 18.5456 12.8661V6.90274C18.5456 6.80234 18.5698 6.75264 18.6951 6.75264H23.1088C25.7338 6.75264 26.7842 7.50516 26.7842 9.87733C26.7842 12.2505 25.7338 13.0162 23.1088 13.0162ZM26.7569 4.93219H12.6684C12.5431 4.93219 12.4805 5.00724 12.4805 5.11981V14.648C12.4805 14.7616 12.5431 14.8367 12.6684 14.8367H26.7569C30.8959 14.8367 32.9836 13.4554 32.9836 9.85299C32.9836 6.27496 30.8959 4.93219 26.7569 4.93219Z" fill="white"/>
<path d="M46.3623 10.4678H41.4365C41.3234 10.4678 41.286 10.4292 41.286 10.3177V6.90292C41.286 6.78934 41.3234 6.75181 41.4365 6.75181H46.3623C48.0127 6.75181 48.7126 7.20413 48.7126 8.57226C48.7126 9.95358 48.0127 10.4678 46.3623 10.4678ZM55.212 14.4352L51.1366 11.5479C51.0356 11.4718 50.974 11.4343 50.974 11.3836C50.974 11.3349 51.0114 11.3085 51.0992 11.3085C53.1616 11.3085 54.7625 10.343 54.7625 8.20817C54.7625 6.08752 53.3869 4.93237 50.8487 4.93237H35.4088C35.2836 4.93237 35.222 5.00641 35.222 5.12V14.6482C35.222 14.7608 35.2836 14.8369 35.4088 14.8369H41.0901C41.2153 14.8369 41.278 14.7608 41.278 14.6482V12.3886C41.278 12.275 41.3153 12.2385 41.4284 12.2385H44.6978C44.8604 12.2385 44.9231 12.2507 45.0352 12.3389L47.8733 14.6989C48.0116 14.8115 48.1106 14.8369 48.2732 14.8369H55.3372C55.4372 14.8369 55.4867 14.7983 55.4867 14.7233C55.4867 14.6229 55.3119 14.5103 55.212 14.4352Z" fill="white"/>
</g>
</g>
<defs>
<clipPath id="clip0_30_1087">
<rect width="66" height="20" fill="white" transform="translate(0.400024)"/>
</clipPath>
</defs>
</svg>
