<svg width="94" height="20" viewBox="0 0 94 20" fill="none" xmlns="http://www.w3.org/2000/svg">
<g clip-path="url(#clip0_30_1063)">
<path d="M13.3229 9.82274C13.3229 8.13043 15.095 7.13043 17.5606 7.13043C20.2573 7.13043 20.4884 7.51505 20.4884 8.59197C20.4884 8.82274 20.4114 8.97659 20.1802 8.97659C19.9491 8.97659 18.7934 8.59197 17.5606 8.59197C16.5589 8.59197 15.6343 8.97659 15.6343 9.66889C15.6343 11.3612 21.413 11.0535 21.413 14.2074C21.413 16.2074 18.9474 17.1304 16.9442 17.1304C15.095 17.1304 13.3229 16.592 13.3229 16.592C13.3229 16.592 13.1688 15.7458 13.1688 15.2843C13.1688 15.1304 13.3229 14.9766 13.477 14.9766C13.6311 14.9766 15.3261 15.6689 17.0212 15.6689C18.3311 15.6689 19.0245 15.0535 19.0245 14.3612C19.0245 12.592 13.3229 12.7458 13.3229 9.82274Z" fill="#5F5F64"/>
<path d="M25.0343 3.66893C25.0343 2.97663 26.4212 3.13047 26.8835 3.13047C27.1147 3.13047 27.3458 3.28432 27.3458 3.59201V8.82278C27.3458 8.8997 27.3458 8.97662 27.3458 8.97662C27.654 8.97662 28.8097 7.20739 31.2753 7.20739C33.2786 7.20739 34.8196 8.28432 34.8196 10.1305V16.5151C34.8196 16.8228 34.4343 16.9766 34.2802 16.9766H33.0474C32.8163 16.9766 32.5081 16.8228 32.5081 16.5151V11.0535C32.5081 9.66893 32.277 8.8997 30.8901 8.8997C28.8097 8.8997 27.3458 10.8997 27.3458 10.8997V16.592C27.3458 16.8228 27.1147 17.0535 26.8065 17.0535H25.5737C25.2655 17.0535 25.0343 16.8228 25.0343 16.592V3.66893Z" fill="#5F5F64"/>
<path d="M42.9097 6.74585C41.754 6.74585 40.5212 6.8997 39.9819 7.13046C39.4425 7.36123 39.3655 7.592 39.3655 8.20739C39.3655 8.51508 39.4425 8.97662 39.5196 8.97662C39.6737 8.97662 41.1376 8.36123 42.9097 8.36123C44.913 8.36123 45.6065 8.74585 45.6065 10.0535C45.6065 10.2074 45.6065 10.3612 45.3753 10.3612C41.3687 10.3612 38.3638 11.2843 38.3638 13.9766C38.3638 16.0535 40.213 17.1305 41.831 17.1305C43.9884 17.1305 45.0671 15.9766 45.5294 15.9766C45.8376 15.9766 45.6835 16.8228 46.454 16.8228H47.3015C47.6097 16.8228 47.6868 16.592 47.6868 16.3612V10.5151C47.8409 8.13047 46.7622 6.74585 42.9097 6.74585ZM45.6065 13.9766C45.6065 14.592 43.7573 15.3612 42.6015 15.3612C41.754 15.3612 40.5983 15.0535 40.5983 13.8228C40.5983 11.6689 44.5278 11.8228 45.3753 11.8228C45.4524 11.8228 45.6065 11.8228 45.6065 11.8228V13.9766Z" fill="#5F5F64"/>
<path d="M58.3966 7.13043C55.9311 7.13043 54.5442 8.89966 54.5442 8.89966C54.5442 8.89966 54.3901 8.43812 54.313 7.97659C54.1589 7.51505 54.0048 7.3612 53.6196 7.3612H52.772C52.6179 7.3612 52.2327 7.43812 52.2327 7.82274V19.8997C52.2327 20.2074 52.4638 20.3612 52.6179 20.3612H54.1589C54.4671 20.3612 54.5442 20.1304 54.5442 19.8997V15.9766C54.5442 15.9766 55.777 17.1304 58.0114 17.1304C61.0163 17.1304 62.9425 14.592 62.9425 11.8227C62.9425 8.89966 61.1704 7.13043 58.3966 7.13043ZM57.5491 15.592C56.0852 15.592 54.5442 14.8227 54.5442 14.0535V10.2843C54.5442 10.2843 56.0081 8.82274 57.7802 8.82274C59.5524 8.82274 60.3999 9.97659 60.3999 12.0535C60.477 13.7458 59.6294 15.592 57.5491 15.592Z" fill="#5F5F64"/>
<path d="M68.336 12.6689C68.336 12.5151 68.413 12.4381 68.5671 12.4381H75.2704C75.5015 12.4381 75.8097 12.2843 75.8097 11.8228C75.8097 9.13045 74.3458 7.05353 71.1868 7.05353C68.336 7.05353 65.8704 8.89968 65.8704 11.9766C65.8704 15.0535 68.6442 16.9766 71.9573 16.9766C73.2671 16.9766 75.5015 16.7458 75.6556 16.0535C75.7327 15.7458 75.8097 14.8228 75.8097 14.8228C75.8097 14.8228 74.3458 15.5151 72.3425 15.5151C69.4147 15.6689 68.336 13.8997 68.336 12.6689ZM71.0327 8.59199C72.5737 8.59199 73.4212 9.43814 73.4212 10.7458C73.4212 10.9766 73.2671 10.9766 73.036 10.9766H68.2589C68.336 10.7458 68.413 8.59199 71.0327 8.59199Z" fill="#5F5F64"/>
<path d="M3.84581 12.3612C3.53761 12.3612 3.38351 12.2074 3.38351 11.8997V11.4381C3.38351 11.1305 3.53761 10.9766 3.84581 10.9766H4.53925C6.00318 10.9766 7.31302 10.592 7.31302 9.51507C7.31302 8.74584 6.15728 8.43814 4.9245 8.43814C3.30646 8.43814 1.61138 9.05353 1.61138 9.05353C1.61138 9.05353 1.68843 8.82276 1.68843 8.2843C1.68843 8.13045 1.76548 7.74584 1.76548 7.74584C1.76548 7.2843 3.22941 7.05353 4.9245 7.05353C7.85236 7.05353 9.39335 7.89968 9.39335 9.2843C9.39335 11.0535 6.77368 11.592 6.77368 11.592C6.77368 11.592 9.85564 11.8997 9.85564 14.1305C9.85564 15.7458 8.31466 17.0535 4.84745 17.0535C3.22941 17.0535 1.61138 16.7458 1.61138 16.7458C1.61138 16.7458 1.38023 15.8228 1.38023 15.5151C1.38023 15.3612 1.53433 15.2074 1.68843 15.2074C1.84253 15.2074 3.76876 15.6689 4.7704 15.6689C6.38843 15.6689 7.62122 15.2843 7.62122 14.2074C7.62122 12.8997 6.31138 12.3612 4.07696 12.3612H3.84581Z" fill="#5F5F64"/>
<path d="M82.436 1.36123C82.0507 1.13046 81.5884 1.20738 81.4343 1.51508C81.2802 1.74585 81.2032 2.05354 81.2032 2.20738C81.2032 2.36123 79.6622 11.2843 79.5851 11.8228C79.5851 12.1305 79.6622 12.3612 79.8933 12.5151C80.0474 12.6689 80.2786 12.6689 80.4327 12.6689C80.8179 12.592 91.6819 9.74584 92.2983 9.66892C92.4524 9.66892 92.6835 9.51508 92.7606 9.36123C92.9917 9.05354 92.9147 8.592 92.6065 8.36123C92.1442 7.97661 82.9753 1.74585 82.436 1.36123ZM81.9737 5.20738C82.2048 4.43815 82.2048 3.89969 82.436 3.592C82.5901 3.36123 82.8983 3.28431 83.1294 3.43815C83.5147 3.74585 83.5917 4.51508 83.2835 5.13046C82.9753 5.74585 80.8179 10.1305 80.8179 10.1305C80.8179 10.1305 81.4343 7.13046 81.9737 5.20738ZM89.6786 8.05354C89.6786 8.13046 89.6786 8.20738 89.6015 8.28431C89.4474 8.43815 89.2163 8.592 88.9851 8.66892C88.754 8.74584 82.436 11.2074 82.2048 11.2843C81.9737 11.3612 81.5114 11.592 81.3573 11.4382C81.1261 11.2843 81.2802 10.9766 81.4343 10.6689C82.0507 9.74584 84.3622 6.28431 84.5933 5.82277C84.9786 5.28431 85.595 5.05354 86.1343 5.43815C86.7507 5.89969 89.2163 7.592 89.3704 7.66892C89.5245 7.82277 89.6786 7.89969 89.6786 8.05354Z" fill="#C8143C"/>
</g>
<defs>
<clipPath id="clip0_30_1063">
<rect width="94" height="20" fill="white"/>
</clipPath>
</defs>
</svg>
