<svg width="55" height="20" viewBox="0 0 55 20" fill="none" xmlns="http://www.w3.org/2000/svg">
<g clip-path="url(#clip0_30_1183)">
<path d="M0.75 14.6213V10.52H3.80963V11.3342H1.74136V12.2457H3.3108V13.0527H1.74136V14.6213H0.75Z" fill="black"/>
<path d="M4.27513 13.0063V10.5191H5.26649V12.8626C5.26649 13.5196 5.5024 13.8651 6.10659 13.8651C6.71077 13.8651 6.95388 13.5196 6.95388 12.8688V10.5182H7.94524V13.0054C7.94524 14.2035 7.14387 14.698 6.10659 14.698C5.0693 14.698 4.27423 14.2035 4.27423 13.0054L4.27513 13.0063Z" fill="black"/>
<path d="M8.39188 12.5706C8.39188 11.3074 9.31751 10.4415 10.4998 10.4415C11.682 10.4415 12.4041 11.0923 12.496 12.1278L11.5244 12.16C11.4722 11.6458 11.1174 11.3137 10.5196 11.3137C9.82985 11.3137 9.41655 11.8082 9.41655 12.5698C9.41655 13.3313 9.84335 13.8651 10.5988 13.8651C11.0517 13.8651 11.4389 13.6375 11.5839 13.234H10.5925V12.518H12.523V14.6204H11.6496V14.1062C11.4263 14.5168 10.9536 14.6989 10.4025 14.6989C9.25358 14.6989 8.39368 13.8392 8.39368 12.5698L8.39188 12.5706Z" fill="black"/>
<path d="M14.15 10.52V13.808H16.2516V14.6213H13.1524V10.52H14.15Z" fill="black"/>
<path d="M19.9407 14.6213H16.7496V10.52H19.8812V11.3342H17.7274V12.1412H19.4013V12.942H17.7274V13.808H19.9407V14.6213Z" fill="black"/>
<path d="M21.746 14.6213L20.1442 10.52H21.1814L22.2908 13.4036H22.3169L23.4136 10.52H24.405L22.8031 14.6213H21.746Z" fill="black"/>
<path d="M29.4095 10.52V11.3342H27.262V12.1412H28.9296V12.942H27.262V13.808H29.468V14.6213H26.2832V13.6321H25.1298L24.6706 14.6213H23.6594L25.6664 10.52H29.4095ZM25.399 12.8831H26.2841V11.2164H26.258L25.399 12.8831Z" fill="black"/>
<path d="M32.6195 14.6213C32.5339 14.5106 32.4817 14.2436 32.4484 13.808C32.4151 13.3455 32.2053 13.1956 31.792 13.1956H30.9582V14.6213H29.9803V10.52H31.9766C33.0472 10.52 33.5721 11.0146 33.5721 11.8029C33.5721 12.4082 33.1849 12.7858 32.6789 12.851C33.1192 12.9358 33.3686 13.1893 33.4145 13.6714C33.474 14.2767 33.4929 14.4722 33.6315 14.6221H32.6204L32.6195 14.6213ZM31.8181 12.434C32.3367 12.434 32.5934 12.2841 32.5934 11.8806C32.5934 11.5163 32.3376 11.3137 31.8181 11.3137H30.9582V12.4332H31.8181V12.434Z" fill="black"/>
<path d="M36.8281 12.9804V10.52H37.7411V14.6213H36.9469L35.0299 12.0046V14.6213H34.1106V10.52H35.0695L36.829 12.9804H36.8281Z" fill="black"/>
<path d="M39.1196 13.1304C39.1592 13.6964 39.586 13.9249 40.0974 13.9249C40.5377 13.9249 40.8133 13.7553 40.8133 13.4821C40.8133 13.2089 40.5702 13.1437 40.2091 13.0723L39.4338 12.9357C38.7774 12.8116 38.311 12.4474 38.311 11.7511C38.311 10.944 38.9476 10.4423 39.9525 10.4423C41.0753 10.4423 41.6858 10.9958 41.7056 11.9073L40.7863 11.9332C40.7602 11.4511 40.4252 11.2172 39.9462 11.2172C39.5257 11.2172 39.2898 11.3868 39.2898 11.6663C39.2898 11.9002 39.4735 11.985 39.776 12.0439L40.5513 12.1805C41.3976 12.3305 41.7857 12.7465 41.7857 13.4169C41.7857 14.2632 41.0438 14.6998 40.0983 14.6998C38.9953 14.6998 38.2075 14.1597 38.2075 13.1634L39.1205 13.1312L39.1196 13.1304Z" fill="black"/>
<path d="M17.8913 19.9223V15.8202H20.9518V16.6344H18.8836V17.5459H20.453V18.3529H18.8836V19.9223H17.8922H17.8913Z" fill="black"/>
<path d="M23.2164 20C22.0143 20 21.095 19.134 21.095 17.8708C21.095 16.6076 22.0143 15.7416 23.2164 15.7416C24.4185 15.7416 25.3441 16.6076 25.3441 17.8708C25.3441 19.134 24.4248 20 23.2164 20ZM23.2164 16.6076C22.5465 16.6076 22.1197 17.1084 22.1197 17.8708C22.1197 18.6332 22.5465 19.134 23.2164 19.134C23.8863 19.134 24.3194 18.6323 24.3194 17.8708C24.3194 17.1093 23.8926 16.6076 23.2164 16.6076Z" fill="black"/>
<path d="M28.5478 18.2815V15.8202H29.4608V19.9223H28.6666L26.7487 17.3048V19.9223H25.8294V15.8202H26.7884L28.5487 18.2815H28.5478Z" fill="black"/>
<path d="M30.1289 15.8202H31.7308C33.0904 15.8202 33.9305 16.5888 33.9305 17.8717C33.9305 19.1546 33.0895 19.9223 31.7308 19.9223H30.1289V15.8202ZM31.6659 19.1412C32.4475 19.1412 32.9004 18.6725 32.9004 17.8646C32.9004 17.0566 32.4475 16.6013 31.6659 16.6013H31.1275V19.1403H31.6659V19.1412Z" fill="black"/>
<path d="M37.6015 19.9223H34.4095V15.8202H37.542V16.6344H35.3882V17.4414H37.063V18.2422H35.3882V19.1081H37.6015V19.9223Z" fill="black"/>
<path d="M40.8511 18.2815V15.8202H41.7641V19.9223H40.97L39.0521 17.3048V19.9223H38.1328V15.8202H39.0917L40.852 18.2815H40.8511Z" fill="black"/>
<path d="M54.7473 6.85179C54.7185 6.72413 54.4745 6.66075 54.1251 6.6661C54.3881 6.51434 54.5375 6.35811 54.5042 6.24027C54.4637 6.10011 54.1747 6.05011 53.7749 6.08939C53.9829 5.96262 54.0981 5.83943 54.0711 5.74658C54.0315 5.60821 53.6866 5.57607 53.2229 5.64749C53.2202 5.6457 53.2175 5.64392 53.2148 5.64213C53.4174 5.53411 53.5335 5.43412 53.5137 5.36538C53.4741 5.22701 52.9069 5.2654 52.2234 5.44662C52.0677 5.48144 51.8732 5.54215 51.6562 5.62428C51.5445 5.66534 51.441 5.70641 51.3473 5.74837C50.292 6.19741 48.936 7.01695 48.7946 7.68561C48.592 8.64976 48.7046 9.71926 48.6569 10.3004C48.6028 10.9584 48.4345 11.4744 48.0239 11.4199C47.9401 11.4074 47.7556 11.3539 47.6853 11.2307C47.5971 11.0771 47.6061 10.9236 47.8483 10.7441C48.167 10.5093 48.2706 10.2147 48.2832 10.0701C48.3057 9.80765 48.2535 9.59607 48.0401 9.44966C47.9365 9.37913 47.8465 9.41573 47.9248 9.44966C48.1598 9.55232 48.2733 10.0487 48.0095 10.3451C47.7844 10.5977 47.3612 10.6727 47.2369 10.6522C47.0298 10.6263 46.7579 10.6093 46.5652 10.662C46.2113 10.7584 46.061 11.2182 46.061 11.2182C46.061 11.2182 45.3406 11.4208 45.3154 11.561C45.3046 11.6217 45.5756 11.4297 46.1078 11.6163C46.2519 11.6672 46.3725 11.802 46.5247 11.9734C46.6597 12.1261 46.8254 12.3082 46.983 12.4716C47.1856 12.6814 47.4026 12.8162 47.4017 12.818C47.0838 13.2491 45.1632 13.2429 44.9399 14.4927C44.804 15.256 44.7355 16.4139 44.8184 17.3682C44.8202 17.5932 44.8418 17.8628 44.885 18.153C44.9967 18.9002 45.2101 19.4885 45.3613 19.4662C45.4298 19.4564 45.4739 19.3216 45.491 19.1091C45.6171 19.5429 45.7845 19.8295 45.925 19.8081C46.0186 19.7947 46.0835 19.6474 46.115 19.4198C46.2419 19.776 46.4013 20.0009 46.5418 19.9804C46.6678 19.9616 46.7507 19.7501 46.7795 19.4331C46.9227 19.7715 47.0883 19.9786 47.2225 19.9518C47.3477 19.9268 47.417 19.701 47.4233 19.3724C47.5557 19.5617 47.6853 19.6626 47.7862 19.6331C47.914 19.5956 47.9645 19.3546 47.9401 19.0144C48.0257 19.1046 48.104 19.1475 48.1661 19.1278C48.2787 19.0921 48.3156 18.8663 48.2832 18.544C48.2904 18.5333 48.2985 18.5226 48.3057 18.5109C48.3804 18.5699 48.4444 18.5949 48.4894 18.5734C48.5785 18.5324 48.5785 18.3279 48.5074 18.0405C48.5137 18.0182 48.52 17.9958 48.5254 17.9735C48.5875 18.0065 48.6353 18.0155 48.6641 17.9949C48.7235 17.9521 48.6866 17.7896 48.5794 17.5629C48.5794 17.5423 48.5812 17.5227 48.5812 17.5022C48.6506 17.5414 48.7037 17.553 48.7343 17.5316C48.8532 17.4459 48.5893 16.8862 48.1445 16.28C48.077 16.1898 48.0986 16.0622 48.1346 15.7917C48.2175 15.1694 49.3052 14.1696 49.8661 13.8428C50.0651 13.7268 50.2974 13.7071 50.4883 13.7187C50.6189 13.733 51.0205 13.8026 51.1114 13.8187C51.8354 13.9473 52.6025 14.4222 52.9852 14.391C53.4012 14.3579 53.186 13.3607 53.1797 13.3581C53.1797 13.3581 53.9117 12.5135 53.4831 12.3359C53.114 12.1832 51.9317 12.4394 51.3212 12.3537C51.2924 12.3502 51.2591 12.3439 51.2222 12.3368C51.0781 12.3118 50.9304 11.9886 50.9466 11.4155C50.9601 10.9334 51.1618 10.3656 51.4896 9.35681C51.5778 9.08631 51.9245 8.93723 52.0596 8.95776C52.0668 8.95954 52.0956 8.96401 52.1019 8.9649C52.8483 9.11845 53.4768 9.12649 53.5074 8.98276C53.5164 8.93901 53.4687 8.88723 53.3787 8.83099C53.7506 8.77832 53.9964 8.68369 53.9982 8.5721C53.9982 8.51585 53.9387 8.46318 53.8316 8.41587C54.1729 8.30874 54.3889 8.17394 54.3736 8.05074C54.3655 7.9811 54.2818 7.92486 54.1467 7.88469C54.4592 7.76774 54.6519 7.6258 54.6339 7.49724C54.6204 7.39904 54.4871 7.32584 54.2773 7.28298C54.5906 7.13836 54.7797 6.97856 54.7509 6.85179H54.7473ZM47.0937 12.152C46.874 12.06 46.7075 11.9377 46.5814 11.8136C46.513 11.744 46.4932 11.6681 46.5382 11.6217C46.7372 11.4164 47.1667 11.5637 47.1667 11.5637C47.1919 11.5699 47.2171 11.5529 47.2207 11.5271C47.2225 11.5119 47.2171 11.4967 47.2054 11.4878C47.2054 11.4878 46.9749 11.3637 46.6588 11.3646C46.6651 11.353 46.6723 11.3405 46.6759 11.3271C46.694 11.2476 46.6444 11.1691 46.5643 11.1503C46.4842 11.1325 46.4049 11.1816 46.386 11.261C46.3752 11.3092 46.3914 11.3557 46.422 11.3896C46.4121 11.3914 46.4031 11.3923 46.3932 11.394C46.3248 11.4074 46.2798 11.3619 46.26 11.2941C46.2059 11.0173 46.4589 10.8316 46.8173 10.9048C46.9632 10.9343 47.0559 11.0914 47.4494 11.0735C47.571 11.0682 47.5115 11.3762 47.5503 11.9243C47.5836 12.3939 47.2909 12.235 47.0937 12.152ZM52.4134 12.709C52.5566 12.9001 52.236 13.1849 52.236 13.1849C52.236 13.1849 52.3585 13.7303 52.128 13.7312C51.8047 13.7321 51.5274 13.6277 51.034 13.5429C50.4523 13.442 50.3073 13.4161 49.7392 13.4134C48.9486 13.4098 48.3147 14.1249 47.9023 14.4302C47.4206 14.7864 46.4031 15.2337 45.4982 14.4008C45.1074 14.041 45.9853 13.6384 46.7399 13.3947C47.3729 13.1893 47.5953 12.9358 47.5953 12.9358C47.5953 12.9358 47.7583 13.067 48.0743 13.1268C49.0864 13.3179 48.8397 11.9395 48.6083 11.5235C48.5479 11.4146 48.8829 10.987 48.9099 10.0371C48.9306 9.33807 48.8451 8.76136 49.1062 8.45515C49.3673 8.14894 50.401 9.18451 50.2776 10.1808C50.2002 10.8057 49.7554 12.3287 50.889 12.5323C51.4059 12.6251 52.3027 12.5635 52.4125 12.7099L52.4134 12.709Z" fill="black"/>
<path d="M47.0514 4.65381C47.0613 4.57436 47.0856 4.58418 47.0901 4.52258C47.0946 4.44223 47.0703 4.46187 47.0712 4.39759C47.073 4.35296 47.0856 4.34403 47.0856 4.31011C47.0856 4.24315 47.0604 4.20655 46.9767 4.20298C46.8947 4.2003 46.8326 4.19762 46.3644 4.2378C45.9898 4.26904 45.68 4.29314 45.3784 4.16013C45.0768 4.02711 44.9741 3.58699 44.9264 3.46915C44.8805 3.35131 44.7229 2.84245 44.7481 2.75674C44.7733 2.67015 45.0002 2.52463 45.02 2.40322C45.0389 2.28359 44.9822 2.22735 44.9912 2.19253C44.9984 2.15861 45.3235 1.93632 45.3307 1.78634C45.3361 1.67653 45.2442 1.65511 45.265 1.63189C45.265 1.63189 45.4946 1.42478 45.4549 1.35157C45.427 1.30158 45.3127 1.35157 45.2938 1.33729C45.2686 1.31497 45.5666 1.07661 45.5153 0.981089C45.4784 0.912348 45.3172 1.02126 45.3046 0.995372C45.2929 0.970376 45.5522 0.730229 45.4685 0.635599C45.4036 0.565073 45.1983 0.726658 45.1758 0.699876C45.1506 0.670416 45.3955 0.452588 45.3001 0.369563C45.2298 0.30975 44.984 0.490083 44.9615 0.472228C44.9381 0.452588 45.1803 0.220476 45.0543 0.151735C44.9246 0.078531 44.6464 0.358851 44.6094 0.336532C44.5734 0.312428 44.8589 0.0213957 44.6716 0.000862784C44.541 -0.0125283 44.3456 0.287432 44.2457 0.272255C44.2007 0.265113 44.4177 -0.0152065 44.2601 0.0213957C44.1538 0.0446069 43.6766 0.382954 43.3831 1.25605C43.0895 2.12736 42.9788 2.29431 43.1012 2.61926C43.1436 2.73175 43.2777 2.92369 43.3741 3.02992C43.4695 3.13526 43.6388 3.36648 43.6541 3.48522C43.6568 3.50754 43.5821 3.58699 43.2858 3.6343C43.2372 3.64234 43.1625 3.65216 43.0733 3.6477C43.0112 3.64591 42.9347 3.64502 42.8824 3.66912C42.8257 3.69501 42.7663 3.75304 42.7294 3.82624C42.6925 3.89856 42.6843 3.95569 42.6717 3.97087C42.6645 3.9789 42.6213 3.97979 42.5394 4.00211C42.4737 4.02265 42.3863 4.05835 42.3728 4.07175C42.362 4.08157 42.3575 4.09585 42.3629 4.10746C42.3692 4.11906 42.3836 4.11906 42.3971 4.11549C42.4187 4.11192 42.507 4.08335 42.6087 4.08692C42.6753 4.09139 42.7276 4.11549 42.7717 4.15031C42.8176 4.18512 42.8293 4.19316 43.0526 4.44759C43.2759 4.70291 43.3372 4.80558 43.366 4.85646C43.393 4.90735 43.4389 4.98502 43.4101 5.0368C43.3867 5.07875 43.3363 5.12875 43.1859 5.17785C43.0319 5.22784 42.9617 5.24837 42.5979 5.3805C42.1954 5.52691 42.1819 6.08308 42.2296 6.33484C42.2774 6.58659 42.3512 7.04099 42.6114 7.71501C42.8698 8.38813 43.0796 8.71041 43.1409 8.72291C43.176 8.73005 43.1814 8.64346 43.1733 8.56579C43.1679 8.51222 43.1589 8.45777 43.1778 8.45866C43.2066 8.45866 43.3345 8.79879 43.4497 8.79254C43.5253 8.78719 43.4551 8.54347 43.4722 8.54347C43.5244 8.54347 43.6568 8.80147 43.7676 8.7738C43.8603 8.75058 43.7135 8.52651 43.736 8.50687C43.7622 8.48455 43.9287 8.73094 44.0431 8.67649C44.1376 8.63185 44.0458 8.43188 44.0674 8.41313C44.0953 8.38902 44.252 8.52561 44.3105 8.47919C44.4015 8.41045 44.2484 8.1828 44.2682 8.14977C44.2835 8.1221 44.4546 8.21941 44.5104 8.14531C44.5761 8.0596 44.4015 7.85249 44.4177 7.81857C44.4339 7.78643 44.5338 7.81142 44.5626 7.70876C44.5833 7.63377 44.4474 7.52039 44.4348 7.45522C44.4204 7.39362 44.4798 7.36595 44.46 7.2856C44.4438 7.21329 44.3384 7.19186 44.3024 7.10973C44.2655 7.0276 44.2925 6.9544 44.2466 6.87316C44.2007 6.7937 44.0071 6.683 43.9638 6.60712C43.9287 6.54552 43.9188 6.48125 43.9476 6.40358C43.9846 6.30091 44.1926 5.96167 44.5284 5.66171C44.8138 5.40728 45.0957 5.24213 45.2785 5.19124C45.4477 5.14571 45.5819 5.1841 45.6521 5.21356C46.6129 5.60547 46.7398 5.63671 46.7921 5.63671C46.8443 5.63671 46.8848 5.61083 46.9082 5.56708C46.9199 5.54476 46.9154 5.49834 46.9307 5.4537C46.9433 5.41621 46.9703 5.39925 46.9794 5.36175C46.9893 5.3189 46.9712 5.26801 46.9785 5.22159C46.9839 5.1841 47.0244 5.15285 47.0298 5.11803C47.0397 5.04929 47.0127 5.00287 47.0181 4.97609C47.0289 4.91181 47.0532 4.9252 47.0658 4.84932C47.082 4.76005 47.0406 4.74755 47.0532 4.65203M43.2633 4.46991C43.2183 4.47526 43.1643 4.46991 43.0895 4.3967C43.0301 4.34046 42.9824 4.27618 42.9707 4.25922C42.9185 4.18334 42.9824 4.14138 43.0544 4.10388C43.0859 4.08782 43.176 4.05121 43.2444 4.05925C43.2696 4.06282 43.284 4.06639 43.2885 4.05657C43.2921 4.05121 43.2885 4.04229 43.2786 4.03604C43.2606 4.02622 43.2363 4.02532 43.2084 4.02532C43.131 4.01818 42.9869 4.05925 42.9338 4.06282C42.9059 4.0655 42.8347 4.07978 42.7978 4.03604C42.7609 3.98961 42.7951 3.89498 42.841 3.86017C42.8968 3.81732 42.9545 3.82624 43.0166 3.84053C43.0886 3.8566 43.1517 3.87624 43.1994 3.87624C43.2426 3.87534 43.302 3.85303 43.302 3.85303C43.302 3.85303 43.3363 3.88695 43.3561 3.91462C43.3831 3.94944 43.3984 3.97712 43.4182 4.03068C43.4902 4.2244 43.3993 4.45205 43.2624 4.46991M43.3543 3.82178C43.3543 3.82178 43.4443 3.76018 43.519 3.70572C43.5785 3.66198 43.6271 3.61556 43.6586 3.5852C43.6694 3.57449 43.6748 3.68341 43.6586 3.7575C43.6442 3.8191 43.5713 3.98783 43.5046 3.97444C43.438 3.96105 43.3579 3.83517 43.3534 3.82089M46.7425 4.38331C46.6129 4.44223 46.467 4.53597 46.4256 4.81897C46.3788 5.14214 46.4508 5.26801 46.6255 5.4171C46.7606 5.53226 46.8416 5.5644 46.8362 5.57779C46.8281 5.59743 46.8101 5.60279 46.7651 5.59029C46.5913 5.54476 46.368 5.4537 45.9736 5.28855C45.5216 5.09661 45.4216 4.90021 45.4603 4.66631C45.4973 4.44045 45.7665 4.35117 46.2347 4.30743C46.8785 4.24583 46.983 4.2369 46.9911 4.26547C46.9992 4.29939 46.9514 4.29047 46.7434 4.38331" fill="black"/>
</g>
<defs>
<clipPath id="clip0_30_1183">
<rect width="54" height="20" fill="white" transform="translate(0.75)"/>
</clipPath>
</defs>
</svg>
