<svg width="137" height="20" viewBox="0 0 137 20" fill="none" xmlns="http://www.w3.org/2000/svg">
<g clip-path="url(#clip0_30_1283)">
<path d="M23.0604 7.21366C22.5601 8.62352 19.4065 10.0962 11.661 8.34801L12.6685 12.9152C20.414 14.3208 25.0051 13.1649 27.6274 10.4161C29.5698 8.37882 29.9504 5.74348 28.3544 3.72713C26.6664 1.59243 22.9275 0.0446777 18.2054 0.0446777C11.4507 0.0446777 6.63751 1.99864 3.9653 9.33057L0.37146 19.1884H6.65775L10.2336 9.21854C11.7005 5.11801 14.7837 4.43903 18.2054 4.43903C21.7934 4.43903 23.5256 5.9145 23.0604 7.21366Z" fill="#A90533"/>
<path d="M85.3035 11.5404L85.0602 11.4357C86.4669 10.8758 87.9938 10.5729 89.5106 10.5729C90.4314 10.5729 92.4788 10.7288 93.3416 11.2217C93.5517 11.3396 93.7438 11.5246 93.6409 11.7549C93.26 12.6124 87.6526 12.5644 85.3035 11.5404ZM96.7865 9.23517C95.3005 8.44209 92.8509 7.80956 90.4554 7.71191C85.4854 7.50735 79.8201 9.20023 78.6914 13.2005C78.0397 15.5016 80.2731 18.61 86.0887 19.4918C88.999 19.9375 93.622 19.8245 96.9495 18.7269L98.1919 15.3116C91.4438 17.6269 82.6246 16.9546 82.9198 13.4868C86.1849 15.5779 90.9483 15.3796 94.4755 14.8026C100.586 13.807 100.496 11.2143 96.7865 9.23517Z" fill="#A90533"/>
<path d="M107.087 11.5404L106.847 11.4357C108.252 10.8758 109.78 10.5729 111.294 10.5729C112.219 10.5729 114.263 10.7288 115.126 11.2217C115.336 11.3396 115.528 11.5246 115.425 11.7549C115.044 12.6124 109.439 12.5644 107.087 11.5404ZM118.571 9.23517C117.087 8.44209 114.635 7.80956 112.239 7.71191C107.272 7.50735 101.607 9.20023 100.475 13.2005C99.8254 15.5016 102.06 18.61 107.873 19.4918C110.782 19.9375 115.408 19.8245 118.735 18.7269L119.978 15.3116C113.23 17.6269 104.412 16.9546 104.706 13.4868C107.971 15.5779 112.734 15.3796 116.26 14.8026C122.369 13.807 122.283 11.2143 118.571 9.23517Z" fill="#A90533"/>
<path d="M123.159 12.171L120.666 19.1908H126.421L128.339 13.7892C128.81 12.4189 129.211 11.3942 130.889 11.3942H134.932L136.065 8.15991H128.617C126.125 8.15991 124.117 9.39363 123.159 12.171Z" fill="#A90533"/>
<path d="M26.7554 19.1908H32.7134L36.7403 8.15991H30.7823L26.7554 19.1908Z" fill="#A90533"/>
<path d="M65.417 13.2553C65.9709 11.7377 67.6458 11.0351 69.1124 11.0351C70.5665 11.0351 71.9586 11.8906 71.4198 13.3681L69.2926 19.1908H75.0471L77.2064 13.2763C78.3266 10.2045 75.9003 7.66016 70.4663 7.66016C64.4169 7.66016 60.988 9.63402 59.6664 13.2485L57.4985 19.1908H63.2505L65.417 13.2553Z" fill="#A90533"/>
<path d="M47.6656 11.147C49.9912 11.2448 51.8651 12.4133 51.5311 13.9309C51.2107 15.394 48.9443 16.3903 46.5921 16.29C44.2672 16.1938 42.3949 15.0203 42.7263 13.5034C43.0486 12.043 45.3141 11.0449 47.6656 11.147ZM48.4764 7.71773C42.483 7.46366 37.1429 10.0219 36.4246 13.2925C35.7166 16.5112 39.7652 19.4639 45.7815 19.718C51.7735 19.9726 57.1156 17.415 57.8348 14.143C58.5408 10.9246 54.4924 7.97008 48.4764 7.71773Z" fill="#A90533"/>
</g>
<defs>
<clipPath id="clip0_30_1283">
<rect width="136" height="20" fill="white" transform="translate(0.25)"/>
</clipPath>
</defs>
</svg>
